{"glyphs":{"0":{"ha":610,"x_min":0,"x_max":0,"o":"m 429 1000 b 197 831 348 1000 267 935 b 2 220 92 675 14 438 l 2 213 b 65 75 2 166 23 120 b 223 -1 106 31 159 5 l 232 -1 b 349 43 273 -1 312 14 b 538 315 422 100 486 199 b 668 796 614 488 661 686 l 668 802 b 631 894 668 833 656 864 b 540 968 606 924 575 948 b 437 1000 505 987 471 998 z m 510 859 b 526 822 521 857 526 844 b 525 798 526 815 526 807 b 495 663 521 762 511 718 b 435 491 479 608 459 551 b 360 320 412 431 387 374 b 280 189 333 267 307 223 b 211 138 254 155 231 138 l 209 138 b 195 170 199 139 195 150 b 196 189 195 176 195 182 b 227 323 200 224 210 268 b 289 496 243 377 264 435 b 366 671 313 558 339 616 b 445 806 393 726 420 770 b 509 859 470 841 491 859 z "},"1":{"ha":340,"x_min":0,"x_max":0,"o":"m 289 1000 b 204 939 272 1000 242 974 b 0 817 145 884 67 817 b 20 740 0 780 7 754 b 71 718 34 726 51 718 b 155 744 98 718 125 727 b 229 798 185 761 210 779 b 195 729 229 798 218 774 b 119 558 173 684 148 627 b 43 347 91 490 66 420 b 10 157 21 275 10 211 b 182 -6 10 -7 183 -5 b 208 170 182 44 191 103 b 269 378 224 237 245 307 b 342 583 294 449 318 517 b 403 753 366 647 387 704 b 427 859 419 802 427 837 b 401 925 427 881 418 903 b 341 979 382 947 363 965 b 289 1000 319 994 302 1000 z "},"2":{"ha":636,"x_min":0,"x_max":0,"o":"m 452 1000 b 358 967 426 1000 395 989 b 250 886 321 945 285 918 b 161 787 214 853 185 820 b 125 703 138 753 125 725 b 148 642 125 683 133 663 b 199 581 162 620 179 600 b 250 536 218 563 235 548 b 272 519 264 525 272 519 b 302 608 272 545 282 574 b 381 707 323 642 349 675 b 484 786 413 739 447 765 b 585 817 519 807 553 817 b 528 700 585 788 566 749 b 381 536 490 651 441 596 b 186 346 321 475 256 412 b -1 163 122 285 60 224 b 33 62 -1 142 11 100 b 113 -7 54 24 81 -7 b 125 -6 117 -7 121 -7 b 430 39 251 27 352 39 b 557 28 482 39 525 35 b 652 -6 623 12 652 -6 b 623 87 652 -6 642 35 b 589 166 614 114 602 140 b 545 232 576 192 562 214 b 492 259 528 250 511 259 b 252 181 400 259 250 180 b 300 225 252 181 268 196 b 416 338 332 254 370 292 b 554 485 462 384 508 433 b 671 633 600 536 639 586 b 718 747 703 680 718 718 b 676 865 718 787 704 826 b 572 962 648 903 614 936 b 452 1000 531 987 491 1000 z "},"3":{"ha":734,"x_min":0,"x_max":0,"o":"m 486 1000 b 370 972 450 1000 411 991 b 252 909 328 954 289 932 b 162 845 216 885 186 863 b 127 817 138 827 127 817 b 155 770 127 800 136 784 b 221 734 174 755 196 743 b 283 720 245 724 266 720 b 339 783 283 732 302 754 b 462 865 376 812 417 840 b 561 903 506 890 539 903 b 579 888 572 903 578 898 b 537 825 579 876 565 855 b 429 730 509 795 473 764 b 289 645 385 697 338 669 b 151 608 239 621 193 608 b 175 530 151 586 159 560 b 230 444 191 499 209 471 b 287 382 251 416 270 396 b 389 420 308 393 342 406 b 509 441 435 434 475 441 b 557 416 538 441 557 434 b 483 327 557 393 532 363 b 310 230 433 291 376 258 b 140 187 244 201 188 187 b 61 201 108 187 82 192 b -3 240 19 218 -3 240 b 50 153 -3 240 18 202 b 106 80 66 129 85 104 b 243 -7 149 31 196 -7 b 496 94 324 -7 414 35 b 605 189 536 123 572 155 b 711 362 670 256 711 321 b 676 441 711 385 700 411 b 595 502 652 471 626 492 b 517 511 570 508 544 511 b 397 498 457 511 397 498 b 429 517 397 498 408 505 b 507 568 450 530 477 547 b 599 640 538 589 568 613 b 676 726 629 667 655 696 b 707 814 697 756 707 785 b 671 904 707 846 695 876 b 583 973 646 932 617 955 b 486 1000 548 991 516 1000 z "},"4":{"ha":651,"x_min":0,"x_max":0,"o":"m 214 1000 b 193 963 214 1000 207 988 b 138 864 178 938 159 905 b 75 728 117 823 96 778 b 20 580 53 679 35 629 b -2 442 5 530 -2 484 b 28 376 -2 421 8 399 b 97 319 49 353 72 334 b 155 296 122 303 141 296 b 233 332 177 296 203 308 b 319 412 262 355 291 382 b 389 493 347 442 370 469 b 418 528 408 517 418 528 b 397 483 418 528 411 513 b 351 374 384 452 368 416 b 304 250 334 331 318 290 b 283 159 290 210 283 179 b 312 81 283 132 293 106 b 381 18 331 56 354 35 b 458 -7 408 1 434 -7 b 506 191 458 29 474 96 b 615 494 538 287 574 388 b 724 770 656 601 692 692 b 772 887 756 848 772 887 b 744 935 772 901 762 917 b 680 981 726 953 704 968 b 617 1000 656 994 635 1000 b 598 963 617 1000 611 988 b 475 745 573 913 528 831 b 393 621 449 701 421 660 b 311 526 365 583 337 551 b 239 488 284 500 260 488 b 222 514 228 489 222 498 b 245 608 222 536 230 567 b 300 732 261 648 279 690 b 354 839 320 773 338 809 b 378 883 370 868 378 883 b 351 932 378 897 369 914 b 285 980 332 951 310 966 b 214 1000 260 994 236 1000 z "},"5":{"ha":760,"x_min":0,"x_max":0,"o":"m 626 1000 b 485 972 589 1000 540 988 b 241 930 412 951 327 930 b 166 937 216 930 191 932 b 180 884 166 924 171 906 b 283 770 197 840 232 794 b 222 661 268 734 248 699 b 151 559 197 624 174 589 b 100 479 121 518 100 488 b 127 423 100 466 109 447 b 191 357 146 399 167 377 b 246 328 214 338 232 328 b 317 353 263 328 287 336 b 408 410 347 370 377 389 b 526 473 460 444 506 473 b 535 462 532 473 535 469 b 500 385 535 441 524 415 b 412 296 477 355 448 326 b 294 224 375 267 336 243 b 174 195 252 204 212 195 b -2 239 24 195 -1 238 b 71 85 -2 198 24 138 b 251 -7 117 33 180 -7 l 254 -7 b 473 72 327 -3 400 23 b 656 244 545 120 606 178 b 732 420 707 311 732 369 b 705 504 732 449 723 477 b 644 569 687 530 667 552 b 589 594 622 586 604 594 b 514 574 570 594 545 587 b 423 528 484 561 453 545 b 348 482 393 511 368 496 b 317 462 328 469 317 462 b 340 526 317 473 325 495 b 391 624 354 556 371 589 b 442 714 410 659 427 688 b 452 731 446 720 449 726 b 407 766 444 743 429 754 b 469 781 427 770 447 775 b 675 814 535 797 608 814 b 816 766 730 814 780 801 b 802 829 816 782 811 803 b 763 907 793 855 780 881 b 703 973 746 933 726 955 b 626 1000 680 991 654 1000 z "},"6":{"ha":704,"x_min":0,"x_max":0,"o":"m 437 1000 b 405 966 437 1000 426 989 b 218 739 362 920 293 840 b 113 581 181 689 146 636 b 31 413 79 524 52 469 b -1 254 10 357 -1 304 b 265 5 -1 94 153 5 b 397 51 305 5 349 20 b 531 167 444 81 489 120 b 635 315 573 214 608 262 b 675 456 662 367 675 414 b 631 601 675 507 661 555 b 527 673 602 646 567 670 l 524 673 b 424 637 492 673 458 661 b 321 545 389 614 355 583 b 163 290 255 468 198 374 b 253 493 180 355 210 423 b 393 687 296 563 343 627 b 522 833 442 747 486 795 b 577 889 559 870 577 889 b 553 938 577 905 569 921 b 497 982 538 955 519 970 b 437 1000 475 994 455 1000 z m 447 480 b 454 468 452 479 454 475 b 433 400 454 454 447 431 b 379 302 418 368 400 336 b 312 214 357 268 335 239 b 252 178 289 190 269 178 l 242 178 b 265 258 242 198 250 225 b 321 359 280 292 298 326 b 389 445 343 393 366 421 b 447 480 412 469 431 480 z "},"7":{"ha":587,"x_min":0,"x_max":0,"o":"m 69 1000 b 128 865 69 947 89 903 b 271 809 167 828 214 809 b 393 824 307 809 348 814 b 511 854 439 834 478 844 b 562 869 545 864 562 869 b 446 749 526 831 487 791 b 146 424 342 642 233 528 b 40 279 102 372 66 323 b -1 167 13 235 -1 197 b 21 92 -1 143 7 118 b 77 22 35 64 54 41 b 153 -6 100 3 125 -6 b 192 143 153 41 166 90 b 290 304 217 196 250 250 b 552 606 371 412 467 517 b 668 732 599 654 637 696 b 713 809 699 768 713 793 b 677 883 713 828 701 852 b 600 964 654 913 628 941 b 543 1000 572 988 553 1000 b 464 992 530 1000 504 998 b 341 979 428 987 387 983 b 209 971 295 974 251 971 b 69 1000 144 971 92 979 z "},"8":{"ha":648,"x_min":0,"x_max":0,"o":"m 416 1000 b 312 962 380 1000 345 987 b 220 866 278 937 248 905 b 153 743 193 827 170 786 b 119 620 134 699 123 659 b 119 604 119 614 119 609 b 153 509 119 569 132 538 b 76 394 126 473 101 435 b 13 273 51 353 30 313 b -13 164 -5 233 -13 197 b 23 62 -13 124 -1 90 b 115 -3 47 34 78 12 b 231 -26 153 -19 191 -26 b 353 15 273 -26 313 -13 b 449 117 391 42 424 76 b 487 241 474 159 487 199 b 444 363 487 285 469 325 b 492 469 452 397 469 433 b 564 575 514 505 538 541 b 629 667 589 608 610 639 b 655 740 646 696 655 720 b 578 904 655 786 624 849 b 500 972 554 931 528 954 b 416 1000 472 991 444 1000 z m 486 900 b 506 880 499 899 506 892 b 473 792 506 860 495 831 b 398 667 451 753 426 711 b 318 531 366 616 339 571 b 288 631 300 563 288 596 b 290 651 288 637 289 644 b 325 766 294 690 306 728 b 395 860 343 803 367 835 b 484 900 422 885 452 898 z m 289 359 b 338 240 318 324 338 286 b 319 161 338 215 332 189 b 267 90 307 133 289 109 b 195 61 245 71 221 61 b 161 96 170 61 161 75 b 184 178 161 117 168 145 b 237 277 199 212 217 244 b 289 359 256 310 273 337 z "},"9":{"ha":745,"x_min":0,"x_max":0,"o":"m 416 1000 b 296 962 376 1000 336 987 b 183 863 256 936 218 903 b 89 732 147 822 116 779 b 24 600 61 686 39 642 b -1 494 7 557 -1 522 b 174 276 -1 349 104 276 b 273 313 205 276 238 288 b 372 402 307 337 340 367 b 460 509 404 437 433 473 b 522 598 486 544 507 574 b 545 635 538 623 545 635 b 531 600 545 635 541 623 b 431 391 512 552 477 474 b 357 274 408 350 383 311 b 272 183 330 237 301 207 b 183 147 243 159 213 147 b 77 232 111 147 77 233 b 93 148 77 232 79 195 b 130 78 100 124 113 101 b 201 18 146 54 170 35 b 318 -6 231 2 270 -6 b 421 38 353 -6 388 9 b 603 313 488 96 549 196 b 730 663 656 430 700 556 b 766 802 746 717 758 763 b 779 880 774 840 779 867 b 719 976 779 928 750 958 b 659 1000 688 994 659 1000 b 597 894 659 1000 635 958 b 416 1000 546 944 471 1000 z m 532 848 b 568 845 545 848 557 847 b 390 579 517 761 452 660 b 300 477 358 538 328 503 b 229 437 273 450 249 437 b 194 475 205 437 194 452 b 227 576 194 500 205 534 b 311 700 248 617 276 659 b 420 805 345 741 381 776 b 532 848 460 833 497 848 z "},"\u0000":{"ha":0,"x_min":0,"x_max":0,"o":""},"\r":{"ha":347,"x_min":0,"x_max":0,"o":""}," ":{"ha":345,"x_min":0,"x_max":0,"o":""},"!":{"ha":388,"x_min":0,"x_max":0,"o":"m 359 996 b 321 912 359 996 347 968 b 235 715 296 856 267 790 b 148 503 202 640 173 568 b 110 372 123 436 110 393 b 271 195 110 230 272 195 l 271 204 b 398 618 271 322 339 484 b 454 749 420 666 438 710 b 476 840 469 788 476 819 b 418 960 476 897 448 935 b 359 996 387 985 359 996 z m 189 178 b 123 149 166 178 144 168 b 90 84 102 129 92 108 l 90 82 b 116 28 90 62 98 45 b 172 1 133 11 152 2 l 174 1 b 235 28 195 1 215 9 b 267 88 254 46 265 66 l 267 92 b 245 147 267 111 260 130 b 193 177 230 165 213 175 b 189 178 191 178 191 178 z "},"\"":{"ha":421,"x_min":0,"x_max":0,"o":"m 324 1002 b 285 963 313 1002 300 989 b 243 875 269 937 255 907 b 226 796 232 842 226 816 b 272 687 226 744 248 709 b 317 656 296 665 317 656 b 336 730 317 676 323 701 b 375 817 347 759 361 788 b 418 930 399 865 418 908 b 402 960 418 939 413 948 b 324 1002 380 981 347 1002 z m 513 1002 b 473 963 502 1002 489 989 b 433 875 458 937 444 907 b 414 796 420 842 414 816 b 460 687 414 744 436 709 b 506 656 484 665 506 656 b 524 730 506 676 512 701 b 564 817 536 759 549 788 b 608 930 587 865 608 908 b 591 960 608 939 602 948 b 513 1002 568 981 535 1002 z "},"#":{"ha":896,"x_min":0,"x_max":0,"o":"m 414 858 b 383 784 414 858 404 833 b 311 604 362 734 338 675 b 174 609 229 606 174 609 b 186 562 174 609 178 586 b 224 512 194 536 207 514 b 276 509 241 511 259 510 b 222 350 256 454 237 401 b 109 355 146 353 109 355 b 120 307 109 355 112 332 b 158 258 128 282 141 260 b 177 257 164 257 171 257 b 196 256 183 256 190 256 b 184 178 189 223 184 197 b 241 54 184 121 209 81 b 345 1 288 14 346 1 b 345 24 345 8 345 16 b 379 251 345 100 358 176 b 496 250 420 250 459 250 b 486 178 490 220 486 196 b 543 54 486 121 511 81 b 647 1 590 14 648 1 l 647 20 b 681 251 647 97 661 175 b 867 258 805 256 867 258 b 842 307 867 258 857 281 b 785 355 825 332 805 355 l 783 355 b 711 350 761 353 736 351 b 755 469 726 391 741 431 b 770 506 760 481 765 494 b 933 512 873 509 933 512 b 852 609 933 511 892 609 l 850 609 b 830 608 844 608 837 608 b 808 606 823 607 816 607 b 832 703 824 648 832 680 b 774 823 832 759 804 798 b 715 858 743 847 715 858 b 684 783 715 858 705 833 b 611 600 663 733 639 672 b 557 599 593 599 575 599 b 504 600 539 599 522 599 b 530 703 521 644 530 678 b 472 823 530 759 502 798 b 414 858 441 847 414 858 z m 467 505 b 522 504 486 504 504 504 b 576 503 540 504 558 504 b 522 345 555 448 538 395 l 408 345 b 465 497 427 399 446 450 b 467 505 465 499 467 502 z "},"$":{"ha":749,"x_min":0,"x_max":0,"o":"m 508 858 b 479 779 508 858 498 831 b 299 726 416 766 355 749 b 159 648 243 703 196 677 b 104 562 123 619 104 591 b 125 477 104 536 111 507 b 176 397 139 446 156 419 b 232 363 195 374 214 363 b 341 378 259 363 296 368 b 296 224 323 322 308 271 b 265 221 285 222 275 221 b 132 275 209 223 163 247 b 81 328 99 302 81 328 b 97 290 81 328 87 315 b 138 203 107 265 121 236 b 200 113 156 170 176 140 b 275 65 224 87 249 71 b 376 0 295 12 377 0 l 376 18 b 379 77 376 37 377 57 b 528 130 429 90 479 108 b 654 202 578 153 619 177 b 705 266 688 227 705 248 b 669 418 705 310 692 368 b 566 504 644 467 610 504 b 494 498 544 504 520 502 b 533 598 508 534 521 567 b 544 627 536 608 541 618 b 638 640 581 635 612 640 b 724 588 666 640 698 615 b 766 535 749 560 766 535 b 745 627 766 535 760 575 b 717 704 737 652 728 678 b 626 795 694 755 664 795 b 587 794 614 795 601 795 b 508 858 578 859 507 857 z m 409 583 b 382 503 400 557 391 530 b 372 476 378 494 376 485 b 273 462 330 467 297 462 b 269 462 272 462 271 462 b 242 477 251 462 242 467 b 291 526 242 490 258 506 b 409 583 323 545 362 564 z m 533 408 b 540 408 536 408 538 408 b 568 393 559 408 568 404 b 524 339 568 381 553 363 b 416 268 494 314 458 290 b 458 400 429 313 443 357 b 528 408 486 406 510 408 z "},"%":{"ha":787,"x_min":0,"x_max":0,"o":"m 379 890 b 291 842 355 890 326 874 b 196 715 255 810 224 768 b 149 539 168 663 153 604 b 168 503 149 526 155 513 b 250 466 193 480 229 466 b 319 501 269 466 292 477 b 397 589 346 525 372 554 b 461 698 422 625 444 661 b 486 793 478 735 486 767 b 467 840 486 809 479 825 b 422 876 454 854 439 866 b 379 890 405 886 391 890 z m 615 858 b 577 762 615 838 602 806 b 481 614 552 718 520 669 b 362 445 443 558 404 502 b 226 251 309 372 264 307 b 165 135 187 194 168 155 l 165 134 b 181 75 165 116 171 96 b 218 22 191 54 203 37 b 254 0 231 7 243 0 b 305 37 262 0 279 12 b 389 123 332 62 359 91 b 467 208 419 155 445 182 b 500 245 490 233 500 245 b 470 192 492 233 481 215 b 438 117 458 168 448 143 b 424 45 429 90 424 66 b 443 9 424 32 430 20 b 524 -28 467 -14 503 -28 b 594 8 544 -28 568 -16 b 672 96 621 32 647 61 b 736 204 697 131 719 167 b 761 300 753 241 761 273 b 739 348 761 316 753 332 b 692 388 724 363 709 377 b 654 404 675 399 662 404 b 576 358 640 404 614 389 b 458 252 539 327 500 292 b 352 146 417 212 382 177 b 307 100 322 115 307 100 b 370 186 307 100 328 129 b 512 389 411 244 458 312 b 654 604 565 466 612 538 b 716 729 695 670 716 712 b 666 819 716 764 692 795 b 615 858 639 843 615 858 z m 404 798 b 410 787 408 797 410 793 b 383 708 410 772 401 745 b 323 604 365 671 345 635 b 274 555 302 572 286 555 b 269 562 271 555 269 557 b 286 615 269 572 275 590 b 327 695 298 640 311 667 b 372 767 342 723 357 747 b 404 798 386 787 397 798 z m 681 306 b 688 295 686 305 688 302 b 661 216 688 279 679 254 b 602 112 643 179 623 144 b 552 64 580 80 564 64 b 547 71 549 64 547 66 b 564 124 547 81 553 99 b 605 204 576 149 589 176 b 650 276 621 232 635 256 b 681 306 664 296 675 306 z "},"&":{"ha":936,"x_min":0,"x_max":0,"o":"m 576 1002 b 466 928 545 1002 509 978 b 353 737 423 879 385 815 b 300 486 321 659 303 575 b 182 404 257 458 218 431 b 61 254 110 351 61 302 b 92 136 61 214 71 174 b 170 39 113 96 138 64 b 267 0 201 13 233 0 b 457 76 311 0 374 25 b 634 0 516 25 580 0 b 802 61 702 0 758 26 b 903 174 867 112 903 175 l 885 188 b 751 125 885 189 828 125 b 684 138 732 125 710 130 b 602 186 656 147 629 163 b 694 296 640 222 671 258 b 730 404 718 334 730 370 b 709 456 730 414 724 431 b 662 527 695 481 679 505 b 623 559 645 549 632 559 b 627 529 626 549 627 539 b 595 430 627 497 616 464 b 514 332 574 396 547 363 b 493 494 500 376 493 430 l 493 511 b 604 615 533 545 570 580 b 720 822 672 685 720 755 b 694 901 720 847 711 873 b 635 973 677 929 658 954 b 576 1002 613 993 593 1002 z m 648 865 b 610 747 648 824 635 785 b 510 640 584 710 551 674 b 581 804 528 709 552 764 b 648 865 610 844 633 865 z m 311 352 b 354 215 321 300 335 255 b 241 176 306 189 268 176 b 238 176 240 176 239 176 b 208 203 218 176 208 185 b 311 352 208 245 249 295 z "},"'":{"ha":232,"x_min":0,"x_max":0,"o":"m 338 1002 b 299 963 328 1002 315 989 b 258 875 283 937 269 907 b 240 796 246 842 240 816 b 286 687 240 744 262 709 b 332 656 310 665 332 656 b 350 730 332 676 338 701 b 389 817 361 759 375 788 b 433 930 413 865 433 908 b 416 960 433 939 427 948 b 338 1002 394 981 361 1002 z "},"(":{"ha":379,"x_min":0,"x_max":0,"o":"m 555 1085 b 411 985 510 1079 462 1046 b 265 755 359 925 311 848 b 151 460 219 663 181 564 b 106 169 121 355 106 258 b 109 113 106 149 107 131 b 183 -37 117 37 147 -9 b 237 -66 201 -50 219 -60 b 298 -79 272 -77 298 -79 b 286 -37 298 -79 294 -64 b 265 77 277 -9 270 29 b 263 130 264 94 263 111 b 298 378 263 205 275 288 b 387 638 321 468 351 555 b 503 854 423 722 462 793 b 618 979 543 916 582 957 b 697 1008 663 1002 697 1008 b 655 1047 697 1008 680 1027 b 563 1085 630 1067 596 1085 z "},")":{"ha":473,"x_min":0,"x_max":0,"o":"m 321 1082 b 334 1040 321 1082 326 1067 b 355 926 342 1012 349 974 b 357 874 356 909 357 892 b 322 626 357 798 345 715 b 233 366 299 536 269 449 b 117 149 197 282 158 210 b 1 24 76 87 37 45 b -78 -5 -43 0 -78 -5 b 56 -82 -78 -5 -10 -82 l 64 -82 b 209 18 109 -76 157 -43 b 355 248 260 78 309 155 b 469 544 401 341 439 439 b 513 834 498 648 513 745 b 511 890 513 854 513 872 b 437 1039 503 966 473 1012 b 383 1069 418 1053 400 1063 b 321 1082 348 1081 321 1082 z "},"*":{"ha":366,"x_min":0,"x_max":0,"o":"m 357 930 l 273 977 l 237 905 l 312 857 l 252 786 l 311 734 l 374 806 l 427 730 l 493 774 l 454 844 l 536 859 l 528 936 l 440 922 l 450 993 l 376 1000 z "},"+":{"ha":543,"x_min":0,"x_max":0,"o":"m 277 516 b 247 446 270 500 260 477 b 209 344 234 415 222 381 b 68 355 146 344 98 347 b 88 303 68 355 75 330 b 140 242 101 275 118 250 b 180 239 149 240 163 239 b 171 168 174 212 171 189 b 189 114 171 145 177 127 b 275 77 213 87 250 77 b 288 144 275 98 282 121 b 296 174 292 155 294 164 b 318 250 302 199 310 224 b 433 268 360 256 399 262 b 503 281 468 274 491 278 l 454 355 b 353 347 429 351 395 349 b 399 450 368 383 384 418 z "},",":{"ha":192,"x_min":0,"x_max":0,"o":"m 83 138 b 24 114 58 138 39 130 b 1 60 9 98 1 80 l 1 59 b 52 -6 1 33 24 4 b 33 -33 49 -14 43 -23 b 5 -56 23 -43 14 -51 b 85 -37 37 -56 63 -50 b 149 66 127 -11 149 31 b 129 118 149 87 142 105 b 83 138 115 131 100 137 z "},"-":{"ha":521,"x_min":0,"x_max":0,"o":"m 61 355 b 81 303 61 355 68 330 b 133 242 94 275 112 248 b 175 238 143 239 157 238 b 293 248 208 238 247 241 b 419 267 338 254 380 260 b 496 281 458 273 484 278 l 447 355 b 346 347 422 351 389 349 b 218 344 303 345 260 344 b 61 355 152 344 92 347 z "},".":{"ha":191,"x_min":0,"x_max":0,"o":"m 83 138 b 29 113 64 138 46 130 b 1 60 12 97 3 79 l 1 59 b 22 14 1 43 8 28 b 69 -9 37 -1 52 -8 l 70 -9 b 121 14 88 -9 105 -2 b 149 64 137 28 146 45 l 149 66 b 130 113 149 82 142 98 b 87 137 117 127 103 135 b 85 138 86 137 85 137 b 83 138 84 138 83 138 z "},"/":{"ha":543,"x_min":0,"x_max":0,"o":"m 634 1066 b 576 919 634 1034 615 985 b 433 696 538 852 490 779 b 258 451 376 614 318 533 b 131 273 212 387 170 328 b 37 132 92 218 60 172 b 0 50 12 92 0 65 b 56 -40 0 15 26 -17 b 111 -77 85 -63 111 -77 b 159 45 111 -52 127 -11 b 281 235 191 100 231 163 b 435 454 330 306 381 379 b 578 656 486 525 534 592 b 687 825 622 721 659 777 b 729 928 715 873 729 907 b 705 995 729 944 721 966 b 634 1066 689 1023 665 1047 z "},":":{"ha":275,"x_min":0,"x_max":0,"o":"m 210 493 b 156 469 191 493 173 485 b 127 416 139 453 130 435 l 127 415 b 149 370 127 399 135 385 b 195 347 163 356 178 348 l 196 347 b 248 370 214 347 231 354 b 275 420 264 385 273 401 l 275 424 b 256 469 275 439 269 454 b 214 493 243 483 229 491 z m 138 247 b 83 223 119 247 100 239 b 55 170 66 207 57 189 l 55 169 b 77 124 55 153 62 138 b 123 100 91 110 106 102 l 124 100 b 176 123 142 100 159 108 b 203 174 191 138 201 155 l 203 176 b 184 222 203 192 197 208 b 141 247 172 237 157 245 z "},";":{"ha":274,"x_min":0,"x_max":0,"o":"m 210 493 b 155 469 191 493 172 485 b 127 416 138 453 129 435 l 127 415 b 149 370 127 399 134 385 b 195 347 163 356 178 348 l 196 347 b 248 370 214 347 231 354 b 275 420 263 385 273 401 l 275 422 b 256 469 275 438 269 454 b 213 493 243 483 229 491 z m 137 248 b 78 222 112 246 92 238 b 55 170 63 207 56 189 l 55 168 b 106 104 55 141 79 114 b 87 76 103 95 97 86 b 59 54 77 66 68 58 b 138 73 91 54 117 60 b 203 176 181 100 203 141 b 183 228 203 197 197 215 b 137 248 169 241 154 247 z "},"<":{"ha":516,"x_min":0,"x_max":0,"o":"m 437 646 b 54 361 323 534 196 439 b 84 308 64 345 74 326 b 227 82 125 233 172 153 b 426 -7 290 3 356 -7 b 464 -7 439 -7 451 -7 b 501 -6 476 -6 488 -6 b 248 305 395 65 310 178 b 533 526 332 351 427 425 b 517 566 533 535 528 548 b 479 615 506 583 493 600 b 437 646 464 631 450 641 z "},"=":{"ha":544,"x_min":0,"x_max":0,"o":"m 87 395 b 107 344 87 395 94 371 b 159 283 120 316 138 289 b 201 279 169 280 183 279 b 319 288 233 279 273 282 b 445 307 364 294 406 300 b 522 322 484 313 509 319 l 473 395 b 372 388 448 392 414 390 b 243 385 329 386 286 385 b 87 395 178 385 117 387 z m 54 233 b 75 181 54 233 62 208 b 126 121 87 153 105 127 b 170 117 137 118 152 117 b 288 125 203 117 242 119 b 413 144 333 132 375 138 b 490 159 451 151 477 156 l 440 233 b 339 225 415 229 382 227 b 211 222 296 223 254 222 b 54 233 145 222 85 224 z "},">":{"ha":612,"x_min":0,"x_max":0,"o":"m 140 646 b 170 592 151 629 160 610 b 313 366 212 517 258 437 b 363 317 329 346 346 330 b 109 113 285 268 200 200 b 125 75 109 104 114 92 b 204 -6 146 39 178 4 b 587 278 318 106 446 201 b 486 374 553 299 519 331 b 391 502 452 416 420 458 b 326 593 368 538 346 568 b 272 630 312 610 294 623 b 144 646 228 645 178 646 z "},"?":{"ha":667,"x_min":0,"x_max":0,"o":"m 572 986 b 473 971 546 986 513 981 b 352 930 432 961 392 947 b 251 869 312 913 279 892 b 210 795 223 846 210 822 b 231 726 210 769 216 746 b 278 673 245 705 260 688 b 326 641 296 659 311 648 b 347 629 340 633 347 629 b 320 679 347 629 320 648 b 330 711 320 688 323 699 b 403 760 337 722 361 738 b 541 823 444 782 490 803 b 657 852 591 842 629 852 b 661 852 659 852 660 852 b 687 833 678 852 687 846 b 654 779 687 821 676 804 b 458 591 611 730 539 663 b 329 472 413 551 370 511 b 226 366 288 433 253 397 b 184 293 198 334 184 310 b 245 206 184 255 211 227 b 355 161 294 176 357 161 b 348 187 355 161 353 170 b 340 258 342 204 340 228 b 401 340 340 273 360 300 b 547 475 443 380 491 425 b 677 596 592 516 635 556 b 782 704 719 635 754 671 b 823 777 810 736 823 760 b 783 871 823 807 810 838 b 683 953 755 903 722 930 b 572 986 644 975 607 986 z m 256 168 b 191 140 234 168 212 159 b 157 75 170 120 159 98 l 157 73 b 183 19 157 54 166 36 b 239 -9 200 2 219 -7 l 241 -9 b 302 18 262 -9 283 0 b 335 79 322 37 333 57 l 335 83 b 313 138 335 102 328 121 b 260 168 297 156 280 166 z "},"@":{"ha":1019,"x_min":0,"x_max":0,"o":"m 591 858 b 288 722 479 858 374 806 b 75 242 160 598 75 409 b 324 -102 75 5 219 -102 b 505 -47 391 -102 455 -76 b 585 9 554 -18 585 9 l 557 42 b 439 16 513 21 467 16 l 431 16 b 262 252 346 18 262 91 b 296 431 262 311 273 370 b 391 596 319 491 351 546 b 529 718 431 646 477 687 b 694 764 581 748 636 764 b 819 728 744 764 786 751 b 920 490 886 679 920 593 b 892 349 920 440 910 393 b 829 240 873 304 852 268 b 768 198 805 212 785 198 b 755 220 760 199 755 206 b 774 305 755 239 762 268 b 817 419 787 342 801 380 b 859 518 832 458 846 490 b 878 559 871 545 878 559 b 806 611 862 578 838 595 b 722 643 774 627 746 637 b 704 602 722 643 715 629 b 621 645 677 618 650 632 b 561 664 591 658 571 664 b 487 627 539 664 515 652 b 407 528 459 602 433 568 b 343 397 381 488 360 444 b 317 260 326 350 317 304 b 336 172 317 222 323 193 b 439 113 361 129 402 113 l 446 113 b 563 200 495 118 535 157 b 595 258 576 222 587 241 b 606 283 602 275 606 283 b 594 199 598 254 594 226 b 626 87 594 154 605 116 b 713 42 647 57 675 42 b 914 177 786 42 859 96 b 1005 463 970 258 1005 362 b 878 761 1005 597 956 696 b 591 858 799 826 696 858 z m 671 543 b 674 543 671 543 673 543 b 677 542 675 542 676 542 b 621 425 660 505 641 465 b 562 321 600 385 581 350 b 517 277 543 292 528 277 b 507 295 510 278 507 284 b 530 378 507 314 514 342 b 587 481 545 415 564 449 b 658 541 609 513 633 532 b 671 543 663 542 667 543 z "},"A":{"ha":1017,"x_min":0,"x_max":0,"o":"m 912 1131 b 845 1067 898 1131 876 1109 b 741 904 814 1024 779 970 b 620 696 701 838 661 769 b 572 748 607 712 591 729 b 512 798 553 766 533 783 b 450 819 491 812 470 819 b 330 764 412 819 372 800 b 210 621 289 727 248 680 b 104 433 170 563 135 500 b 28 235 72 365 47 299 b 0 68 9 170 0 115 b 208 -68 0 -15 125 -68 l 208 -68 b 298 -12 232 -68 262 -50 b 413 135 333 26 372 75 b 540 335 454 195 496 262 b 648 354 574 341 610 347 b 739 370 680 359 711 365 b 703 142 718 280 703 201 b 789 -3 703 88 739 37 b 943 -68 838 -43 897 -68 b 909 84 919 -35 909 18 b 930 287 909 144 916 212 b 980 517 943 362 960 439 b 1037 736 1000 595 1019 668 b 1079 897 1054 798 1067 851 b 1096 993 1090 942 1096 974 b 1060 1049 1096 1008 1084 1027 b 979 1106 1036 1070 1008 1089 b 912 1131 950 1122 928 1131 z m 904 959 b 822 667 880 867 853 769 b 771 491 804 607 787 549 b 612 458 726 485 673 474 b 739 683 658 537 700 612 b 904 959 819 829 874 922 z m 582 662 b 599 660 587 662 593 661 b 590 644 595 654 593 649 b 486 467 553 580 518 521 b 470 440 481 458 475 449 b 460 424 467 435 463 429 b 414 420 442 421 427 420 b 376 432 394 420 382 424 b 377 412 376 430 376 423 b 408 336 379 387 387 356 b 305 180 374 281 340 229 b 198 60 270 130 234 91 b 194 89 195 68 194 77 b 218 204 194 118 202 157 b 283 354 234 252 256 302 b 373 503 309 406 340 456 b 477 617 406 549 441 587 b 580 662 513 647 547 662 z "},"B":{"ha":814,"x_min":0,"x_max":0,"o":"m 616 1131 b 448 1103 567 1131 511 1121 b 265 1022 385 1084 324 1057 b 111 897 205 987 154 945 b 27 736 68 849 40 795 b 24 703 25 724 24 713 b 47 616 24 671 32 642 b 170 529 79 563 128 529 b 168 561 169 540 168 551 b 281 843 168 674 214 769 b 393 938 315 880 352 911 b 627 1017 473 989 559 1017 b 715 994 663 1017 692 1010 b 749 920 737 979 749 954 b 644 711 749 860 706 784 b 438 527 582 637 507 571 b 446 547 441 534 444 541 b 511 747 484 633 511 702 l 511 749 b 454 868 511 804 484 843 b 395 903 423 892 395 903 b 359 818 395 903 383 875 b 275 612 334 760 307 692 b 191 380 243 532 215 455 b 154 213 166 304 154 249 b 211 87 154 155 179 115 b 177 85 199 86 188 85 b 5 163 70 85 5 165 b 20 129 5 163 10 152 b 68 49 30 105 45 79 b 156 -31 90 19 119 -7 b 291 -68 193 -54 237 -66 l 294 -68 b 452 -26 345 -68 397 -54 b 604 77 506 1 557 36 b 718 201 650 118 688 159 b 762 307 747 243 762 279 b 736 380 762 330 753 355 b 673 444 720 406 699 427 b 593 469 647 460 621 469 b 500 455 568 469 537 464 b 782 626 593 496 697 554 b 886 743 825 662 859 701 b 926 878 913 785 926 830 b 846 1042 926 928 899 991 b 616 1131 793 1094 716 1131 z m 478 401 b 582 356 531 401 582 392 b 502 239 582 326 555 287 b 317 119 448 191 387 151 b 385 393 329 216 351 307 b 473 401 408 397 437 400 z "},"C":{"ha":719,"x_min":0,"x_max":0,"o":"m 645 1131 b 460 1069 583 1131 522 1110 b 286 909 399 1029 341 975 b 140 688 231 842 183 768 b 40 441 98 607 64 525 b 3 210 16 358 3 281 b 246 -68 3 50 72 -68 b 387 -30 292 -68 339 -56 b 520 68 435 -4 479 28 b 625 191 562 107 596 149 b 684 310 654 234 673 274 b 606 232 684 310 654 275 b 520 167 581 210 552 189 b 302 89 456 123 380 89 b 222 123 267 89 241 100 b 193 209 203 146 193 175 l 193 214 b 278 510 198 302 226 400 b 476 444 323 486 416 444 b 565 494 496 444 526 461 b 685 619 604 528 644 570 b 790 771 726 669 761 719 b 833 905 819 823 833 867 b 802 1010 833 940 823 975 b 728 1096 781 1044 757 1073 b 645 1131 699 1119 671 1131 z m 699 1012 b 714 995 709 1011 714 1006 b 640 853 714 968 690 922 b 468 656 591 785 534 719 b 288 530 402 592 342 550 b 425 762 328 612 374 690 b 576 942 475 835 526 895 b 699 1012 625 989 666 1012 z "},"D":{"ha":924,"x_min":0,"x_max":0,"o":"m 612 1131 b 444 1103 562 1131 506 1121 b 260 1022 380 1084 319 1057 b 106 897 201 987 149 945 b 22 735 63 849 35 795 b 18 703 20 724 18 713 b 42 616 18 671 26 642 b 165 528 74 563 123 528 b 281 816 165 637 210 736 b 397 920 315 856 354 890 b 651 1010 481 978 574 1010 b 817 841 745 1010 817 960 b 753 592 817 771 795 688 b 584 320 711 496 655 405 b 344 125 513 235 433 170 b 395 349 353 203 370 277 b 471 545 420 420 445 486 b 537 747 508 631 535 701 l 537 749 b 479 867 537 804 509 843 b 421 903 449 892 421 903 b 385 817 421 903 409 874 b 300 612 360 760 332 691 b 216 379 269 532 241 454 b 180 212 192 304 180 248 b 234 90 180 157 203 117 b 172 85 213 87 193 85 b 47 124 119 85 76 103 b 1 163 17 145 1 163 b 12 129 1 163 5 152 b 55 49 20 105 34 79 b 142 -31 75 19 104 -7 b 286 -68 179 -54 227 -66 b 463 -22 345 -68 404 -53 b 777 268 579 39 687 145 b 895 454 822 330 861 391 b 972 631 928 517 954 576 b 1000 768 990 686 1000 732 b 876 1031 1000 878 951 968 b 612 1131 802 1095 706 1131 z "},"E":{"ha":653,"x_min":0,"x_max":0,"o":"m 559 1130 b 345 1095 506 1130 429 1114 b 202 1067 297 1085 250 1076 b 73 1054 155 1058 111 1054 b -25 1074 33 1054 1 1061 b 3 982 -25 1061 -16 1021 b 86 909 22 943 50 909 b 309 930 151 909 227 919 b 599 956 403 943 502 956 b 677 939 627 956 653 950 b 734 905 701 927 720 916 b 756 887 749 893 756 887 b 735 972 756 887 751 924 b 701 1044 727 996 715 1021 b 559 1130 671 1093 627 1130 z m 280 903 b 233 789 280 903 264 865 b 127 525 201 713 166 625 b 50 516 96 519 71 516 b 9 528 29 516 16 520 b 18 473 9 526 10 500 b 77 420 26 445 44 420 l 88 420 b 26 233 63 351 43 290 b 1 109 9 177 1 135 b 162 -69 1 -34 163 -69 b 267 -57 183 -69 218 -65 b 418 -14 317 -48 367 -34 b 541 69 469 7 509 35 b 570 159 556 92 566 121 b 576 243 574 196 576 224 l 576 260 b 534 229 576 260 562 250 b 431 159 507 209 472 186 b 304 90 389 133 347 110 b 195 59 262 69 225 59 b 175 76 186 59 180 64 b 288 438 197 195 242 322 b 323 442 300 439 311 441 b 505 459 408 454 469 459 b 591 425 578 459 591 424 b 574 482 591 425 586 450 b 463 589 555 530 522 589 b 341 570 435 589 394 583 b 397 747 374 651 397 714 b 338 867 397 803 369 842 b 280 903 308 891 280 903 z "},"F":{"ha":475,"x_min":0,"x_max":0,"o":"m 656 1130 b 441 1095 602 1130 525 1114 b 298 1067 393 1085 346 1076 b 169 1054 251 1058 208 1054 b 71 1074 130 1054 97 1061 b 100 982 71 1061 81 1021 b 182 909 119 943 146 909 b 403 930 248 911 321 918 b 695 956 497 943 597 956 b 773 939 723 956 749 950 b 831 905 797 927 817 916 b 852 888 845 893 852 888 b 832 973 852 888 848 925 b 798 1045 824 997 812 1021 b 656 1130 768 1093 723 1130 z m 301 903 b 255 791 301 903 286 865 b 151 531 224 718 189 631 b 40 516 104 521 68 516 b 1 528 19 516 6 520 l 1 528 b 68 420 1 521 2 420 b 106 421 79 420 92 420 b 110 421 107 421 109 421 b 47 234 85 353 64 290 b 22 109 31 178 22 136 b 79 -16 22 52 47 12 b 183 -68 126 -56 184 -68 l 183 -52 b 311 442 183 96 248 286 b 495 459 398 454 459 459 b 581 425 568 459 581 425 b 564 483 581 425 576 450 b 454 589 547 531 511 589 b 365 578 432 589 402 585 b 418 747 395 654 418 715 b 359 867 418 804 390 842 b 301 903 329 892 301 903 z "},"G":{"ha":966,"x_min":0,"x_max":0,"o":"m 817 1132 b 637 1071 760 1132 701 1112 b 453 909 574 1029 513 976 b 290 686 393 842 338 767 b 174 437 241 604 203 521 b 130 201 144 352 130 274 b 154 71 130 155 138 111 b 359 -66 186 -12 254 -66 b 464 -24 386 -66 420 -52 b 600 85 507 5 553 41 b 584 -3 589 50 584 21 b 618 -96 584 -39 595 -70 b 703 -156 641 -122 669 -142 b 799 -177 736 -170 768 -177 b 772 -63 781 -151 772 -113 b 814 171 772 1 787 79 b 936 450 842 262 882 355 b 970 452 948 452 960 452 b 1037 441 994 452 1016 448 b 1028 462 1037 441 1034 448 b 1002 509 1022 476 1014 492 b 958 557 991 527 976 543 b 897 578 941 571 920 578 b 761 551 854 578 807 565 b 634 526 715 537 671 526 b 591 532 618 526 604 528 b 615 467 591 532 598 501 b 695 401 631 433 657 401 b 706 402 699 401 703 401 b 713 404 708 403 711 403 b 719 404 715 404 717 404 b 629 250 695 349 665 297 b 517 134 593 202 556 163 b 415 90 479 105 445 90 b 335 125 380 90 354 102 b 307 211 316 149 307 177 l 307 216 b 366 432 310 281 330 353 b 500 669 401 511 446 591 b 554 642 511 663 529 654 b 637 608 579 630 606 618 b 718 593 667 598 694 593 b 795 626 737 593 764 604 b 891 709 827 648 859 676 b 972 813 923 743 949 777 b 1005 906 994 848 1005 880 b 974 1011 1005 941 995 977 b 899 1097 953 1046 928 1074 b 817 1132 870 1120 842 1132 z m 869 1014 b 887 1000 881 1013 887 1008 b 817 892 887 979 864 943 b 659 750 770 841 718 794 b 503 673 600 706 547 681 b 638 844 547 736 592 793 b 769 968 684 895 728 937 b 869 1014 810 998 843 1014 z "},"H":{"ha":760,"x_min":0,"x_max":0,"o":"m 398 1130 b 361 1040 398 1130 386 1100 b 269 814 336 979 305 904 b 160 533 233 723 196 629 b 41 517 110 522 70 517 b 1 528 20 517 7 521 b 9 473 1 526 1 500 b 68 420 18 445 35 420 b 119 422 83 420 100 420 b 55 228 93 349 72 284 b 30 109 38 172 30 132 b 87 -16 30 52 54 12 b 191 -68 134 -56 191 -68 l 191 -55 b 229 171 191 7 203 83 b 319 443 254 259 284 350 b 496 459 401 454 460 459 b 540 454 514 459 529 457 b 467 240 511 373 486 302 b 438 109 448 178 438 134 b 495 -16 438 52 463 12 b 599 -68 542 -56 600 -68 l 599 -56 b 634 161 599 5 610 77 b 720 422 658 245 686 332 b 820 677 754 512 787 597 b 894 865 849 750 874 812 b 923 975 913 918 923 955 b 865 1095 923 1031 895 1069 b 806 1130 834 1119 806 1130 b 766 1034 806 1130 793 1098 b 669 793 740 969 707 889 b 557 501 631 698 594 601 b 454 589 538 545 505 589 b 372 578 434 589 407 586 b 410 675 385 612 398 644 b 484 865 439 748 465 811 b 514 975 504 918 514 955 b 456 1095 514 1031 486 1069 b 398 1130 426 1119 398 1130 z "},"I":{"ha":501,"x_min":0,"x_max":0,"o":"m 590 1131 b 506 1118 564 1131 536 1126 l 472 1109 b 452 1103 465 1107 458 1105 b 326 1078 408 1089 363 1078 b 284 1084 311 1078 297 1080 b 307 1019 284 1084 291 1053 b 388 954 323 985 349 954 b 399 954 391 954 395 954 b 410 956 402 955 406 956 b 285 642 372 865 330 760 b 165 313 239 525 199 415 b 113 109 130 212 113 144 b 132 31 113 78 119 52 b 43 16 100 20 70 16 b 1 22 28 16 14 18 b 24 -43 1 22 8 -9 b 105 -109 41 -77 67 -109 b 116 -108 109 -109 113 -109 b 243 -81 163 -100 205 -91 b 382 -57 296 -68 342 -57 b 447 -68 405 -57 427 -61 b 438 -47 447 -68 444 -62 b 412 0 432 -33 423 -18 b 368 47 400 18 385 33 b 307 68 351 62 330 68 b 288 68 300 68 294 68 b 376 370 307 161 336 261 b 494 677 416 477 455 581 b 568 865 524 750 549 812 b 597 975 588 918 597 955 b 595 997 597 982 597 989 b 665 1004 620 1002 643 1004 b 730 993 688 1004 709 1000 b 694 1062 730 993 718 1026 b 590 1131 671 1097 636 1131 z "},"J":{"ha":910,"x_min":0,"x_max":0,"o":"m 725 1130 b 526 1083 659 1130 593 1114 b 336 960 458 1051 395 1010 b 189 793 278 909 229 853 b 109 612 148 732 121 672 b 106 587 106 604 106 595 b 138 496 106 554 117 524 b 211 430 159 469 183 447 b 286 405 239 413 264 405 b 330 621 286 477 300 550 b 442 815 359 692 397 757 b 583 955 487 873 534 920 b 715 1007 632 989 676 1007 b 789 968 745 1007 770 994 b 819 841 809 942 819 900 b 624 368 819 714 742 525 b 174 85 506 210 344 85 b 49 124 121 85 78 103 b 3 163 19 145 3 163 b 14 129 3 163 7 152 b 57 49 22 105 36 79 b 144 -31 77 18 106 -8 b 288 -69 181 -54 229 -67 b 465 -20 348 -69 407 -53 b 779 289 581 46 689 159 b 897 486 824 354 863 420 b 974 671 930 552 956 614 b 1002 812 992 728 1002 775 b 725 1130 1002 1049 854 1130 z "},"K":{"ha":719,"x_min":0,"x_max":0,"o":"m 372 1130 b 316 994 372 1130 353 1084 b 188 673 279 903 236 796 b 60 326 140 551 97 435 b 3 109 22 217 3 144 b 164 -69 3 -34 165 -69 l 164 -56 b 174 50 164 -24 168 12 b 315 285 211 120 258 198 b 319 273 316 281 317 277 b 379 118 338 219 358 168 b 448 -5 400 68 422 28 b 623 -133 493 -60 551 -102 b 799 -179 694 -163 752 -179 b 656 -19 753 -146 705 -93 b 520 218 607 55 562 134 b 423 438 479 302 446 376 b 714 763 505 548 602 656 b 1093 1048 826 869 952 964 b 960 1130 1094 1047 1028 1130 b 815 1069 919 1130 870 1109 b 642 911 760 1029 703 977 b 465 699 582 846 522 775 b 303 469 406 621 353 545 b 382 669 330 539 357 606 b 457 863 412 744 437 808 b 488 975 477 917 488 954 b 430 1095 488 1031 460 1069 b 372 1130 399 1119 372 1130 z "},"L":{"ha":706,"x_min":0,"x_max":0,"o":"m 549 1130 b 494 994 549 1130 531 1084 b 366 673 456 903 414 796 b 237 326 317 551 275 435 b 181 109 200 217 181 144 b 220 1 181 62 198 26 b 98 -11 175 -7 134 -11 b 0 9 58 -11 25 -4 b 28 -83 0 -4 9 -44 b 111 -155 47 -121 75 -155 b 334 -134 176 -155 252 -146 b 624 -109 428 -121 527 -109 b 702 -126 652 -109 678 -115 b 759 -161 726 -138 745 -149 b 781 -178 773 -172 781 -178 b 760 -92 781 -178 776 -140 b 726 -20 752 -68 741 -44 b 585 65 696 28 652 65 b 376 32 532 65 457 50 b 349 26 367 30 357 28 b 435 344 364 121 393 227 b 563 677 477 460 520 572 b 637 865 592 749 617 812 b 666 975 656 918 666 955 b 608 1095 666 1031 638 1069 b 549 1130 577 1119 549 1130 z "},"M":{"ha":1220,"x_min":0,"x_max":0,"o":"m 369 1130 b 313 994 369 1130 351 1084 b 185 673 276 903 233 796 b 57 326 137 551 94 435 b 1 109 20 217 1 144 b 161 -69 1 -34 163 -69 b 369 315 229 75 298 203 b 587 630 439 427 512 532 b 486 316 550 522 517 417 b 441 109 456 215 441 146 b 602 -69 441 -34 603 -69 b 826 340 667 71 743 207 b 1082 718 909 474 995 600 b 987 466 1048 633 1017 549 b 911 244 956 382 930 309 b 880 109 890 180 880 134 b 1041 -69 880 -34 1042 -69 l 1041 -57 b 1076 159 1041 3 1053 75 b 1162 420 1100 243 1128 330 b 1262 677 1196 511 1230 596 b 1336 865 1291 749 1316 812 b 1365 975 1356 918 1365 955 b 1308 1095 1365 1031 1337 1069 b 1249 1130 1277 1119 1249 1130 b 945 724 1153 1023 1051 888 b 643 215 838 559 737 389 b 758 579 678 344 716 465 b 810 735 779 639 795 691 b 831 830 824 779 831 810 b 772 950 831 886 803 925 b 714 985 742 975 714 985 b 227 261 538 792 385 552 b 382 675 275 406 327 543 b 456 865 411 749 436 812 b 486 975 475 918 486 955 b 427 1095 486 1031 458 1069 b 369 1130 397 1119 369 1130 z "},"N":{"ha":829,"x_min":0,"x_max":0,"o":"m 368 1130 b 313 994 368 1130 350 1084 b 184 673 275 903 233 796 b 56 326 136 551 94 435 b 0 109 19 217 0 145 b 57 -16 0 52 24 12 b 161 -68 104 -56 161 -68 b 394 329 226 67 304 199 b 670 694 484 458 576 580 b 536 335 621 568 576 448 b 477 109 497 222 477 146 b 534 -16 477 52 502 12 b 638 -68 581 -56 639 -68 l 638 -56 b 673 161 638 5 650 77 b 760 422 697 245 726 332 b 859 677 793 512 826 597 b 932 865 888 750 913 812 b 962 975 952 918 962 955 b 904 1095 962 1031 934 1069 b 846 1130 873 1119 846 1130 b 537 739 752 1027 649 897 b 222 248 425 581 320 417 b 382 678 272 397 325 541 b 455 866 411 751 435 813 b 484 975 475 919 484 955 b 427 1095 484 1031 456 1069 b 368 1130 396 1119 368 1130 z "},"O":{"ha":867,"x_min":0,"x_max":0,"o":"m 679 1131 b 447 1041 610 1131 533 1101 b 219 899 361 1019 286 971 b 60 639 152 826 99 739 b 2 338 22 538 2 438 b 90 18 2 202 31 95 b 326 -98 148 -59 227 -98 b 472 -43 366 -98 414 -79 b 640 104 529 -7 585 42 b 775 316 694 165 739 237 b 903 800 859 481 901 642 b 872 966 903 861 892 916 b 791 1086 852 1015 825 1055 b 679 1131 757 1116 720 1131 z m 670 1015 b 747 806 722 994 747 914 b 720 593 747 742 738 671 b 642 362 703 515 676 438 b 511 155 606 286 563 217 b 348 65 446 95 392 65 b 176 307 224 65 176 168 b 177 333 176 316 176 324 b 285 222 206 265 249 222 b 283 270 284 238 283 254 b 319 538 283 363 296 452 b 413 768 343 623 374 700 b 538 936 451 837 492 892 b 670 1015 583 979 627 1005 z "},"P":{"ha":814,"x_min":0,"x_max":0,"o":"m 593 1131 b 425 1103 544 1131 488 1121 b 242 1022 362 1084 301 1057 b 88 897 182 987 131 945 b 3 735 45 849 16 795 b 0 703 1 724 0 713 b 24 616 0 671 8 642 b 146 528 56 563 105 528 b 145 559 146 538 145 549 b 189 743 145 625 160 686 b 302 890 218 799 256 848 b 449 988 347 932 397 964 b 597 1023 501 1012 551 1023 b 768 836 693 1023 768 967 b 707 664 768 787 748 730 b 552 475 665 598 614 536 b 359 329 490 415 425 366 b 434 521 385 397 410 461 b 509 747 477 626 509 707 b 451 867 509 804 481 842 b 393 903 420 892 393 903 b 351 802 393 903 378 869 b 254 560 322 734 290 653 b 157 292 217 467 184 377 b 114 109 128 206 114 145 b 171 -16 114 52 138 12 b 275 -68 218 -56 275 -68 l 275 -52 b 313 186 275 22 290 102 b 538 262 393 195 467 220 b 726 418 609 305 671 357 b 856 611 781 480 824 544 b 903 793 888 677 903 738 b 593 1131 903 895 792 1131 z "},"Q":{"ha":882,"x_min":0,"x_max":0,"o":"m 677 1131 b 446 1040 608 1131 531 1101 b 218 899 360 1018 284 971 b 59 639 151 826 98 739 b 1 338 20 538 1 438 b 158 -50 1 153 58 18 b 29 -73 114 -64 71 -73 b -19 -68 13 -73 -3 -72 b -9 -91 -19 -68 -16 -76 b 20 -140 -3 -105 7 -122 b 69 -191 33 -159 50 -176 b 139 -212 89 -205 112 -212 b 382 -121 211 -212 305 -163 b 524 -61 442 -88 493 -61 b 544 -68 532 -61 539 -64 b 556 -102 552 -77 556 -89 b 510 -214 556 -134 534 -178 b 464 -275 486 -249 464 -275 b 493 -258 464 -275 473 -269 b 559 -214 513 -246 534 -231 b 626 -163 585 -197 606 -180 b 655 -121 646 -146 655 -132 b 629 -39 655 -94 646 -67 b 568 33 612 -11 591 13 b 774 316 649 106 723 204 b 869 562 815 395 846 477 b 902 800 891 646 902 725 b 871 966 901 861 890 916 b 789 1086 850 1015 823 1055 b 677 1131 755 1116 718 1131 z m 669 1015 b 745 806 720 994 745 914 b 719 593 745 742 736 671 b 640 362 701 515 675 438 b 509 155 605 286 562 217 b 347 65 444 95 390 65 b 175 307 223 65 175 168 b 176 333 175 316 175 324 b 283 222 205 265 248 222 b 282 270 283 238 282 254 b 318 538 282 363 294 452 b 412 768 342 623 373 700 b 536 936 450 837 491 892 b 669 1015 581 979 625 1005 z "},"R":{"ha":814,"x_min":0,"x_max":0,"o":"m 595 1130 b 427 1102 545 1130 489 1120 b 243 1021 363 1083 302 1056 b 90 897 184 987 132 945 b 5 735 46 848 18 794 b 1 703 3 724 1 713 b 25 616 1 671 9 642 b 148 528 57 563 106 528 b 146 559 147 538 146 549 b 191 743 146 625 161 686 b 303 890 220 799 258 848 b 450 988 349 932 398 964 b 597 1023 503 1012 551 1023 b 770 835 695 1023 770 966 b 716 680 770 789 752 737 b 578 524 680 622 634 570 b 398 427 522 477 461 444 b 435 519 411 458 423 490 b 511 747 478 625 511 707 b 452 867 511 804 483 842 b 394 903 422 892 394 903 b 352 801 394 903 380 869 b 255 559 323 733 291 652 b 158 292 218 467 186 377 b 115 109 130 205 115 145 b 172 -16 115 52 140 12 b 276 -68 219 -56 277 -68 l 276 -53 b 324 218 276 29 295 123 b 429 -1 351 147 386 66 b 581 -115 473 -68 524 -115 b 686 -84 617 -115 652 -104 b 751 -3 719 -63 741 -37 b 620 41 707 -3 663 12 b 503 159 576 71 537 111 b 418 317 468 207 439 259 l 430 317 b 627 360 503 317 568 331 b 777 473 685 389 735 426 b 871 627 818 519 849 570 b 905 793 894 683 905 738 b 853 956 905 833 887 895 b 595 1130 802 1046 713 1130 z "},"S":{"ha":831,"x_min":0,"x_max":0,"o":"m 752 1145 b 591 1101 701 1145 648 1130 b 427 987 535 1072 480 1034 b 281 834 373 940 324 889 b 176 671 237 779 202 725 b 136 531 149 618 136 571 b 509 248 136 357 369 288 b 612 203 570 231 612 217 b 544 162 610 193 587 179 b 382 115 500 145 446 130 b 197 94 317 101 256 94 b 71 114 149 94 106 100 b 3 183 35 127 13 150 b 66 1 3 125 28 58 b 211 -94 105 -55 157 -94 b 426 -74 286 -94 358 -87 b 605 -26 493 -61 553 -45 b 727 28 656 -8 697 10 b 772 69 757 46 772 60 b 734 192 772 106 760 148 b 646 295 709 236 680 271 b 463 385 589 333 523 361 b 313 490 380 419 313 447 b 367 630 313 524 331 571 b 495 806 403 688 446 747 b 637 958 545 865 592 916 b 734 1019 683 999 715 1019 b 748 1005 743 1019 748 1014 b 722 935 748 990 739 966 b 660 825 705 902 684 865 b 534 554 600 726 534 612 b 716 376 534 412 717 376 b 831 715 716 501 777 614 b 890 832 853 756 873 795 b 914 936 906 869 914 903 b 888 1031 914 968 905 1000 b 823 1112 869 1063 848 1090 b 752 1145 798 1134 774 1145 z "},"T":{"ha":505,"x_min":0,"x_max":0,"o":"m 753 1131 b 511 1100 704 1131 614 1116 b 304 1069 443 1088 374 1078 b 118 1055 234 1059 172 1055 b 0 1074 66 1055 24 1060 b 28 983 0 1061 9 1022 b 111 910 47 943 75 910 b 239 916 143 910 186 912 b 410 931 292 920 349 925 b 618 949 480 937 549 943 b 793 956 686 954 745 956 b 871 939 821 956 847 951 b 928 905 895 928 914 917 b 950 888 943 894 950 888 b 930 973 950 888 945 925 b 896 1045 922 997 910 1021 b 753 1131 866 1093 821 1131 z m 404 903 b 362 802 404 903 390 869 b 265 560 334 734 301 653 b 168 292 229 467 196 377 b 125 109 140 206 125 145 b 286 -68 125 -33 288 -68 l 286 -51 b 312 137 286 7 295 70 b 374 336 329 203 349 270 b 446 521 398 401 422 463 b 521 747 488 626 521 707 b 463 867 521 804 493 842 b 404 903 432 892 404 903 z "},"U":{"ha":822,"x_min":0,"x_max":0,"o":"m 370 1131 b 315 994 370 1131 352 1085 b 186 674 277 903 235 797 b 58 327 138 551 96 435 b 2 109 21 218 2 145 b 163 -68 2 -33 164 -68 b 269 8 188 -68 223 -43 b 422 211 314 59 365 126 b 596 495 478 296 536 390 b 513 256 563 406 535 326 b 479 109 490 185 479 136 b 640 -68 479 -33 642 -68 l 640 -56 b 676 161 640 4 652 76 b 762 422 700 245 728 332 b 861 678 795 512 829 597 b 935 866 890 751 916 813 b 964 975 955 919 964 955 b 906 1095 964 1031 937 1070 b 848 1131 876 1120 848 1131 b 798 1009 848 1131 831 1090 b 630 713 755 924 700 825 b 410 396 560 602 487 496 b 201 172 334 296 264 222 b 286 427 225 254 253 340 b 383 676 319 515 351 597 b 457 865 412 749 437 812 b 487 975 477 918 487 955 b 429 1095 487 1031 459 1070 b 370 1131 398 1120 370 1131 z "},"V":{"ha":635,"x_min":0,"x_max":0,"o":"m 254 1130 b 216 994 254 1130 241 1084 b 128 673 190 903 161 796 b 41 326 95 551 66 435 b 2 109 15 217 2 145 b 163 -68 2 -35 163 -68 b 277 18 186 -68 224 -40 b 451 239 330 76 388 149 b 633 522 514 328 574 422 b 779 804 691 622 740 715 b 836 1013 817 892 836 962 b 784 1091 836 1040 811 1067 b 732 1130 757 1115 732 1130 b 627 870 716 1074 682 987 b 431 509 572 753 507 632 b 199 212 355 385 278 286 b 330 680 238 374 281 530 b 385 867 351 752 370 814 b 407 975 399 919 407 955 b 384 1046 407 1002 399 1027 b 330 1095 368 1066 350 1082 b 277 1122 311 1107 293 1116 b 254 1130 262 1127 254 1130 z "},"W":{"ha":1112,"x_min":0,"x_max":0,"o":"m 274 1130 b 233 1002 274 1130 260 1087 b 138 702 205 918 174 817 b 43 375 102 587 71 477 b 1 167 16 272 1 203 b 26 70 1 131 9 99 b 82 -5 42 41 61 16 b 138 -53 103 -26 121 -41 b 162 -69 154 -64 162 -69 b 279 20 191 -69 230 -39 b 433 256 327 80 378 159 b 589 578 488 353 540 460 b 532 292 568 476 549 381 b 508 109 516 203 508 142 b 564 -16 508 52 532 12 b 669 -69 611 -56 670 -69 b 774 12 692 -69 728 -42 b 927 219 821 66 872 135 b 1084 486 982 302 1034 391 b 1209 754 1135 580 1176 669 b 1258 958 1242 839 1258 907 b 1079 1130 1258 1130 1078 1129 b 1044 922 1079 1084 1067 1015 b 951 625 1020 829 989 730 b 823 340 912 521 870 426 b 682 156 777 254 730 193 b 760 603 705 312 730 461 b 803 854 787 727 801 810 b 745 975 803 911 775 949 b 686 1010 715 999 686 1010 b 582 749 670 950 635 863 b 397 410 528 634 467 522 b 193 165 327 299 258 217 b 264 425 212 248 236 335 b 348 679 292 514 320 599 b 410 866 372 751 393 813 b 434 975 426 918 434 955 b 274 1130 434 1086 273 1130 z "},"X":{"ha":814,"x_min":0,"x_max":0,"o":"m 180 1130 b 220 959 180 1130 193 1073 b 323 566 246 844 281 713 b 92 235 231 445 153 334 b -2 40 29 135 -2 70 b 67 -69 -2 -29 68 -69 b 188 141 95 -11 136 59 b 375 403 240 222 302 310 b 519 70 420 265 469 155 b 685 -45 559 9 624 -26 b 762 -64 715 -55 741 -61 b 793 -69 783 -68 793 -69 b 640 212 737 -1 686 94 b 520 574 594 331 554 452 b 785 831 601 664 689 749 b 1088 1048 880 913 981 985 b 955 1130 1088 1047 1023 1130 b 821 1078 918 1130 873 1113 b 654 940 769 1044 713 998 b 473 748 595 882 534 819 b 455 819 467 773 461 797 b 412 975 435 897 421 949 b 273 1111 380 1051 325 1092 b 207 1127 247 1120 225 1125 b 180 1130 189 1129 180 1130 z "},"Y":{"ha":734,"x_min":0,"x_max":0,"o":"m 296 1130 b 269 1064 296 1130 287 1108 b 206 904 250 1020 229 967 b 144 717 182 841 162 779 b 116 570 125 655 116 606 b 276 393 116 426 277 393 b 595 662 354 393 467 471 b 406 302 539 532 474 402 b 304 180 372 251 338 211 b 203 135 269 150 236 135 b 0 229 114 135 41 159 b 92 -3 16 112 52 40 b 151 -49 113 -24 132 -39 b 217 -69 189 -67 217 -69 b 357 -16 263 -69 310 -52 b 622 318 450 55 541 176 b 733 534 662 389 699 461 b 822 741 767 608 797 677 b 880 908 847 806 866 861 b 901 1000 894 954 901 985 b 838 1091 901 1035 870 1067 b 774 1130 804 1115 774 1130 b 758 1083 774 1130 768 1114 b 641 865 732 1019 693 946 b 467 642 589 785 530 711 b 279 496 402 574 340 526 b 368 820 294 627 332 735 b 412 975 393 884 412 935 b 355 1095 412 1031 385 1069 b 296 1130 324 1119 296 1130 z "},"Z":{"ha":1096,"x_min":0,"x_max":0,"o":"m 948 1130 b 687 1057 870 1100 783 1076 b 420 1027 591 1037 502 1027 b 228 1063 339 1027 271 1038 b 302 886 245 1011 272 945 b 401 783 333 826 368 783 b 514 806 417 783 455 791 b 705 861 573 822 637 840 b 884 914 774 880 833 899 b 961 938 935 930 961 938 b 909 904 961 938 943 926 b 770 812 873 882 827 851 b 583 683 713 774 651 731 b 379 532 515 635 447 585 b 191 378 311 480 248 429 b 54 239 134 328 88 282 b 1 134 18 197 1 162 b 27 55 1 113 9 87 b 92 -32 45 22 66 -7 b 163 -69 117 -57 140 -69 b 437 26 239 -26 330 5 b 732 56 543 46 642 56 b 943 23 827 56 903 45 b 1092 -69 987 -3 1093 -70 b 1077 -33 1092 -69 1087 -57 b 1036 57 1067 -8 1053 22 b 979 163 1019 92 1000 127 b 911 253 957 199 935 229 b 844 289 888 277 866 289 l 840 289 b 620 250 785 283 712 270 b 347 187 528 231 437 210 b 143 134 258 165 190 147 b 455 408 243 238 347 329 b 783 623 562 487 671 558 b 1120 808 895 687 1006 749 b 1054 974 1106 867 1084 923 b 954 1122 1023 1025 989 1074 b 948 1130 951 1124 950 1127 z "},"[":{"ha":408,"x_min":0,"x_max":0,"o":"m 395 1106 b 340 970 395 1106 376 1061 b 214 650 303 880 261 772 b 89 302 168 527 125 411 b 34 85 52 194 34 121 b 91 -39 34 28 58 -12 b 195 -92 138 -79 195 -92 b 281 -85 221 -92 250 -90 b 374 -77 315 -80 345 -77 b 446 -92 402 -77 426 -82 b 413 -40 446 -92 433 -67 b 346 12 393 -13 370 12 b 272 8 322 12 297 11 b 201 4 248 6 225 5 b 286 321 217 98 245 204 b 410 654 327 438 368 549 b 482 842 439 726 463 789 b 511 951 501 895 511 931 b 502 1002 511 970 508 987 b 566 1008 522 1004 543 1006 b 656 1016 597 1013 628 1016 b 728 1001 684 1016 709 1012 b 696 1054 728 1001 715 1026 b 628 1106 676 1081 652 1106 b 551 1102 603 1106 577 1105 b 471 1097 524 1099 497 1097 b 395 1106 444 1097 419 1100 z "},"\\":{"ha":506,"x_min":0,"x_max":0,"o":"m -61 1067 b 27 840 -37 1027 -8 951 b 136 479 62 729 99 609 b 232 164 171 361 203 256 b 299 -7 261 73 283 16 b 370 -35 313 -21 337 -31 b 460 -42 404 -40 434 -42 b 507 -41 488 -42 507 -41 b 428 85 483 -25 457 16 b 338 329 399 153 369 234 b 249 616 308 424 278 519 b 170 865 220 710 194 793 b 112 1010 146 937 127 985 b 54 1050 99 1029 79 1042 b -20 1064 28 1057 4 1062 b -60 1067 -43 1066 -57 1067 z "},"]":{"ha":480,"x_min":0,"x_max":0,"o":"m 168 1106 b 201 1054 168 1106 181 1081 b 267 1001 220 1026 245 1001 b 345 1006 292 1001 319 1002 b 412 1010 368 1008 389 1009 b 328 693 396 916 368 810 b 203 360 286 576 245 465 b 132 172 174 288 151 225 b 102 63 112 119 102 83 b 111 12 102 44 105 27 b 51 5 92 10 72 8 b -43 -3 18 0 -14 -3 b -115 12 -72 -3 -96 2 b -83 -40 -115 12 -102 -13 b -15 -92 -63 -67 -37 -92 b 62 -88 10 -92 36 -91 b 142 -83 90 -85 116 -83 b 218 -92 169 -83 194 -86 b 273 44 218 -92 237 -47 b 399 364 310 134 352 241 b 524 712 446 487 488 603 b 579 928 561 821 579 892 b 523 1053 579 985 555 1025 b 418 1106 476 1093 417 1106 b 332 1099 392 1106 363 1103 b 239 1091 298 1094 268 1091 b 168 1106 211 1091 187 1096 z "},"^":{"ha":436,"x_min":0,"x_max":0,"o":"m 387 996 b 217 855 331 938 274 891 b 271 797 224 837 241 817 b 351 766 299 777 326 766 b 439 888 386 808 416 848 b 450 904 443 893 447 899 b 509 821 450 904 486 845 b 570 793 529 800 551 793 b 614 804 594 793 614 804 b 498 961 614 802 548 886 b 437 987 489 972 463 981 b 387 996 410 993 387 996 z "},"_":{"ha":435,"x_min":0,"x_max":0,"o":"m 0 0 b 20 -52 0 0 7 -24 b 72 -113 33 -79 51 -106 b 114 -117 82 -115 96 -117 b 231 -108 146 -117 185 -114 b 358 -89 277 -102 319 -95 b 435 -73 397 -82 422 -77 l 386 0 b 286 -8 361 -3 328 -6 b 157 -12 243 -10 201 -12 b 0 0 92 -12 31 -8 z "},"`":{"ha":372,"x_min":0,"x_max":0,"o":"m 292 995 b 251 992 269 995 251 992 b 264 966 251 992 255 983 b 296 904 272 948 283 928 b 339 839 309 880 323 859 b 383 798 355 819 369 805 b 451 787 405 791 427 787 b 506 791 472 787 490 788 b 530 795 522 794 530 795 b 406 954 530 795 435 899 b 356 987 395 971 378 982 b 292 995 333 992 311 995 z "},"a":{"ha":656,"x_min":0,"x_max":0,"o":"m 498 606 b 471 592 485 606 477 605 b 416 468 454 559 436 517 b 414 486 416 475 415 481 b 349 570 404 518 382 546 b 262 605 316 593 287 605 b 164 565 228 605 195 591 b 81 462 133 538 105 504 b 23 325 57 419 37 374 b 1 184 9 276 1 229 b 150 0 1 82 43 0 b 239 46 178 0 208 16 b 330 164 270 77 300 116 b 328 122 328 149 328 135 b 434 0 328 31 382 0 b 505 27 456 0 480 9 b 575 92 528 45 552 66 b 636 170 597 118 618 144 b 680 235 654 195 669 216 b 696 261 690 252 696 261 l 678 275 b 623 219 678 275 654 248 b 533 163 591 190 555 163 b 521 186 525 164 521 172 b 555 319 521 213 532 257 b 635 503 578 380 605 441 b 637 513 636 507 637 510 b 612 555 637 526 629 541 b 498 606 580 583 533 605 z m 347 491 b 373 443 365 491 373 473 b 336 292 373 406 361 356 b 205 172 281 214 230 172 b 190 193 195 172 190 178 l 190 193 b 220 322 191 233 201 277 b 286 441 239 368 261 408 b 347 491 311 474 331 491 z "},"b":{"ha":584,"x_min":0,"x_max":0,"o":"m 361 1003 b 341 998 353 1003 347 1002 b 183 823 286 964 233 906 b 61 545 134 740 93 647 b 13 259 29 442 13 347 b 199 0 13 111 65 0 b 316 38 235 0 275 13 b 434 134 357 63 397 95 b 525 259 471 173 501 215 b 560 381 549 303 560 344 b 545 439 560 398 555 418 b 507 496 535 460 523 479 b 459 519 492 511 476 519 b 297 409 408 519 351 473 b 155 205 242 345 192 269 b 153 235 153 214 153 224 b 189 433 153 285 165 351 b 287 675 213 515 245 595 b 425 872 328 755 374 821 b 387 709 422 817 410 762 b 302 555 363 655 335 604 b 205 419 269 507 237 461 b 199 412 203 417 201 414 l 212 400 b 242 432 212 400 222 411 b 316 516 262 453 287 481 b 404 630 345 551 375 589 b 478 754 433 671 458 713 b 508 868 498 795 508 833 b 482 931 508 889 499 910 b 422 983 465 952 445 969 b 361 1003 399 996 378 1003 z m 365 362 b 380 349 375 361 380 357 b 344 283 380 335 368 313 b 262 201 319 253 292 226 b 188 163 231 176 206 163 b 184 163 186 163 185 163 b 180 163 182 163 181 163 b 242 253 199 193 220 222 b 309 330 264 283 286 309 b 365 362 330 351 349 362 z "},"c":{"ha":449,"x_min":0,"x_max":0,"o":"m 287 605 b 184 564 252 605 218 591 b 92 456 150 536 119 500 b 25 316 64 412 42 366 b 0 174 8 266 0 218 b 160 0 0 76 45 0 b 249 27 189 0 218 9 b 336 92 279 45 309 66 b 411 170 364 118 389 144 b 463 235 433 195 450 216 b 482 261 476 252 482 261 l 464 275 b 329 167 409 223 364 187 b 246 136 294 146 266 136 b 198 193 211 136 198 163 b 226 321 198 236 208 279 b 288 425 244 362 264 397 b 341 466 310 452 328 466 l 342 466 b 355 450 351 466 355 460 b 267 283 355 427 331 376 b 265 279 266 282 265 281 b 279 268 265 273 279 267 b 336 304 293 268 312 280 b 398 390 359 329 380 357 b 425 472 416 422 425 450 b 401 529 425 489 417 508 b 345 583 385 550 366 568 b 287 605 323 597 304 605 z "},"d":{"ha":699,"x_min":0,"x_max":0,"o":"m 702 987 b 615 906 680 987 650 960 b 507 701 579 852 543 783 b 413 439 471 617 439 530 b 414 458 414 446 414 452 b 411 486 414 469 413 478 b 347 570 401 518 380 546 b 260 605 313 593 285 605 b 162 565 226 605 193 591 b 79 462 131 538 103 504 b 20 325 54 419 35 374 b -1 184 6 275 -1 229 b 147 0 -1 82 41 0 b 368 233 217 0 300 107 b 361 140 363 200 361 169 b 467 0 361 49 416 0 b 538 27 490 0 513 9 b 608 92 562 45 586 66 b 670 170 631 118 652 144 b 713 235 688 195 703 216 b 730 261 724 252 730 261 l 711 275 b 656 219 711 275 688 248 b 566 163 624 190 589 163 b 531 227 541 163 531 188 b 574 431 531 277 545 345 b 671 672 602 516 634 597 b 766 828 707 747 739 800 b 717 663 766 806 749 750 b 595 416 684 574 644 492 l 609 400 b 725 550 652 439 690 489 b 809 732 760 610 788 671 b 840 876 830 793 840 842 b 819 918 840 886 833 901 b 766 966 805 936 787 952 b 702 987 745 981 723 987 z m 344 492 b 371 442 362 492 371 473 b 334 292 371 406 359 355 b 203 172 279 214 228 172 b 188 193 193 172 188 178 l 188 193 b 218 323 189 234 199 277 b 283 441 237 368 259 408 b 344 492 308 475 328 492 z "},"e":{"ha":449,"x_min":0,"x_max":0,"o":"m 286 605 b 183 564 251 605 217 591 b 90 456 149 536 118 500 b 24 316 62 412 41 366 b -1 174 7 266 -1 218 b 159 0 -1 76 43 0 b 248 27 188 0 217 9 b 335 92 278 45 307 66 b 410 170 363 118 387 144 b 462 235 431 195 449 216 b 481 261 475 252 481 261 l 463 274 b 328 167 408 223 363 187 b 245 136 292 146 265 136 b 200 170 219 136 205 150 b 357 313 260 200 312 248 b 424 471 401 378 424 431 b 400 528 424 488 416 507 b 343 583 384 549 365 567 b 286 605 321 597 302 605 z m 340 465 b 345 459 343 465 345 463 b 304 369 345 445 331 415 b 200 233 276 323 241 277 b 263 392 212 294 233 347 b 338 465 294 437 319 462 z "},"f":{"ha":435,"x_min":0,"x_max":0,"o":"m 336 830 b 316 825 328 830 321 829 b 183 667 273 799 229 746 b 55 382 137 587 94 492 b -39 39 16 271 -16 157 b -157 26 -79 32 -119 27 b -56 -61 -157 -18 -115 -48 b -70 -252 -65 -128 -70 -192 b -37 -309 -70 -268 -59 -287 b 39 -367 -15 -331 10 -350 b 113 -391 68 -383 92 -391 b 157 -367 127 -391 141 -383 b 195 -309 172 -351 184 -331 b 210 -245 205 -286 210 -264 b 199 -127 210 -213 207 -174 b 168 7 192 -81 182 -36 b 315 102 217 34 267 65 b 437 220 363 139 404 178 b 466 260 456 247 466 260 l 448 274 b 416 243 437 263 426 253 b 160 87 330 174 245 122 b 180 172 166 119 172 146 b 303 488 213 284 254 389 b 440 699 351 586 397 656 b 401 536 437 644 425 589 b 318 382 378 482 351 431 b 220 246 285 334 252 288 b 215 239 218 244 217 241 l 227 227 b 257 259 227 227 237 238 b 332 343 277 280 302 309 b 419 457 361 378 390 416 b 494 582 448 498 473 540 b 524 695 513 623 524 661 b 450 787 524 727 491 760 b 336 830 408 813 363 829 z m 142 -18 b 159 -170 153 -71 159 -122 b 128 -276 159 -221 151 -262 b 124 -229 125 -267 124 -252 b 142 -18 124 -179 130 -109 z "},"g":{"ha":704,"x_min":0,"x_max":0,"o":"m 286 604 b 184 563 252 604 218 591 b 91 456 149 535 119 499 b 24 315 63 412 41 365 b -1 173 7 265 -1 218 b 159 -1 -1 75 44 -1 b 346 136 216 -1 283 54 b 499 420 408 217 464 319 b 387 48 476 292 439 168 b 315 -10 368 34 344 14 b 227 -90 286 -34 256 -61 b 152 -179 197 -119 172 -149 b 121 -261 131 -209 121 -236 b 148 -322 121 -281 130 -302 b 211 -372 165 -342 186 -359 b 278 -391 235 -385 258 -391 b 358 -333 298 -391 325 -372 b 463 -178 391 -294 426 -242 b 568 32 500 -115 534 -45 b 649 261 601 108 628 184 b 680 471 670 338 680 408 b 650 530 680 489 670 509 b 581 583 630 550 607 568 b 515 604 555 597 533 604 b 452 435 498 542 477 486 b 454 455 453 442 454 449 b 450 486 454 467 452 477 b 379 569 439 517 416 545 b 286 604 342 593 311 604 z m 353 465 b 389 397 370 465 389 450 b 378 310 389 375 385 346 b 216 171 311 220 248 171 b 197 193 203 171 197 178 b 227 315 197 232 207 273 b 293 422 246 357 268 393 b 353 465 317 451 338 465 z m 363 -5 b 197 -265 312 -111 257 -198 b 243 -156 197 -241 212 -205 b 363 -5 274 -107 314 -57 z "},"h":{"ha":720,"x_min":0,"x_max":0,"o":"m 429 1002 b 409 998 421 1002 415 1000 b 227 802 348 960 288 895 b 75 494 167 709 117 606 b 14 195 34 382 14 282 b 165 -1 14 81 56 -1 b 311 220 197 56 246 130 b 479 419 376 310 432 376 b 363 124 395 283 363 189 b 382 50 363 92 370 68 b 488 -1 409 13 450 -1 b 558 26 510 -1 534 8 b 629 92 583 44 606 66 b 690 169 651 117 672 143 b 734 234 709 194 723 216 b 750 260 745 252 750 260 l 732 274 b 677 218 732 274 708 248 b 587 163 646 189 610 163 b 572 181 577 163 572 170 b 587 239 572 195 577 214 b 621 317 597 263 608 290 b 654 393 634 344 645 370 b 669 448 664 417 669 435 b 647 504 669 469 661 487 b 599 543 632 520 616 533 b 560 557 581 552 568 557 b 472 499 536 551 507 532 b 363 382 437 466 401 427 b 258 254 326 338 290 295 b 172 151 219 205 191 171 b 170 171 171 157 170 163 b 218 380 170 219 186 288 b 338 653 249 471 289 562 b 493 871 387 744 438 817 b 455 709 490 817 477 762 b 372 557 432 656 404 606 b 275 421 339 509 307 463 b 267 411 273 418 270 414 l 279 399 b 310 431 279 399 290 410 b 384 515 330 452 355 480 b 472 629 413 549 443 587 b 547 753 501 670 526 711 b 576 867 566 795 576 833 b 551 930 576 888 568 909 b 490 981 534 951 513 968 b 429 1002 467 995 447 1002 z "},"i":{"ha":325,"x_min":0,"x_max":0,"o":"m 330 690 b 398 718 357 690 379 700 b 426 785 416 736 426 759 b 398 852 426 812 416 834 b 330 880 379 871 357 880 b 263 852 304 880 281 871 b 235 785 245 834 235 812 b 263 718 235 759 245 736 b 330 690 281 700 304 690 z m 157 604 b 129 591 144 604 135 604 b 68 448 110 553 90 505 b 11 271 45 390 26 331 b -14 121 -5 211 -14 161 b 92 -1 -14 31 41 -1 b 233 91 138 -1 188 39 b 355 260 299 166 355 261 l 336 273 b 281 218 336 273 313 247 b 192 162 250 189 214 162 b 179 184 183 163 179 170 b 214 318 179 212 191 256 b 293 503 237 380 263 441 b 295 513 294 506 295 509 b 271 554 295 526 287 540 b 214 590 255 568 236 580 b 157 604 193 600 174 604 z "},"j":{"ha":376,"x_min":0,"x_max":0,"o":"m 330 690 b 398 718 357 690 379 700 b 426 785 416 736 426 759 b 398 852 426 812 416 834 b 330 880 379 871 357 880 b 263 852 304 880 281 871 b 235 785 245 834 235 812 b 263 718 235 759 245 736 b 330 690 281 700 304 690 z m 172 604 b 85 408 153 551 123 486 b -68 177 46 330 -5 254 l -35 152 b 156 424 45 247 109 338 b 43 47 134 294 96 169 b -30 -10 24 33 -1 14 b -117 -90 -59 -34 -88 -61 b -193 -180 -146 -119 -172 -149 b -223 -262 -213 -210 -223 -237 b -197 -322 -223 -282 -214 -302 b -134 -372 -179 -342 -158 -359 b -66 -391 -109 -385 -86 -391 b 14 -333 -46 -391 -20 -372 b 119 -178 47 -294 82 -242 b 224 32 156 -115 191 -45 b 305 261 257 108 284 184 b 336 471 326 338 336 408 b 307 529 336 489 326 508 b 237 583 286 550 263 568 b 172 604 211 597 189 604 z m 19 -5 b -147 -265 -32 -111 -87 -198 b -101 -156 -147 -241 -132 -205 b 19 -5 -70 -107 -30 -57 z "},"k":{"ha":692,"x_min":0,"x_max":0,"o":"m 419 1000 b 399 996 412 1000 406 999 b 218 800 338 958 278 892 b 66 492 157 707 107 604 b 3 193 24 379 3 279 b 155 -3 3 77 46 -3 b 298 219 197 79 245 153 b 357 54 307 146 326 91 b 466 -3 388 16 425 -3 b 543 24 492 -3 517 6 b 614 90 568 42 591 64 b 673 167 636 115 656 141 b 713 232 690 192 703 214 b 728 258 724 250 728 258 l 710 272 b 655 216 710 272 686 245 b 565 161 624 187 589 161 b 432 355 471 161 439 279 b 601 437 498 410 555 437 b 642 427 616 437 629 434 b 624 488 642 448 635 468 b 584 536 612 507 598 523 b 550 555 570 549 558 555 b 463 498 526 549 497 530 b 354 381 428 465 391 426 b 248 252 316 336 281 294 b 162 149 210 203 181 169 b 161 169 161 155 161 161 b 208 378 161 217 176 286 b 328 652 239 469 279 560 b 484 869 377 743 429 815 b 445 707 481 814 468 760 b 361 554 422 654 394 603 b 264 418 329 505 296 460 b 258 409 262 415 260 412 l 269 397 b 300 429 269 397 279 408 b 374 513 319 450 345 479 b 462 627 403 548 433 586 b 536 751 491 669 516 710 b 566 865 556 793 566 831 b 541 928 566 886 557 907 b 480 980 524 949 503 966 b 419 1000 457 994 437 1000 z "},"l":{"ha":384,"x_min":0,"x_max":0,"o":"m 416 1002 b 397 997 409 1002 403 1000 b 215 802 336 960 275 895 b 63 494 155 709 104 606 b 1 195 22 381 1 281 b 152 -1 1 79 43 -1 b 224 26 176 -1 199 8 b 295 92 249 44 273 66 b 356 169 317 117 338 143 b 399 234 374 194 388 216 b 414 260 409 252 414 260 l 396 273 b 338 218 396 273 372 247 b 235 162 305 189 265 162 b 179 246 202 162 179 189 b 213 402 179 285 191 336 b 331 663 244 490 283 577 b 480 871 378 749 428 819 b 441 707 477 815 465 761 b 358 554 418 654 391 603 b 260 418 325 505 292 460 b 255 411 258 416 257 413 l 267 399 b 297 431 267 399 277 410 b 371 515 317 452 342 480 b 459 629 400 549 430 587 b 534 753 488 670 513 711 b 564 867 553 795 564 833 b 538 930 564 888 555 909 b 477 981 521 951 500 968 b 416 1002 454 995 434 1002 z "},"m":{"ha":941,"x_min":0,"x_max":0,"o":"m 156 604 b 128 590 142 604 133 599 b 76 465 115 563 98 522 b 14 286 54 409 33 349 b -15 121 -5 222 -15 167 l -15 118 b 125 -1 -15 29 85 -1 b 239 244 152 84 190 166 b 380 420 288 322 335 381 b 280 136 307 292 280 201 b 300 54 280 102 287 74 b 410 -1 328 14 371 -1 l 509 163 b 610 313 542 215 576 265 b 703 420 645 361 676 396 b 587 125 619 284 587 189 b 607 50 587 93 594 68 b 712 -1 633 13 675 -1 b 783 26 734 -1 758 8 b 853 92 807 44 831 66 b 915 169 876 117 897 143 b 958 234 933 194 947 216 b 975 260 969 252 975 260 l 956 274 b 901 218 956 274 932 248 b 811 163 869 189 833 163 b 797 181 802 163 797 170 b 812 239 797 195 802 214 b 846 317 822 263 833 289 b 879 393 858 344 869 370 b 893 448 888 417 893 435 b 871 504 893 469 886 488 b 823 543 856 520 840 533 b 785 557 805 552 792 557 b 704 509 763 557 736 541 b 604 390 671 476 638 437 b 507 252 569 343 536 297 b 533 326 514 275 523 300 b 570 448 552 376 570 423 b 548 504 570 469 562 488 b 500 543 533 520 517 533 b 461 557 482 552 469 557 b 331 458 425 548 381 515 b 195 271 280 402 235 340 b 292 502 224 353 257 430 b 294 512 294 505 294 509 b 270 553 294 525 286 538 b 214 589 254 567 235 578 b 156 604 193 598 173 603 z "},"n":{"ha":661,"x_min":0,"x_max":0,"o":"m 157 604 b 128 590 143 604 134 599 b 76 466 115 564 98 522 b 14 286 54 410 33 350 b -14 122 -5 222 -14 168 l -14 121 b 126 -1 -14 25 91 -1 b 272 244 170 84 218 166 b 420 420 326 322 375 381 b 304 125 336 284 304 189 b 323 50 304 93 311 68 b 429 -1 349 13 391 -1 b 499 26 451 -1 475 8 b 570 92 524 44 547 66 b 631 169 592 117 613 143 b 675 234 650 194 664 216 b 691 260 686 252 691 260 l 673 274 b 617 218 673 274 649 248 b 528 163 585 189 550 163 b 513 181 518 163 513 170 b 528 239 513 195 518 214 b 562 317 538 263 549 289 b 595 393 574 344 585 370 b 610 448 605 417 610 435 b 587 504 610 469 602 488 b 539 543 572 520 556 533 b 501 557 522 552 509 557 b 428 517 481 557 457 543 b 335 416 398 490 367 456 b 243 294 303 376 272 336 b 168 184 214 252 189 216 b 292 502 203 298 244 404 b 294 512 294 505 294 509 b 270 553 294 525 286 538 b 214 589 254 567 235 578 b 157 604 193 598 174 603 z "},"o":{"ha":475,"x_min":0,"x_max":0,"o":"m 330 633 b 316 634 325 634 321 634 b 184 597 273 634 229 622 b 69 507 138 572 100 542 b 17 408 38 473 20 439 l 17 403 b 45 350 17 382 26 364 b -14 149 12 282 -7 215 b -14 140 -14 146 -14 143 b 12 66 -14 111 -6 87 b 150 -4 45 24 98 1 l 154 -4 b 248 45 182 -4 214 12 b 350 170 283 78 317 119 b 433 329 382 220 410 273 b 472 482 455 384 468 435 l 472 488 b 446 557 472 512 463 535 b 388 610 429 578 410 596 b 330 633 366 625 347 632 z m 397 501 b 404 487 402 500 404 496 l 404 483 b 379 394 402 463 394 433 b 324 273 364 355 346 315 b 258 165 302 231 281 195 b 201 121 236 136 216 121 l 199 121 b 187 144 191 122 187 130 l 187 151 b 210 235 189 174 197 202 b 259 328 224 269 240 299 b 267 347 264 335 267 341 l 267 350 b 222 399 267 367 248 382 b 220 401 222 400 220 401 b 289 464 242 429 265 450 b 395 501 335 493 376 501 z "},"p":{"ha":685,"x_min":0,"x_max":0,"o":"m 498 605 b 410 562 471 605 442 591 b 314 446 378 532 347 494 b 139 117 249 351 187 233 b 322 522 189 264 250 399 b 323 527 323 524 323 525 b 304 557 323 534 317 545 b 256 590 290 569 275 580 b 208 604 238 600 222 604 b 132 520 189 604 164 576 b 35 312 100 464 68 394 b -49 62 2 230 -26 146 b -83 -149 -72 -22 -83 -92 b -33 -297 -83 -208 -66 -258 b 103 -356 0 -336 45 -356 b 77 -208 86 -313 77 -264 b 78 -176 77 -197 77 -186 b 229 186 130 -24 180 96 b 227 159 228 177 227 168 b 262 45 227 112 239 74 b 365 0 286 15 320 0 b 470 43 400 0 435 14 b 564 154 505 72 536 109 b 631 298 591 199 614 247 b 656 442 648 349 656 397 b 629 519 656 469 647 494 b 566 581 612 544 591 564 b 498 605 541 597 519 605 z m 438 439 b 460 412 452 438 460 429 b 431 290 460 373 450 332 b 366 183 412 248 390 212 b 304 139 340 154 320 139 b 271 208 281 139 271 166 b 277 272 271 226 273 248 b 437 439 351 391 407 439 b 438 439 437 439 438 439 z "},"q":{"ha":694,"x_min":0,"x_max":0,"o":"m 287 605 b 184 564 252 605 218 591 b 92 456 150 536 119 500 b 25 316 64 413 42 366 b 0 174 8 266 0 218 b 160 0 0 76 45 0 b 251 37 188 0 218 12 b 346 136 283 62 315 95 b 499 420 408 218 464 320 b 401 83 477 290 444 178 b 381 39 395 68 388 53 b 281 -155 351 -30 318 -94 b 134 -303 245 -214 196 -264 b 296 -418 135 -303 157 -418 b 542 -302 368 -418 469 -353 b 636 -250 586 -273 621 -250 b 643 -254 641 -250 643 -251 b 620 -285 643 -260 635 -271 b 566 -328 604 -299 586 -313 b 512 -360 546 -342 528 -353 b 578 -343 512 -360 541 -355 b 699 -247 633 -326 699 -294 b 568 -130 699 -168 596 -130 b 505 -170 560 -130 539 -143 b 440 -216 486 -184 464 -199 b 554 1 479 -153 517 -81 b 644 246 590 81 621 163 b 680 471 668 329 680 404 b 650 530 680 489 670 509 b 581 583 630 551 607 568 b 516 605 555 597 534 605 b 452 435 499 542 477 486 b 454 458 453 444 454 451 b 450 486 454 468 452 477 b 379 570 439 517 416 546 b 287 605 342 593 312 605 z m 353 465 b 390 398 370 465 390 450 b 378 310 390 376 386 347 b 284 208 345 265 313 231 b 216 172 255 184 232 172 b 215 172 216 172 216 172 b 198 193 203 172 198 179 b 227 315 198 232 208 273 b 293 422 246 357 268 393 b 353 465 317 451 338 465 z "},"r":{"ha":576,"x_min":0,"x_max":0,"o":"m 463 604 b 392 566 443 604 419 591 b 217 329 337 513 275 427 b 292 502 241 391 266 448 b 294 512 294 505 294 509 b 270 553 294 525 286 538 b 213 589 254 567 235 578 b 156 604 191 599 172 604 b 128 590 142 604 133 599 b 76 465 115 563 98 522 b 14 286 54 409 33 349 b -15 121 -5 222 -15 167 b 9 50 -15 91 -7 67 b 67 11 26 31 45 18 b 126 -1 90 3 109 -1 b 237 268 150 86 186 176 b 382 467 288 360 336 427 b 340 313 354 405 340 353 b 462 189 340 227 397 189 b 614 260 516 189 574 214 l 597 274 b 570 271 587 272 578 271 b 530 315 541 271 530 288 b 554 420 530 345 543 384 b 572 495 563 450 572 478 b 550 551 572 516 564 535 b 502 590 535 568 519 581 b 463 604 484 600 471 604 z "},"s":{"ha":629,"x_min":0,"x_max":0,"o":"m 403 648 b 219 585 341 646 279 625 b 67 438 159 545 108 496 b 5 277 26 380 5 326 b 77 189 5 222 34 195 b 71 123 73 169 71 146 b 83 49 71 98 75 73 b 130 -13 92 24 107 3 b 227 -37 152 -29 184 -37 l 233 -37 b 374 12 277 -34 325 -18 b 515 113 424 41 471 75 b 624 213 559 150 595 184 b 667 256 652 242 667 256 l 649 275 b 498 165 650 277 573 213 b 520 230 513 193 520 214 l 520 232 b 477 307 517 260 503 285 b 398 340 452 329 425 340 b 314 319 374 340 345 330 b 245 302 287 309 262 302 b 222 321 231 302 222 307 b 269 396 222 340 238 365 b 378 479 299 427 336 454 b 492 516 420 504 458 516 b 544 481 530 516 544 501 b 493 383 544 443 492 382 l 503 366 b 553 399 503 366 527 379 b 602 467 578 418 602 443 b 571 553 602 496 591 525 b 494 621 550 581 525 603 b 404 648 464 639 433 648 z m 350 250 b 336 227 350 250 345 243 b 298 174 328 212 315 193 b 242 120 282 154 263 136 b 172 96 220 104 197 96 b 123 168 132 96 123 133 b 123 186 123 174 123 180 b 227 205 158 188 192 195 b 314 235 261 215 290 225 b 350 250 338 245 350 250 z "},"t":{"ha":386,"x_min":0,"x_max":0,"o":"m 420 1002 b 401 997 413 1002 407 1000 b 241 833 347 965 294 910 b 99 574 187 756 140 669 b 12 556 47 564 12 556 b 17 521 12 547 14 535 b 31 488 20 507 24 496 b 67 493 43 490 56 492 b 5 195 26 380 5 281 b 157 -1 5 79 48 -1 b 229 26 180 -1 204 8 b 300 92 254 44 277 66 b 361 169 322 117 342 143 b 403 234 378 194 393 216 b 418 260 413 252 418 260 l 401 273 b 343 218 401 273 376 247 b 240 162 310 189 270 162 b 183 246 205 162 183 189 b 217 402 183 285 195 336 b 243 470 225 425 234 447 b 292 511 258 482 275 496 b 444 488 353 510 404 502 b 444 502 444 488 444 493 b 441 533 444 510 444 520 b 400 588 437 557 425 581 b 380 593 394 590 387 591 b 473 692 413 625 444 659 b 568 867 530 760 568 823 l 568 867 b 512 960 565 901 547 931 b 420 1002 477 987 447 1002 z m 485 871 b 430 747 482 838 464 797 b 310 597 395 698 355 648 b 302 596 307 597 304 597 b 300 596 301 596 301 596 b 485 871 357 712 418 804 z "},"u":{"ha":656,"x_min":0,"x_max":0,"o":"m 196 604 b 168 591 182 604 174 604 b 81 446 139 553 111 504 b 8 271 52 389 28 330 b -22 121 -12 211 -22 161 b 84 -1 -22 31 33 -1 b 174 42 112 -1 142 14 b 273 149 207 70 240 106 b 368 286 307 192 338 237 b 328 106 344 221 328 157 b 424 -1 328 43 353 -1 b 565 91 469 -1 519 39 b 686 260 631 166 687 261 l 668 273 b 613 218 668 273 644 247 b 523 162 582 189 547 162 b 509 180 513 163 509 169 b 524 239 509 195 514 214 b 558 320 534 264 545 292 b 605 448 583 372 603 421 l 605 450 b 585 503 605 469 598 486 b 538 541 571 518 555 531 b 496 556 522 551 507 556 b 455 496 496 556 483 536 b 357 359 427 456 394 410 b 250 222 319 308 283 262 b 183 162 217 182 195 162 b 171 184 175 163 171 170 b 218 317 171 212 186 256 b 332 503 250 378 288 439 b 334 513 334 506 334 509 b 310 554 334 526 326 540 b 253 590 294 568 275 580 b 196 604 231 600 212 604 z "},"v":{"ha":531,"x_min":0,"x_max":0,"o":"m 148 604 b 120 591 136 604 127 604 b 29 348 85 521 54 440 b -9 136 4 255 -9 184 b 9 64 -9 109 -3 85 b 98 -1 32 23 68 -1 b 195 40 124 -1 157 12 b 312 144 233 67 272 102 b 424 277 352 186 389 230 b 509 408 458 323 487 367 b 542 505 531 450 542 481 b 530 553 542 522 538 538 b 481 604 515 583 492 604 b 452 496 481 580 471 545 b 378 348 432 448 407 399 b 288 217 349 297 318 253 b 208 162 256 180 230 162 l 207 162 b 191 197 197 163 191 175 b 218 331 191 229 200 273 b 284 503 235 389 257 446 b 286 513 286 506 286 509 b 262 553 286 526 278 539 b 205 589 245 568 227 579 b 148 604 184 599 165 604 z "},"w":{"ha":868,"x_min":0,"x_max":0,"o":"m 158 604 b 130 591 144 604 136 603 b 68 448 111 553 90 505 b 12 271 46 389 27 330 b -13 121 -5 211 -13 161 b 94 -1 -13 30 41 -1 b 182 33 123 -1 153 10 b 349 237 242 79 299 155 b 341 136 344 197 341 163 b 367 65 341 109 350 85 b 425 16 384 44 403 28 b 480 -1 447 5 465 -1 b 585 40 513 -1 548 12 b 690 144 621 67 656 102 b 783 277 724 186 755 230 b 849 408 810 323 832 367 b 873 505 865 450 873 481 b 749 604 873 556 766 604 b 737 522 749 585 745 557 b 705 408 729 486 718 448 b 661 290 692 366 677 328 b 610 199 644 253 627 222 b 557 162 591 174 574 162 l 557 162 b 534 214 541 163 534 182 b 602 454 534 269 556 359 b 604 465 603 458 604 461 b 579 505 604 477 595 491 b 523 541 563 519 544 531 b 465 556 502 551 482 555 b 437 543 454 556 445 555 b 415 495 429 528 422 512 b 344 370 397 463 374 421 b 256 227 314 317 285 270 b 193 162 227 184 205 162 b 180 184 184 163 180 170 b 214 318 180 212 191 256 b 294 503 237 380 264 441 b 296 513 295 506 296 509 b 272 554 296 526 288 540 b 215 590 256 568 237 580 b 158 604 193 600 174 604 z "},"x":{"ha":750,"x_min":0,"x_max":0,"o":"m 157 604 b 71 408 138 551 109 485 b -82 176 32 330 -19 253 l -50 151 b 174 486 50 270 125 382 b 247 271 189 419 214 347 b 106 122 191 213 144 163 b 50 60 68 81 50 60 b 104 -1 50 61 70 1 b 178 79 111 -1 138 30 b 282 200 207 113 241 154 b 524 -1 345 88 426 -1 b 665 91 570 -1 620 39 b 787 260 731 166 787 261 l 768 273 b 713 218 768 273 745 247 b 623 162 682 189 647 162 b 429 351 576 162 520 163 b 586 478 479 399 531 441 b 750 556 640 515 695 541 b 633 604 750 556 715 604 b 542 551 615 604 585 587 b 397 422 499 516 451 473 b 347 551 382 459 365 502 b 298 587 340 568 323 580 b 217 602 272 595 245 600 b 157 604 189 604 169 604 z "},"y":{"ha":654,"x_min":0,"x_max":0,"o":"m 157 604 b 130 591 144 604 136 604 b 68 448 111 553 90 505 b 11 271 46 390 27 331 b -14 121 -5 212 -14 161 b 93 -1 -14 31 41 -1 b 272 128 144 -1 208 51 b 444 393 336 205 397 300 b 336 47 420 274 385 159 b 264 -10 317 33 293 14 b 176 -91 235 -35 205 -62 b 101 -180 146 -120 121 -150 b 70 -262 80 -210 70 -237 b 97 -322 70 -282 79 -302 b 160 -372 115 -342 136 -359 b 227 -391 184 -385 207 -391 b 307 -333 247 -391 274 -372 b 412 -178 340 -294 375 -242 b 517 32 450 -115 484 -45 b 598 261 550 108 577 184 b 630 471 619 338 630 408 b 600 529 630 489 620 508 b 531 583 580 550 557 568 b 465 604 505 597 483 604 b 434 489 465 576 455 538 b 358 341 413 440 388 391 b 267 214 328 292 298 249 b 192 162 237 180 212 162 b 180 184 184 163 180 170 b 214 318 180 212 191 256 b 294 503 237 380 264 441 b 296 513 295 506 296 509 b 271 554 296 526 288 540 b 214 590 255 568 236 580 b 157 604 193 600 174 604 z m 312 -5 b 146 -265 261 -112 206 -198 b 193 -157 146 -241 162 -205 b 312 -5 223 -107 263 -57 z "},"z":{"ha":610,"x_min":0,"x_max":0,"o":"m 158 604 b 83 515 159 605 83 557 b 101 469 83 501 90 486 b -81 177 58 377 -2 273 l -49 152 b 143 426 32 248 96 338 b 184 408 159 414 173 408 b 355 457 218 408 357 458 b 302 415 355 457 337 443 b 180 315 266 387 226 353 b 60 207 135 277 95 241 b 6 138 24 172 6 149 b 35 80 6 121 16 102 b 98 24 54 58 75 39 b 150 -1 121 7 138 -1 b 239 39 175 -1 208 20 b 305 71 266 56 290 71 b 338 20 330 71 338 45 b 337 7 338 16 338 12 b 195 -90 297 -19 250 -52 b 47 -201 140 -129 91 -166 b -18 -275 4 -237 -18 -261 b 7 -328 -18 -292 -9 -309 b 153 -391 39 -363 95 -391 b 241 -347 174 -391 204 -376 b 353 -241 279 -317 316 -282 b 449 -122 391 -199 422 -160 b 488 -39 475 -83 488 -56 b 463 35 488 -17 480 8 b 406 105 446 62 427 85 b 353 134 384 125 366 134 b 256 103 334 134 293 119 b 187 71 218 86 187 71 b 186 72 186 71 186 71 b 241 125 186 77 204 95 b 369 231 277 156 320 191 b 519 354 424 275 473 316 b 597 429 564 392 589 417 b 599 439 598 432 599 435 b 578 495 599 454 592 473 b 532 555 564 517 548 538 b 500 581 516 572 505 581 b 414 555 492 581 458 570 b 304 522 378 544 341 532 b 229 505 268 511 243 505 b 145 564 194 505 145 523 b 155 599 145 574 149 586 b 158 604 156 600 157 602 z m 324 -22 b 277 -91 313 -40 298 -63 b 210 -176 256 -119 234 -147 b 139 -248 185 -203 161 -228 b 83 -277 117 -267 98 -277 b 77 -273 79 -277 77 -276 b 121 -214 77 -264 92 -244 b 221 -117 150 -184 183 -151 b 324 -22 258 -81 293 -50 z "},"{":{"ha":412,"x_min":0,"x_max":0,"o":"m 496 1071 b 438 1038 473 1071 454 1060 b 350 836 405 995 378 920 b 299 694 334 788 317 741 b 232 568 280 646 258 604 b 139 488 206 530 175 504 b 165 394 156 458 165 427 b 142 281 165 357 157 320 b 92 169 127 243 111 205 b 34 -2 60 104 34 46 b 103 -110 34 -57 64 -90 b 230 -139 160 -138 231 -138 b 203 -89 217 -125 208 -109 b 194 -46 197 -69 194 -55 b 241 105 194 -16 216 40 b 318 386 277 195 318 304 b 286 481 318 424 309 457 b 415 585 339 497 382 532 b 495 759 448 637 475 695 b 516 826 503 783 510 805 b 546 913 525 859 535 888 b 663 995 567 964 598 995 b 595 1046 652 1012 629 1029 b 496 1071 560 1063 527 1071 z "},"|":{"ha":673,"x_min":0,"x_max":0,"o":"m 353 -203 l 484 -203 l 484 1136 l 353 1136 z "},"}":{"ha":451,"x_min":0,"x_max":0,"o":"m 345 1071 b 372 1021 357 1057 366 1041 b 380 978 378 1002 380 987 b 334 827 380 947 359 892 b 256 547 298 737 256 629 b 288 452 256 509 266 475 b 159 349 235 435 193 401 b 79 174 126 296 100 237 b 58 106 72 150 64 127 b 29 18 50 73 39 43 b -88 -63 7 -33 -24 -63 b -20 -114 -77 -80 -55 -97 b 79 -138 15 -130 47 -138 b 136 -106 100 -138 119 -127 b 224 96 169 -62 196 12 b 275 239 239 144 256 191 b 342 365 294 286 317 328 b 435 444 368 401 399 428 b 410 538 418 474 410 505 b 432 650 410 574 417 612 b 482 763 447 689 464 726 b 541 935 513 827 541 886 b 472 1042 541 989 510 1022 b 345 1071 416 1069 343 1070 z "},"~":{"ha":512,"x_min":0,"x_max":0,"o":"m 231 405 b 174 382 212 405 193 397 b 124 332 155 368 138 351 b 88 281 109 313 97 296 b 75 258 79 266 75 258 l 106 227 b 174 269 106 227 136 269 b 245 239 191 269 217 255 b 340 200 277 220 313 200 b 400 224 361 200 382 208 b 448 278 418 239 434 258 b 481 332 463 298 473 316 b 493 355 489 347 493 355 l 469 379 b 395 321 469 380 437 321 b 326 357 376 321 351 338 b 231 405 296 382 263 405 z "},"":{"ha":328,"x_min":0,"x_max":0,"o":"m 242 654 b 181 627 221 654 201 646 b 149 566 161 609 151 589 l 149 562 b 172 508 149 544 156 526 b 223 477 186 490 203 479 l 227 477 b 292 507 250 477 271 487 b 326 571 313 526 324 547 l 326 573 b 300 627 326 592 317 610 b 244 654 283 644 264 653 z m 145 446 b 56 124 145 332 97 218 b 0 -47 25 56 0 -4 b 58 -168 0 -104 28 -142 b 117 -203 89 -192 117 -203 b 146 -140 117 -203 126 -182 b 212 9 165 -98 186 -49 b 277 174 236 67 258 121 b 306 282 296 226 306 262 b 250 407 306 340 281 380 b 145 460 203 447 144 459 z "},"":{"ha":605,"x_min":0,"x_max":0,"o":"m 654 839 b 545 675 633 806 596 751 b 507 620 532 657 520 639 b 448 687 493 644 473 667 b 379 718 422 707 399 718 b 277 676 345 718 311 704 b 184 569 242 648 212 612 b 117 429 156 526 134 479 b 92 287 100 378 92 331 b 182 125 92 212 119 151 b 109 0 153 77 129 35 b 159 -45 109 -21 132 -36 b 208 -58 185 -54 208 -58 b 284 117 221 -12 246 46 b 388 171 319 125 353 144 b 481 258 422 197 453 227 b 549 339 509 288 532 315 b 574 374 566 362 574 374 l 556 387 b 363 252 467 302 404 262 b 730 758 481 443 604 611 b 654 839 730 757 705 839 z m 434 578 b 448 562 443 578 448 573 b 417 486 448 548 437 523 b 291 296 374 423 332 359 b 290 306 290 299 290 302 b 317 433 290 349 299 391 b 378 536 336 474 355 509 b 432 578 400 562 418 576 z "},"":{"ha":720,"x_min":0,"x_max":0,"o":"m 442 857 b 371 812 417 857 393 842 b 242 534 326 751 285 649 b 180 380 222 482 201 431 b 98 389 115 382 99 389 b 105 355 98 389 100 373 b 138 318 111 336 121 320 b 153 317 143 317 148 317 b 0 113 109 224 60 149 b 28 73 0 104 9 91 b 90 22 46 54 66 37 b 144 -1 112 7 130 -1 b 283 17 184 -1 232 8 b 462 39 340 28 401 39 b 627 -1 519 39 575 29 b 598 66 621 20 612 42 b 551 131 584 91 568 113 b 498 159 532 149 515 159 b 415 151 474 159 447 156 b 322 131 383 144 352 138 b 247 112 292 123 267 117 b 216 103 227 106 216 103 b 368 315 275 139 325 218 b 469 318 429 316 469 318 b 449 353 469 318 462 334 b 400 390 436 372 420 388 b 454 531 419 437 437 484 b 522 705 477 600 500 657 b 585 780 543 751 564 777 l 586 780 b 602 761 596 779 602 772 b 568 654 602 736 585 695 b 537 556 552 614 537 576 b 562 508 537 541 545 524 b 682 425 595 475 645 446 b 697 416 688 422 692 419 b 682 481 687 435 682 457 b 705 608 682 522 694 568 b 720 690 713 641 720 670 b 690 752 720 711 710 732 b 614 806 669 772 644 790 b 522 844 584 821 553 834 b 442 857 490 852 464 857 z "},"":{"ha":578,"x_min":0,"x_max":0,"o":"m 198 676 b 143 648 180 676 161 667 b 110 595 125 629 113 612 b 157 524 124 575 140 551 b 168 509 161 519 164 513 b 106 366 142 465 121 418 b 82 217 90 313 82 264 b 103 109 82 176 89 140 b 72 54 92 90 81 72 b 90 25 72 43 78 34 b 171 -3 114 7 149 -3 b 184 41 174 11 179 26 b 230 35 198 37 213 35 b 382 94 286 35 336 58 b 401 -3 391 60 397 28 b 442 4 412 -3 426 -1 b 509 54 475 14 504 32 b 486 111 503 66 496 85 b 459 179 477 134 468 157 b 541 426 513 264 541 346 b 508 545 541 471 530 511 b 551 595 522 562 536 578 b 526 647 551 610 543 627 b 475 676 510 667 493 676 b 425 602 462 656 445 631 b 420 604 423 603 422 604 b 416 606 419 605 418 605 b 326 637 393 625 363 637 b 239 597 297 637 268 624 b 198 676 222 629 206 659 z m 409 500 b 426 494 415 500 421 498 b 430 455 429 482 430 469 b 411 344 430 422 424 385 b 361 237 398 302 381 267 b 297 193 340 208 319 193 b 268 244 277 193 268 214 b 312 406 268 288 285 351 b 409 500 338 460 374 500 z "},"":{"ha":670,"x_min":0,"x_max":0,"o":"m 275 858 b 264 857 272 858 269 858 b 245 827 264 857 258 847 b 203 750 233 807 219 781 b 161 650 188 718 174 685 b 142 551 149 614 142 581 b 158 487 142 531 148 510 b 199 427 168 463 182 444 b 254 401 216 410 234 401 b 393 465 302 401 353 432 b 442 509 413 481 429 496 b 460 528 454 522 460 528 b 425 473 460 528 449 510 b 344 339 401 435 374 391 b 200 349 247 341 200 349 b 207 315 200 349 201 333 b 239 277 212 296 222 279 b 278 276 253 277 266 277 b 307 275 288 275 298 275 b 283 229 298 259 291 243 b 275 214 281 224 278 218 b 173 222 207 216 173 222 b 180 188 173 222 174 206 b 212 151 184 169 195 153 b 230 150 218 150 224 150 b 247 149 236 150 241 150 b 233 94 238 126 233 108 b 409 -1 233 -1 410 0 b 458 142 422 46 438 94 l 521 142 b 617 151 600 142 615 149 b 546 222 618 149 585 222 l 543 222 b 491 218 526 220 508 219 b 515 269 498 235 507 252 l 550 269 b 623 273 586 269 608 271 b 644 277 635 275 642 275 l 644 277 b 574 349 645 276 612 349 l 571 349 b 565 349 569 349 567 349 l 561 349 b 555 348 559 349 557 349 b 756 696 628 483 695 600 b 812 790 779 734 798 765 b 779 822 808 801 797 812 b 717 847 760 832 739 840 b 664 857 694 854 677 857 b 646 825 664 857 658 846 b 595 745 633 803 616 777 b 525 650 574 713 551 682 b 444 570 498 618 471 591 b 361 537 416 548 388 537 b 331 571 340 537 331 550 b 375 700 331 604 353 655 b 406 756 387 722 397 741 b 419 779 414 771 419 779 b 396 821 419 795 412 810 b 275 858 366 845 316 858 z "},"":{"ha":608,"x_min":0,"x_max":0,"o":"m 278 572 l 409 572 l 409 1135 l 278 1135 z m 278 -203 l 409 -203 l 409 360 l 278 360 z "},"":{"ha":814,"x_min":0,"x_max":0,"o":"m 678 857 b 507 836 625 857 567 850 b 336 781 446 822 389 804 b 207 706 283 759 240 734 b 156 624 173 678 156 651 b 174 545 156 600 162 573 b 156 497 162 529 156 513 b 164 425 156 477 159 454 b 187 342 169 397 177 369 b 284 245 208 288 241 245 b 383 264 313 245 346 252 b 491 303 420 276 456 289 b 605 338 542 323 583 338 b 606 338 606 338 606 338 b 620 328 615 338 620 335 b 589 286 620 319 610 304 b 512 229 569 267 543 248 b 412 178 480 209 447 192 b 317 156 378 163 346 156 b 195 191 205 156 195 192 b 214 124 195 191 200 161 b 338 -1 233 68 272 -1 b 464 22 374 -1 416 7 b 602 76 511 36 557 54 b 713 142 646 97 683 119 b 757 201 742 165 757 184 b 742 297 757 229 752 261 b 754 380 750 326 754 354 b 715 512 754 433 741 476 b 618 566 688 548 656 566 b 443 541 566 566 503 554 b 325 524 395 532 353 524 b 320 524 323 524 322 524 b 294 539 302 524 294 529 b 366 602 294 555 318 575 b 533 671 414 627 470 650 b 690 703 595 692 648 703 b 793 651 745 703 794 650 b 781 724 793 651 790 683 b 760 785 776 744 769 764 b 678 857 743 825 716 857 z m 585 471 b 620 454 607 470 620 466 b 614 439 620 450 618 445 b 443 414 560 436 503 428 b 325 397 395 406 353 397 b 320 397 323 397 322 397 b 294 412 302 397 294 402 b 300 426 294 416 296 421 b 435 448 338 429 383 437 b 585 471 494 460 550 471 z "},"":{"ha":380,"x_min":0,"x_max":0,"o":"m 338 995 b 261 940 303 991 277 972 b 256 918 258 932 256 925 b 273 876 256 903 262 889 b 327 848 288 857 306 848 b 348 852 334 848 341 849 b 404 924 377 865 401 892 b 348 994 401 957 378 985 b 338 995 345 995 341 995 z m 512 995 b 435 940 477 991 452 972 b 430 918 432 932 430 925 b 447 876 430 903 435 889 b 501 848 463 857 480 848 b 522 852 509 848 515 849 b 578 924 551 865 575 892 b 522 994 576 957 553 985 b 512 995 519 995 515 995 z "},"":{"ha":745,"x_min":0,"x_max":0,"o":"m 453 995 b 347 954 415 995 380 981 b 262 851 315 927 286 892 b 204 718 237 809 218 765 b 183 589 190 671 183 628 b 227 477 183 550 198 513 b 342 391 256 441 294 413 b 496 357 389 368 441 357 b 614 395 536 357 576 370 b 718 497 653 421 688 455 b 791 637 749 539 772 586 b 818 791 809 688 818 740 b 767 890 818 826 801 859 b 633 966 732 921 688 946 b 453 995 577 985 517 995 z m 571 899 b 647 885 593 899 619 895 b 720 845 675 876 699 862 b 751 785 741 828 751 808 b 675 555 751 709 722 625 b 492 437 628 485 564 437 b 424 448 469 437 447 441 b 342 553 378 463 342 496 b 408 783 342 629 367 715 b 571 899 449 852 506 899 z m 566 857 b 498 812 546 857 524 842 b 433 707 473 783 452 747 b 406 597 415 666 406 629 b 427 536 406 574 412 555 b 542 477 454 500 500 477 b 630 547 579 477 630 549 l 612 568 b 602 559 612 568 608 565 b 525 529 587 545 560 529 b 511 553 515 530 511 538 b 530 634 511 572 517 600 b 576 726 543 668 559 699 b 618 767 593 753 607 767 b 633 750 629 766 633 760 b 579 627 633 715 578 626 b 635 665 579 627 606 643 b 690 739 664 686 690 714 b 672 791 690 755 684 772 b 566 857 647 827 606 857 z "},"":{"ha":530,"x_min":0,"x_max":0,"o":"m 566 995 b 544 984 557 995 549 991 b 511 914 530 958 511 913 b 404 963 512 913 456 963 b 275 867 354 963 309 923 b 222 686 242 810 222 743 b 239 613 222 656 228 633 b 296 584 251 593 270 584 b 357 610 317 584 337 593 b 413 669 378 627 396 647 b 454 728 430 692 444 711 b 469 754 464 745 469 754 b 448 652 455 712 448 678 b 547 572 448 593 484 572 b 567 684 547 600 553 637 b 612 819 580 731 595 776 b 656 916 629 862 644 895 b 659 926 658 919 659 922 b 626 972 659 941 648 956 b 566 995 604 987 584 995 z m 432 871 b 475 842 460 871 475 842 b 439 792 475 842 459 819 b 380 742 420 766 396 742 b 357 766 363 742 357 752 b 370 810 357 779 361 793 b 432 871 385 842 411 871 z "},"":{"ha":747,"x_min":0,"x_max":0,"o":"m 638 651 b 490 470 600 588 551 528 b 319 319 429 412 372 361 b 374 186 332 271 351 227 b 448 87 398 146 423 113 b 661 -1 531 5 587 -1 l 702 -1 b 600 103 676 17 642 52 b 503 268 557 155 524 210 b 519 284 507 273 513 278 b 632 401 551 316 589 355 b 734 532 675 447 709 490 b 718 571 734 541 728 553 b 638 651 696 606 665 641 z m 370 651 b 68 367 267 538 166 443 b 180 87 93 269 130 176 b 342 -4 227 9 282 -4 b 387 -3 356 -4 371 -3 b 434 -1 402 -1 418 -1 b 329 134 395 27 361 73 b 252 315 297 196 271 256 b 466 532 304 366 375 439 b 450 571 466 541 460 553 b 412 621 439 588 426 605 b 370 651 397 636 383 646 z "},"":{"ha":681,"x_min":0,"x_max":0,"o":"m 81 372 b 107 306 81 372 91 341 b 173 229 123 271 146 237 b 227 224 186 225 204 224 b 359 233 264 224 308 227 b 507 254 411 239 460 247 b 481 166 490 220 481 190 b 549 90 481 133 513 106 b 616 64 584 73 616 64 b 604 136 608 90 604 113 b 627 252 604 180 616 220 b 635 279 630 262 633 271 l 572 372 b 445 362 541 368 498 365 b 281 358 391 359 336 358 b 81 372 197 358 120 361 z "},"":{"ha":745,"x_min":0,"x_max":0,"o":"m 507 996 b 378 955 460 996 418 982 b 273 852 338 928 302 893 b 202 720 242 810 219 766 b 176 589 185 673 176 629 b 217 478 176 551 190 513 b 330 391 244 443 281 414 b 495 357 378 369 433 357 b 614 396 536 357 575 370 b 718 498 652 422 687 456 b 790 638 748 540 772 587 b 817 793 808 690 817 741 b 784 868 817 819 806 844 b 701 933 762 892 734 913 b 598 979 667 952 633 967 b 507 996 563 990 532 996 z m 588 920 b 661 901 611 920 635 914 b 724 851 686 888 707 871 b 749 785 741 830 749 808 b 731 671 749 749 743 711 b 679 555 718 629 701 591 l 677 555 b 576 587 642 555 600 570 b 682 650 618 593 654 614 b 724 751 709 686 724 719 b 665 807 724 783 706 807 b 565 770 639 807 605 797 b 587 818 581 796 587 818 b 513 854 569 836 538 854 l 368 564 b 395 502 368 539 376 519 b 449 476 412 485 431 476 l 490 577 b 536 528 490 577 509 553 b 614 477 562 502 593 477 l 616 477 b 491 421 579 442 536 421 b 423 441 469 421 446 428 b 365 490 400 454 380 470 b 341 554 349 511 341 532 b 382 716 341 605 355 659 b 481 861 410 772 442 821 b 588 920 519 901 555 920 z m 614 741 b 616 741 615 741 616 741 b 618 741 617 741 618 741 b 633 727 628 738 633 733 b 513 636 633 708 593 675 b 549 689 513 636 528 661 b 614 741 570 716 595 741 z "},"":{"ha":435,"x_min":0,"x_max":0,"o":"m 237 996 b 258 944 237 996 245 971 b 310 883 271 916 288 889 b 352 879 320 880 334 879 b 469 888 384 879 423 882 b 596 907 515 895 557 901 b 673 922 635 913 660 919 l 623 996 b 524 988 599 992 566 990 b 397 985 482 986 439 985 b 237 996 330 985 269 987 z "},"":{"ha":341,"x_min":0,"x_max":0,"o":"m 383 996 b 280 945 335 995 302 974 b 211 808 232 904 211 853 b 241 724 211 775 221 747 b 321 688 260 700 287 688 l 322 688 b 451 745 372 690 415 709 b 504 876 486 781 504 824 b 383 996 504 966 419 996 z m 411 926 b 432 895 425 926 432 913 b 409 825 432 874 425 851 b 349 782 393 800 373 785 b 324 811 332 782 324 794 b 337 859 324 825 328 840 b 411 926 354 895 382 926 z "},"":{"ha":533,"x_min":0,"x_max":0,"o":"m 256 494 b 189 321 242 462 214 396 b 47 332 125 321 77 325 b 67 280 47 332 54 308 b 119 220 80 252 98 226 b 159 216 129 217 142 216 b 151 145 153 189 151 165 b 169 92 151 123 157 104 b 255 54 193 64 229 54 b 268 121 255 76 260 99 b 276 151 271 132 273 141 b 297 227 282 176 289 202 b 413 245 340 233 378 239 b 482 258 448 251 471 255 l 433 332 b 332 324 408 329 374 326 b 378 428 347 361 363 395 z m 0 -18 b 20 -70 0 -18 7 -42 b 72 -130 33 -97 51 -123 b 115 -134 82 -132 96 -134 b 233 -125 147 -134 186 -131 b 359 -106 278 -119 320 -113 b 435 -91 397 -100 422 -94 l 386 -18 b 285 -26 361 -21 328 -24 b 157 -28 242 -28 199 -28 b 0 -18 91 -28 31 -26 z "},"":{"ha":440,"x_min":0,"x_max":0,"o":"m 405 974 b 351 965 392 974 374 971 b 240 914 305 954 258 934 b 220 863 227 897 220 880 b 263 801 220 833 239 808 b 289 842 263 814 272 827 b 346 877 306 856 325 867 b 392 891 366 886 382 891 b 393 891 393 891 393 891 b 401 886 398 891 401 889 b 273 749 401 853 336 800 b 201 688 245 726 221 706 b 170 644 180 669 170 654 b 178 609 170 633 172 622 b 228 559 189 583 208 559 b 235 560 231 559 233 559 b 341 573 273 569 308 573 b 443 564 381 573 415 570 b 484 554 471 557 484 554 b 474 612 484 554 481 581 b 437 677 467 642 456 671 b 415 680 431 679 423 680 b 354 671 397 680 376 677 b 297 654 332 665 313 660 b 273 646 281 648 273 646 b 311 671 273 646 286 654 b 396 733 336 688 364 709 b 481 801 428 757 456 779 b 522 848 506 822 519 838 b 522 856 522 851 522 854 b 483 935 522 882 509 909 b 405 974 456 961 431 974 z "},"":{"ha":428,"x_min":0,"x_max":0,"o":"m 401 974 b 348 965 389 974 371 971 b 237 914 302 954 255 934 b 217 863 224 897 217 880 b 260 801 217 833 235 807 b 286 842 260 814 269 827 b 342 877 302 856 321 867 b 389 891 363 886 378 891 b 390 891 389 891 390 891 b 397 886 395 891 397 889 b 345 840 397 871 372 854 b 292 814 317 825 292 814 l 331 734 b 403 753 330 734 378 753 b 418 746 411 753 416 751 l 418 745 b 393 722 418 739 410 731 b 329 699 375 713 354 705 b 257 688 304 691 279 688 b 214 695 241 688 227 690 b 333 565 214 661 247 565 b 406 588 353 565 376 572 b 481 646 434 603 459 622 b 515 716 504 669 515 692 b 465 781 515 741 494 769 b 434 787 454 785 444 787 b 518 848 478 812 515 837 b 519 856 519 851 519 854 b 479 935 519 882 506 909 b 401 974 453 961 427 974 z "},"":{"ha":264,"x_min":0,"x_max":0,"o":"m 412 974 b 336 886 393 946 367 917 b 244 812 304 856 273 831 b 292 782 255 802 271 791 b 353 768 312 772 332 768 b 483 908 397 806 440 853 b 454 951 477 921 468 935 b 412 974 439 966 426 974 z "},"":{"ha":755,"x_min":0,"x_max":0,"o":"m 300 836 b 257 721 300 836 286 798 b 160 449 229 644 196 553 b 63 150 124 344 92 244 b 20 -47 35 55 20 -11 b 77 -172 20 -104 45 -144 b 181 -224 124 -212 182 -224 l 181 -208 b 291 282 181 -73 235 114 b 361 249 307 260 330 249 b 433 286 384 249 408 261 b 509 378 458 310 484 341 b 487 260 494 329 487 290 b 544 136 487 203 511 163 b 648 83 591 96 648 83 b 647 106 647 91 647 99 b 751 521 647 273 705 414 b 801 681 779 588 801 641 b 743 801 801 737 773 776 b 684 836 712 825 684 836 b 680 826 684 836 683 833 b 646 748 673 811 661 785 b 542 546 618 688 581 611 b 484 465 522 513 503 486 b 433 432 465 443 448 432 b 399 456 416 432 406 440 b 390 513 393 472 390 491 b 398 597 390 541 393 569 b 416 681 410 635 416 663 b 358 801 416 737 389 776 b 300 836 328 825 300 836 z "},"":{"ha":801,"x_min":0,"x_max":0,"o":"m 711 845 b 374 837 623 845 511 842 b 209 768 310 837 254 814 b 140 602 163 722 140 667 b 225 422 140 530 173 465 b 134 138 191 321 161 227 b 95 -47 108 49 95 -12 b 256 -224 95 -189 257 -224 l 256 -207 b 281 -7 256 -148 264 -81 b 343 216 298 66 319 140 b 416 428 368 291 392 361 b 469 585 437 488 455 540 b 490 681 484 629 490 661 b 460 772 490 719 478 749 b 635 775 511 774 570 775 b 539 509 611 711 579 622 b 429 176 499 395 462 285 b 378 -47 395 67 378 -7 b 538 -224 378 -189 540 -224 l 538 -208 b 564 -9 538 -149 547 -83 b 627 215 581 65 602 140 b 699 427 651 290 675 361 b 752 585 720 488 738 540 b 774 681 766 629 774 661 b 742 773 774 720 761 751 b 882 765 789 772 836 769 l 884 765 b 955 837 924 765 955 838 b 711 845 955 837 878 845 z "},"":{"ha":259,"x_min":0,"x_max":0,"o":"m 158 355 b 104 331 139 355 121 347 b 76 277 87 315 77 297 l 76 275 b 98 231 76 260 83 245 b 144 208 112 216 127 209 l 146 208 b 196 231 163 208 180 216 b 223 281 212 245 221 262 l 223 283 b 205 330 223 299 217 315 b 161 355 192 344 178 353 z "},"":{"ha":342,"x_min":0,"x_max":0,"o":"m 77 -22 b 155 -98 112 -47 138 -73 l 151 -98 b 96 -101 143 -98 125 -99 b 1 -115 67 -103 36 -107 b -95 -150 -34 -122 -66 -134 b -78 -196 -95 -160 -90 -176 b -38 -252 -66 -216 -53 -235 b -1 -277 -23 -269 -11 -277 b 168 -181 48 -231 113 -202 b 248 -131 214 -163 248 -148 b 200 -34 248 -109 224 -70 b 152 31 175 2 152 31 z "},"":{"ha":394,"x_min":0,"x_max":0,"o":"m 388 974 b 370 956 382 968 376 962 b 215 829 328 913 283 872 l 215 825 b 241 795 215 812 224 802 b 296 783 258 787 276 783 b 326 787 306 783 316 785 b 314 760 322 778 318 769 b 275 637 294 719 275 675 b 295 589 275 619 282 604 b 395 543 321 561 362 543 b 419 669 395 578 404 621 b 472 815 435 717 452 766 b 503 896 483 843 493 869 b 455 943 492 913 476 929 b 388 974 433 958 411 968 z "},"":{"ha":422,"x_min":0,"x_max":0,"o":"m 399 974 b 262 879 342 974 296 935 b 209 691 228 822 209 753 b 308 551 209 614 239 551 b 469 643 371 551 428 589 b 535 821 511 697 535 764 b 533 849 535 831 534 840 b 482 939 526 886 509 916 b 399 974 455 962 427 974 z m 452 876 b 472 843 466 876 472 863 b 460 781 472 825 468 805 b 427 719 451 758 440 736 b 387 692 414 701 401 692 b 362 728 370 692 362 707 b 376 790 362 746 367 766 b 409 850 385 813 395 833 b 452 876 422 867 437 876 z "},"":{"ha":772,"x_min":0,"x_max":0,"o":"m 113 630 b 157 549 129 602 144 575 b 261 378 183 492 218 435 b 293 342 273 363 283 351 b 172 223 254 313 214 273 b 81 98 131 172 100 131 b 98 58 81 89 87 76 b 177 -22 119 23 151 -12 b 304 159 209 35 251 95 b 489 316 357 224 419 276 b 362 475 429 352 394 412 b 299 577 344 512 323 546 b 243 614 284 594 265 607 b 113 630 197 629 146 630 z m 362 630 b 414 524 380 596 398 561 b 510 351 440 465 469 405 b 541 316 520 337 530 326 b 420 212 501 290 461 255 b 330 98 379 168 349 130 b 347 58 330 89 336 76 b 425 -22 368 23 400 -12 b 737 262 491 90 595 184 b 667 340 709 280 685 306 b 615 448 648 374 631 410 b 548 577 595 498 573 542 b 492 614 533 594 514 607 b 362 630 446 629 395 630 z "},"":{"ha":834,"x_min":0,"x_max":0,"o":"m 339 836 b 326 823 334 831 330 827 b 167 692 282 779 237 735 l 167 688 b 192 657 167 675 175 665 b 246 646 209 650 227 646 b 277 650 257 646 267 647 b 265 622 273 641 269 631 b 227 500 245 581 227 537 b 333 406 227 446 284 406 b 357 530 333 441 341 482 b 410 675 372 577 390 625 b 441 758 420 703 431 731 b 339 836 421 793 385 823 z m 720 836 b 563 621 691 793 639 722 b 336 311 489 523 414 419 b 156 36 258 202 197 111 b 205 -8 156 15 180 1 b 255 -21 231 -17 255 -21 b 371 205 272 38 311 113 b 577 492 431 298 500 393 b 795 755 654 590 727 677 b 720 836 795 754 770 836 z m 528 374 b 513 350 528 374 523 366 b 480 291 503 334 492 315 b 447 216 467 267 456 242 b 432 147 437 191 432 168 b 493 87 432 125 456 87 b 568 130 519 87 546 108 b 604 173 589 153 604 173 b 559 54 604 173 559 96 b 659 -21 559 -22 660 -20 b 746 245 659 63 702 152 b 784 325 759 271 772 298 b 688 366 775 339 713 363 b 675 340 688 366 684 357 b 642 282 666 323 654 304 b 601 224 628 260 614 241 b 566 198 587 207 576 198 b 553 210 557 199 553 203 b 591 285 553 227 571 257 b 628 334 610 312 628 334 b 578 362 614 346 597 355 b 528 374 558 368 541 372 z "},"":{"ha":823,"x_min":0,"x_max":0,"o":"m 326 836 b 308 819 320 830 314 825 b 153 692 267 776 221 734 l 153 688 b 179 657 153 675 162 665 b 234 646 196 650 214 646 b 264 649 244 646 254 647 b 252 623 260 640 256 631 b 214 499 233 581 214 537 b 320 406 214 446 271 406 b 344 531 320 441 328 483 b 397 677 359 579 377 628 b 427 758 408 705 418 732 b 326 836 406 795 373 821 z m 707 836 b 550 621 678 793 626 722 b 322 311 476 522 400 419 b 142 36 244 201 184 110 b 193 -9 142 14 167 0 b 241 -22 218 -18 241 -22 b 358 205 258 37 298 113 b 564 492 418 298 487 393 b 783 755 642 590 714 677 b 707 836 783 754 758 836 z m 675 399 b 590 380 656 399 627 393 b 511 338 553 368 526 354 b 491 288 498 321 491 304 b 534 225 491 258 510 233 b 559 266 534 238 543 252 b 616 302 576 280 595 292 b 663 316 637 311 652 316 b 671 311 669 316 671 314 b 543 174 671 278 606 224 b 471 113 515 151 492 131 b 440 68 450 94 440 79 b 449 34 440 58 443 47 b 500 -16 460 7 479 -16 b 507 -16 502 -16 505 -16 b 612 -3 543 -7 578 -3 b 714 -12 652 -3 686 -6 b 755 -22 742 -18 755 -22 b 745 37 755 -22 753 6 b 709 102 738 67 727 96 b 686 104 702 104 694 104 b 625 96 667 104 647 102 b 568 79 603 90 584 85 b 545 71 553 73 545 71 b 582 96 545 71 557 79 b 667 157 606 113 635 134 b 752 225 699 181 727 203 b 793 273 777 247 790 263 b 793 281 793 275 793 278 b 754 359 793 307 781 333 b 675 399 728 386 701 399 z "},"":{"ha":909,"x_min":0,"x_max":0,"o":"m 380 845 b 295 827 361 845 332 839 b 216 785 258 814 231 800 b 196 734 203 768 196 751 b 239 671 196 704 215 679 b 264 712 239 684 248 698 b 321 748 281 726 300 738 b 368 762 342 758 357 762 b 376 757 374 762 376 760 b 324 711 376 743 351 726 b 272 685 297 696 272 685 l 311 605 b 382 624 310 605 358 624 b 397 617 391 624 395 622 l 397 616 b 372 593 397 610 389 602 b 308 569 354 585 333 576 b 235 558 283 562 258 558 b 193 566 220 558 205 561 b 313 435 193 532 226 435 b 385 458 332 435 356 443 b 460 516 413 473 438 492 b 494 587 483 539 494 563 b 444 652 494 612 472 640 b 413 658 434 655 424 657 b 498 720 457 683 494 707 b 498 727 498 722 498 724 b 459 806 498 753 486 779 b 380 845 433 832 406 845 z m 814 844 b 658 629 786 802 734 730 b 430 319 584 531 508 427 b 250 44 352 210 292 119 b 300 0 250 23 275 9 b 349 -13 326 -9 349 -13 b 466 214 366 46 406 121 b 672 500 526 306 595 401 b 890 764 749 598 822 686 b 814 844 890 762 865 844 z m 623 382 b 608 358 623 382 618 374 b 575 299 598 342 587 323 b 542 224 562 275 551 250 b 527 155 532 199 527 176 b 588 96 527 133 551 96 b 662 138 613 96 640 116 b 698 181 684 161 698 181 b 654 62 699 181 654 104 b 754 -13 654 -14 755 -12 b 841 253 754 71 797 160 b 879 333 854 279 867 306 b 783 374 869 347 809 371 b 769 349 783 374 778 366 b 736 290 760 332 749 312 b 696 232 723 268 709 249 b 661 206 682 215 670 206 b 648 218 652 207 648 210 b 723 342 648 251 724 343 b 672 370 709 354 692 363 b 623 382 652 376 636 380 z "},"":{"ha":710,"x_min":0,"x_max":0,"o":"m 643 995 b 582 968 622 995 602 986 b 549 907 562 949 551 929 l 549 903 b 572 848 549 884 557 866 b 623 818 587 830 604 820 l 628 818 b 693 847 650 818 672 827 b 727 911 714 866 725 888 l 727 913 b 701 967 727 932 718 950 b 645 995 684 984 665 993 z m 529 825 b 537 800 529 825 532 817 b 545 728 542 783 545 758 b 484 647 545 713 524 687 b 338 511 442 607 394 562 b 208 391 293 471 250 431 b 103 283 165 351 131 315 b 61 210 75 251 61 227 b 102 116 61 179 75 148 b 201 34 130 83 163 56 b 312 0 240 12 277 0 b 412 15 338 0 372 5 b 532 56 452 25 492 39 b 633 117 572 73 606 94 b 674 191 661 140 674 164 b 606 313 674 243 642 285 b 538 357 570 342 538 357 b 564 307 538 357 564 338 b 555 275 564 298 561 287 b 481 227 547 264 523 248 b 344 164 440 204 394 184 b 227 134 294 144 255 134 b 224 134 226 134 224 134 b 197 153 206 134 197 140 b 230 208 197 165 208 182 b 426 395 273 256 345 323 b 556 515 471 435 515 475 b 659 621 597 553 631 589 b 700 693 686 652 700 676 b 640 780 700 731 674 759 b 529 825 590 810 528 825 z "},"":{"ha":1017,"x_min":0,"x_max":0,"o":"m 949 1436 b 908 1434 924 1436 908 1434 b 921 1407 908 1434 912 1425 b 954 1345 929 1390 940 1369 b 996 1280 966 1322 981 1300 b 1040 1239 1011 1259 1025 1246 b 1107 1227 1061 1232 1084 1227 b 1162 1232 1128 1227 1147 1229 b 1186 1236 1178 1235 1186 1236 b 1062 1396 1186 1236 1093 1341 b 1013 1429 1052 1413 1035 1423 b 949 1436 989 1434 968 1436 z m 912 1131 b 845 1067 898 1131 876 1109 b 741 904 814 1024 779 970 b 620 696 701 838 661 769 b 572 748 607 712 591 729 b 512 798 553 766 533 783 b 450 819 491 812 470 819 b 330 764 412 819 372 800 b 210 621 289 727 248 680 b 104 433 170 563 135 500 b 28 235 72 365 47 299 b 0 68 9 170 0 115 b 208 -68 0 -15 125 -68 l 208 -68 b 298 -12 232 -68 262 -50 b 413 135 333 26 372 75 b 540 335 454 195 496 262 b 648 354 574 341 610 347 b 739 370 680 359 711 365 b 703 142 718 280 703 201 b 789 -3 703 88 739 37 b 943 -68 838 -43 897 -68 b 909 84 919 -35 909 18 b 930 287 909 144 916 212 b 980 517 943 362 960 439 b 1037 736 1000 595 1019 668 b 1079 897 1054 798 1067 851 b 1096 993 1090 942 1096 974 b 1060 1049 1096 1008 1084 1027 b 979 1106 1036 1070 1008 1089 b 912 1131 950 1122 928 1131 z m 904 959 b 822 667 880 867 853 769 b 771 491 804 607 787 549 b 612 458 726 485 673 474 b 739 683 658 537 700 612 b 904 959 819 829 874 922 z m 582 662 b 599 660 587 662 593 661 b 590 644 595 654 593 649 b 486 467 553 580 518 521 b 470 440 481 458 475 449 b 460 424 467 435 463 429 b 414 420 442 421 427 420 b 376 432 394 420 382 424 b 377 412 376 430 376 423 b 408 336 379 387 387 356 b 305 180 374 281 340 229 b 198 60 270 130 234 91 b 194 89 195 68 194 77 b 218 204 194 118 202 157 b 283 354 234 252 256 302 b 373 503 309 406 340 456 b 477 617 406 549 441 587 b 580 662 513 647 547 662 z "},"":{"ha":1017,"x_min":0,"x_max":0,"o":"m 1135 1436 b 1058 1349 1115 1408 1089 1379 b 966 1274 1026 1318 996 1293 b 1014 1244 977 1263 993 1253 b 1075 1230 1034 1235 1055 1230 b 1205 1370 1120 1268 1163 1315 b 1177 1413 1200 1383 1191 1397 b 1135 1436 1162 1428 1149 1436 z m 912 1131 b 845 1067 898 1131 876 1109 b 741 904 814 1024 779 970 b 620 696 701 838 661 769 b 572 748 607 712 591 729 b 512 798 553 766 533 783 b 450 819 491 812 470 819 b 330 764 412 819 372 800 b 210 621 289 727 248 680 b 104 433 170 563 135 500 b 28 235 72 365 47 299 b 0 68 9 170 0 115 b 208 -68 0 -15 125 -68 l 208 -68 b 298 -12 232 -68 262 -50 b 413 135 333 26 372 75 b 540 335 454 195 496 262 b 648 354 574 341 610 347 b 739 370 680 359 711 365 b 703 142 718 280 703 201 b 789 -3 703 88 739 37 b 943 -68 838 -43 897 -68 b 909 84 919 -35 909 18 b 930 287 909 144 916 212 b 980 517 943 362 960 439 b 1037 736 1000 595 1019 668 b 1079 897 1054 798 1067 851 b 1096 993 1090 942 1096 974 b 1060 1049 1096 1008 1084 1027 b 979 1106 1036 1070 1008 1089 b 912 1131 950 1122 928 1131 z m 904 959 b 822 667 880 867 853 769 b 771 491 804 607 787 549 b 612 458 726 485 673 474 b 739 683 658 537 700 612 b 904 959 819 829 874 922 z m 582 662 b 599 660 587 662 593 661 b 590 644 595 654 593 649 b 486 467 553 580 518 521 b 470 440 481 458 475 449 b 460 424 467 435 463 429 b 414 420 442 421 427 420 b 376 432 394 420 382 424 b 377 412 376 430 376 423 b 408 336 379 387 387 356 b 305 180 374 281 340 229 b 198 60 270 130 234 91 b 194 89 195 68 194 77 b 218 204 194 118 202 157 b 283 354 234 252 256 302 b 373 503 309 406 340 456 b 477 617 406 549 441 587 b 580 662 513 647 547 662 z "},"":{"ha":1017,"x_min":0,"x_max":0,"o":"m 984 1436 b 941 1390 968 1420 954 1404 b 837 1295 910 1353 876 1321 b 885 1237 844 1277 860 1257 b 947 1206 910 1217 930 1206 b 1038 1331 983 1249 1013 1290 b 1047 1345 1041 1335 1044 1340 b 1095 1236 1046 1345 1073 1262 b 1140 1216 1109 1222 1124 1216 b 1211 1244 1176 1216 1211 1246 b 1094 1401 1211 1243 1145 1326 b 1034 1428 1085 1413 1060 1421 b 984 1436 1006 1433 984 1436 z m 912 1131 b 845 1067 898 1131 876 1109 b 741 904 814 1024 779 970 b 620 696 701 838 661 769 b 572 748 607 712 591 729 b 512 798 553 766 533 783 b 450 819 491 812 470 819 b 330 764 412 819 372 800 b 210 621 289 727 248 680 b 104 433 170 563 135 500 b 28 235 72 365 47 299 b 0 68 9 170 0 115 b 208 -68 0 -15 125 -68 l 208 -68 b 298 -12 232 -68 262 -50 b 413 135 333 26 372 75 b 540 335 454 195 496 262 b 648 354 574 341 610 347 b 739 370 680 359 711 365 b 703 142 718 280 703 201 b 789 -3 703 88 739 37 b 943 -68 838 -43 897 -68 b 909 84 919 -35 909 18 b 930 287 909 144 916 212 b 980 517 943 362 960 439 b 1037 736 1000 595 1019 668 b 1079 897 1054 798 1067 851 b 1096 993 1090 942 1096 974 b 1060 1049 1096 1008 1084 1027 b 979 1106 1036 1070 1008 1089 b 912 1131 950 1122 928 1131 z m 904 959 b 822 667 880 867 853 769 b 771 491 804 607 787 549 b 612 458 726 485 673 474 b 739 683 658 537 700 612 b 904 959 819 829 874 922 z m 582 662 b 599 660 587 662 593 661 b 590 644 595 654 593 649 b 486 467 553 580 518 521 b 470 440 481 458 475 449 b 460 424 467 435 463 429 b 414 420 442 421 427 420 b 376 432 394 420 382 424 b 377 412 376 430 376 423 b 408 336 379 387 387 356 b 305 180 374 281 340 229 b 198 60 270 130 234 91 b 194 89 195 68 194 77 b 218 204 194 118 202 157 b 283 354 234 252 256 302 b 373 503 309 406 340 456 b 477 617 406 549 441 587 b 580 662 513 647 547 662 z "},"":{"ha":1017,"x_min":0,"x_max":0,"o":"m 1011 1436 b 954 1413 991 1436 972 1428 b 904 1362 936 1398 919 1381 b 869 1312 889 1343 878 1326 b 855 1290 860 1297 855 1290 l 886 1258 b 954 1300 886 1257 916 1300 b 1025 1270 972 1300 998 1286 b 1120 1232 1058 1251 1093 1232 b 1180 1255 1141 1232 1162 1240 b 1229 1309 1198 1271 1215 1289 b 1262 1363 1243 1329 1254 1348 b 1274 1386 1270 1379 1274 1386 l 1249 1410 b 1175 1352 1249 1411 1218 1352 b 1106 1389 1156 1352 1133 1369 b 1011 1436 1076 1413 1044 1436 z m 912 1131 b 845 1067 898 1131 876 1109 b 741 904 814 1024 779 970 b 620 696 701 838 661 769 b 572 748 607 712 591 729 b 512 798 553 766 533 783 b 450 819 491 812 470 819 b 330 764 412 819 372 800 b 210 621 289 727 248 680 b 104 433 170 563 135 500 b 28 235 72 365 47 299 b 0 68 9 170 0 115 b 208 -68 0 -15 125 -68 l 208 -68 b 298 -12 232 -68 262 -50 b 413 135 333 26 372 75 b 540 335 454 195 496 262 b 648 354 574 341 610 347 b 739 370 680 359 711 365 b 703 142 718 280 703 201 b 789 -3 703 88 739 37 b 943 -68 838 -43 897 -68 b 909 84 919 -35 909 18 b 930 287 909 144 916 212 b 980 517 943 362 960 439 b 1037 736 1000 595 1019 668 b 1079 897 1054 798 1067 851 b 1096 993 1090 942 1096 974 b 1060 1049 1096 1008 1084 1027 b 979 1106 1036 1070 1008 1089 b 912 1131 950 1122 928 1131 z m 904 959 b 822 667 880 867 853 769 b 771 491 804 607 787 549 b 612 458 726 485 673 474 b 739 683 658 537 700 612 b 904 959 819 829 874 922 z m 582 662 b 599 660 587 662 593 661 b 590 644 595 654 593 649 b 486 467 553 580 518 521 b 470 440 481 458 475 449 b 460 424 467 435 463 429 b 414 420 442 421 427 420 b 376 432 394 420 382 424 b 377 412 376 430 376 423 b 408 336 379 387 387 356 b 305 180 374 281 340 229 b 198 60 270 130 234 91 b 194 89 195 68 194 77 b 218 204 194 118 202 157 b 283 354 234 252 256 302 b 373 503 309 406 340 456 b 477 617 406 549 441 587 b 580 662 513 647 547 662 z "},"":{"ha":1017,"x_min":0,"x_max":0,"o":"m 1015 1375 b 938 1320 981 1373 952 1350 b 932 1298 935 1313 932 1305 b 949 1257 932 1283 938 1270 b 1004 1228 965 1238 983 1228 b 1024 1233 1010 1228 1017 1230 b 1080 1304 1054 1246 1078 1272 b 1024 1374 1078 1337 1055 1366 b 1015 1375 1021 1375 1018 1375 z m 1189 1375 b 1112 1320 1156 1373 1126 1350 b 1107 1297 1109 1313 1107 1305 b 1124 1257 1107 1282 1112 1269 b 1177 1228 1139 1238 1157 1228 b 1198 1233 1185 1228 1192 1230 b 1254 1304 1228 1246 1252 1272 b 1198 1374 1252 1337 1229 1366 b 1197 1374 1198 1374 1198 1374 b 1189 1375 1194 1375 1192 1375 z m 912 1131 b 845 1067 898 1131 876 1109 b 741 904 814 1024 779 970 b 620 696 701 838 661 769 b 572 748 607 712 591 729 b 512 798 553 766 533 783 b 450 819 491 812 470 819 b 330 764 412 819 372 800 b 210 621 289 727 248 680 b 104 433 170 563 135 500 b 28 235 72 365 47 299 b 0 68 9 170 0 115 b 208 -68 0 -15 125 -68 l 208 -68 b 298 -12 232 -68 262 -50 b 413 135 333 26 372 75 b 540 335 454 195 496 262 b 648 354 574 341 610 347 b 739 370 680 359 711 365 b 703 142 718 280 703 201 b 789 -3 703 88 739 37 b 943 -68 838 -43 897 -68 b 909 84 919 -35 909 18 b 930 287 909 144 916 212 b 980 517 943 362 960 439 b 1037 736 1000 595 1019 668 b 1079 897 1054 798 1067 851 b 1096 993 1090 942 1096 974 b 1060 1049 1096 1008 1084 1027 b 979 1106 1036 1070 1008 1089 b 912 1131 950 1122 928 1131 z m 904 959 b 822 667 880 867 853 769 b 771 491 804 607 787 549 b 612 458 726 485 673 474 b 739 683 658 537 700 612 b 904 959 819 829 874 922 z m 582 662 b 599 660 587 662 593 661 b 590 644 595 654 593 649 b 486 467 553 580 518 521 b 470 440 481 458 475 449 b 460 424 467 435 463 429 b 414 420 442 421 427 420 b 376 432 394 420 382 424 b 377 412 376 430 376 423 b 408 336 379 387 387 356 b 305 180 374 281 340 229 b 198 60 270 130 234 91 b 194 89 195 68 194 77 b 218 204 194 118 202 157 b 283 354 234 252 256 302 b 373 503 309 406 340 456 b 477 617 406 549 441 587 b 580 662 513 647 547 662 z "},"":{"ha":1017,"x_min":0,"x_max":0,"o":"m 1116 1436 b 1034 1396 1077 1436 1050 1418 b 979 1287 996 1363 979 1323 b 1002 1221 979 1261 987 1239 b 1065 1192 1018 1202 1039 1192 l 1067 1192 b 1168 1237 1107 1194 1141 1208 b 1211 1341 1196 1265 1211 1300 b 1193 1398 1211 1365 1204 1384 b 1116 1436 1169 1425 1135 1436 z m 1120 1399 b 1147 1367 1139 1399 1147 1385 b 1124 1304 1147 1347 1139 1326 b 1060 1267 1108 1282 1086 1270 l 1057 1267 b 1030 1282 1039 1267 1032 1272 b 1040 1281 1032 1282 1036 1281 b 1082 1297 1054 1281 1074 1286 l 1082 1305 b 1084 1340 1082 1314 1082 1325 b 1120 1399 1087 1370 1097 1399 z m 912 1131 b 845 1067 898 1131 876 1109 b 741 904 814 1024 779 970 b 620 696 701 838 661 769 b 572 748 607 712 591 729 b 512 798 553 766 533 783 b 450 819 491 812 470 819 b 330 764 412 819 372 800 b 210 621 289 727 248 680 b 104 433 170 563 135 500 b 28 235 72 365 47 299 b 0 68 9 170 0 115 b 208 -68 0 -15 125 -68 l 208 -68 b 298 -12 232 -68 262 -50 b 413 135 333 26 372 75 b 540 335 454 195 496 262 b 648 354 574 341 610 347 b 739 370 680 359 711 365 b 703 142 718 280 703 201 b 789 -3 703 88 739 37 b 943 -68 838 -43 897 -68 b 909 84 919 -35 909 18 b 930 287 909 144 916 212 b 980 517 943 362 960 439 b 1037 736 1000 595 1019 668 b 1079 897 1054 798 1067 851 b 1096 993 1090 942 1096 974 b 1060 1049 1096 1008 1084 1027 b 979 1106 1036 1070 1008 1089 b 912 1131 950 1122 928 1131 z m 904 959 b 822 667 880 867 853 769 b 771 491 804 607 787 549 b 612 458 726 485 673 474 b 739 683 658 537 700 612 b 904 959 819 829 874 922 z m 582 662 b 599 660 587 662 593 661 b 590 644 595 654 593 649 b 486 467 553 580 518 521 b 470 440 481 458 475 449 b 460 424 467 435 463 429 b 414 420 442 421 427 420 b 376 432 394 420 382 424 b 377 412 376 430 376 423 b 408 336 379 387 387 356 b 305 180 374 281 340 229 b 198 60 270 130 234 91 b 194 89 195 68 194 77 b 218 204 194 118 202 157 b 283 354 234 252 256 302 b 373 503 309 406 340 456 b 477 617 406 549 441 587 b 580 662 513 647 547 662 z "},"":{"ha":1371,"x_min":0,"x_max":0,"o":"m 909 105 b 911 134 910 115 911 124 b 960 433 918 225 935 325 b 965 457 962 441 963 450 b 1105 471 1015 462 1062 467 b 1185 477 1148 475 1175 477 b 1270 446 1243 477 1264 455 b 1271 444 1270 445 1270 444 b 1272 443 1271 443 1271 443 l 1272 444 b 1267 459 1271 446 1270 451 b 1144 606 1257 502 1221 606 b 1022 588 1116 606 1075 600 l 996 583 b 1038 738 1010 636 1023 688 b 1079 897 1054 799 1067 852 b 1092 956 1085 920 1089 939 b 1181 966 1121 959 1151 962 b 1328 974 1230 971 1279 974 b 1405 957 1356 974 1381 968 b 1463 922 1429 945 1449 934 l 1485 905 l 1485 906 b 1480 927 1484 908 1482 916 l 1480 930 b 1430 1063 1474 963 1459 1015 b 1289 1148 1400 1111 1356 1148 b 1074 1114 1234 1148 1158 1132 b 995 1097 1047 1107 1021 1101 b 979 1106 989 1100 984 1103 b 912 1131 950 1122 928 1131 b 850 1074 899 1131 878 1112 b 805 1072 834 1072 819 1072 b 704 1092 764 1072 730 1078 b 717 1039 704 1083 708 1065 b 754 964 725 1013 737 987 b 768 949 758 958 763 954 b 741 904 759 935 749 920 b 620 696 701 838 661 769 b 572 748 607 712 591 729 b 512 798 553 766 533 783 b 450 819 490 812 470 819 b 330 764 412 819 372 800 b 210 621 289 727 248 680 b 104 433 170 563 135 500 b 28 235 72 365 47 299 b 0 68 9 170 0 115 b 208 -68 0 -15 124 -68 b 298 -12 233 -67 262 -48 b 413 135 333 25 372 74 b 540 335 454 195 496 262 b 658 355 577 341 616 348 b 739 370 687 361 714 366 b 703 142 718 280 703 201 b 789 -3 703 88 739 37 b 943 -68 838 -43 897 -68 b 923 -23 935 -55 928 -40 b 991 -13 941 -21 964 -18 b 1142 31 1041 -4 1091 10 b 1265 113 1193 50 1234 78 b 1301 281 1295 151 1301 237 l 1301 303 l 1300 302 b 1282 290 1298 301 1292 297 l 1282 289 l 1281 289 l 1280 288 l 1280 288 l 1280 288 l 1279 288 b 1273 283 1277 286 1275 285 l 1272 282 l 1272 282 b 1267 279 1270 281 1269 280 l 1267 278 l 1266 278 l 1266 277 l 1265 277 b 1264 277 1265 277 1265 277 l 1264 276 l 1263 276 l 1263 275 l 1263 275 l 1262 275 l 1261 275 b 1261 274 1261 274 1261 274 l 1259 273 b 1156 203 1232 252 1197 229 b 1029 133 1114 176 1072 153 b 919 102 986 113 949 102 b 909 105 916 102 912 103 z m 897 932 b 822 667 875 848 850 760 b 771 491 804 607 787 549 b 612 458 726 485 673 474 b 739 683 658 537 700 612 b 884 931 804 801 852 884 b 897 932 888 931 892 931 z m 582 662 b 599 660 588 662 593 661 b 486 467 559 589 521 525 b 460 424 477 453 469 439 b 416 419 443 420 428 419 b 376 432 395 419 382 423 l 376 429 b 376 421 376 427 376 425 b 408 336 376 401 384 359 b 305 180 374 281 340 229 b 198 60 270 130 234 91 b 195 90 196 69 195 79 b 217 201 195 118 202 155 b 309 404 238 265 269 332 b 442 585 349 474 394 534 b 582 662 490 635 536 661 z "},"":{"ha":719,"x_min":0,"x_max":0,"o":"m 648 1133 b 463 1072 586 1133 525 1113 b 289 911 401 1031 344 978 b 143 690 234 844 186 771 b 43 444 100 610 67 528 b 6 213 18 361 6 284 b 249 -66 6 52 75 -66 b 277 -64 258 -66 268 -65 b 307 -100 290 -77 300 -89 l 303 -100 b 248 -103 295 -100 277 -101 b 153 -117 220 -105 188 -109 b 58 -151 119 -124 87 -136 b 75 -198 58 -161 64 -177 b 115 -254 87 -218 100 -237 b 152 -279 130 -271 142 -279 b 321 -182 201 -233 267 -203 b 400 -133 367 -164 400 -150 b 356 -41 400 -112 380 -75 b 497 57 406 -18 453 15 b 613 189 541 98 580 142 b 686 313 646 235 671 276 l 661 332 b 639 308 654 326 647 317 b 499 173 606 271 557 219 b 304 92 441 127 373 92 b 224 126 270 92 243 103 b 196 212 205 149 196 178 l 196 217 b 281 513 201 304 229 403 b 479 447 326 489 418 447 b 568 497 498 447 528 464 b 688 622 606 530 646 572 b 793 774 728 671 764 722 b 836 907 822 826 836 870 b 805 1012 836 942 826 977 b 730 1099 784 1046 760 1076 b 648 1133 701 1122 673 1133 z m 701 1015 b 717 998 711 1014 717 1008 b 643 856 717 971 692 924 b 471 659 593 787 536 722 b 290 532 405 595 345 553 b 427 765 330 614 376 692 b 578 945 478 838 529 898 b 701 1015 628 991 669 1015 z "},"":{"ha":653,"x_min":0,"x_max":0,"o":"m 288 1436 b 247 1433 265 1436 247 1433 b 260 1407 247 1433 251 1424 b 292 1345 268 1389 279 1369 b 335 1280 305 1321 319 1299 b 378 1239 350 1259 364 1246 b 448 1227 399 1230 424 1227 b 502 1232 468 1227 486 1229 b 526 1236 517 1234 526 1236 b 401 1395 526 1236 432 1339 b 351 1428 391 1412 374 1423 b 288 1436 328 1433 307 1436 z m 559 1130 b 345 1095 506 1130 429 1114 b 202 1067 297 1085 250 1076 b 73 1054 155 1058 111 1054 b -25 1074 33 1054 1 1061 b 3 982 -25 1061 -16 1021 b 86 909 22 943 50 909 b 309 930 151 909 227 919 b 599 956 403 943 502 956 b 677 939 627 956 653 950 b 734 905 701 927 720 916 b 756 887 749 893 756 887 b 735 972 756 887 751 924 b 701 1044 727 996 715 1021 b 559 1130 671 1093 627 1130 z m 280 903 b 233 789 280 903 264 865 b 127 525 201 713 166 625 b 50 516 96 519 71 516 b 9 528 29 516 16 520 b 18 473 9 526 10 500 b 77 420 26 445 44 420 l 88 420 b 26 233 63 351 43 290 b 1 109 9 177 1 135 b 162 -69 1 -34 163 -69 b 267 -57 183 -69 218 -65 b 418 -14 317 -48 367 -34 b 541 69 469 7 509 35 b 570 159 556 92 566 121 b 576 243 574 196 576 224 l 576 260 b 534 229 576 260 562 250 b 431 159 507 209 472 186 b 304 90 389 133 347 110 b 195 59 262 69 225 59 b 175 76 186 59 180 64 b 288 438 197 195 242 322 b 323 442 300 439 311 441 b 505 459 408 454 469 459 b 591 425 578 459 591 424 b 574 482 591 425 586 450 b 463 589 555 530 522 589 b 341 570 435 589 394 583 b 397 747 374 651 397 714 b 338 867 397 803 369 842 b 280 903 308 891 280 903 z "},"":{"ha":653,"x_min":0,"x_max":0,"o":"m 467 1436 b 391 1348 448 1408 422 1379 b 299 1274 359 1318 328 1293 b 347 1244 310 1263 326 1253 b 408 1230 367 1234 387 1230 b 538 1370 452 1268 496 1315 b 509 1412 532 1382 523 1396 b 467 1436 494 1428 481 1436 z m 559 1130 b 345 1095 506 1130 429 1114 b 202 1067 297 1085 250 1076 b 73 1054 155 1058 111 1054 b -25 1074 33 1054 1 1061 b 3 982 -25 1061 -16 1021 b 86 909 22 943 50 909 b 309 930 151 909 227 919 b 599 956 403 943 502 956 b 677 939 627 956 653 950 b 734 905 701 927 720 916 b 756 887 749 893 756 887 b 735 972 756 887 751 924 b 701 1044 727 996 715 1021 b 559 1130 671 1093 627 1130 z m 280 903 b 233 789 280 903 264 865 b 127 525 201 713 166 625 b 50 516 96 519 71 516 b 9 528 29 516 16 520 b 18 473 9 526 10 500 b 77 420 26 445 44 420 l 88 420 b 26 233 63 351 43 290 b 1 109 9 177 1 135 b 162 -69 1 -34 163 -69 b 267 -57 183 -69 218 -65 b 418 -14 317 -48 367 -34 b 541 69 469 7 509 35 b 570 159 556 92 566 121 b 576 243 574 196 576 224 l 576 260 b 534 229 576 260 562 250 b 431 159 507 209 472 186 b 304 90 389 133 347 110 b 195 59 262 69 225 59 b 175 76 186 59 180 64 b 288 438 197 195 242 322 b 323 442 300 439 311 441 b 505 459 408 454 469 459 b 591 425 578 459 591 424 b 574 482 591 425 586 450 b 463 589 555 530 522 589 b 341 570 435 589 394 583 b 397 747 374 651 397 714 b 338 867 397 803 369 842 b 280 903 308 891 280 903 z "},"":{"ha":653,"x_min":0,"x_max":0,"o":"m 388 1436 b 345 1390 372 1420 358 1404 b 241 1295 314 1353 279 1321 b 289 1237 248 1277 264 1257 b 351 1206 314 1217 334 1206 b 450 1345 391 1253 424 1299 b 499 1236 450 1345 477 1262 b 545 1216 513 1222 529 1216 b 614 1244 579 1216 614 1245 b 498 1401 614 1243 549 1326 b 437 1428 489 1413 464 1421 b 388 1436 410 1433 388 1436 z m 559 1130 b 345 1095 506 1130 429 1114 b 202 1067 297 1085 250 1076 b 73 1054 155 1058 111 1054 b -25 1074 33 1054 1 1061 b 3 982 -25 1061 -16 1021 b 86 909 22 943 50 909 b 309 930 151 909 227 919 b 599 956 403 943 502 956 b 677 939 627 956 653 950 b 734 905 701 927 720 916 b 756 887 749 893 756 887 b 735 972 756 887 751 924 b 701 1044 727 996 715 1021 b 559 1130 671 1093 627 1130 z m 280 903 b 233 789 280 903 264 865 b 127 525 201 713 166 625 b 50 516 96 519 71 516 b 9 528 29 516 16 520 b 18 473 9 526 10 500 b 77 420 26 445 44 420 l 88 420 b 26 233 63 351 43 290 b 1 109 9 177 1 135 b 162 -69 1 -34 163 -69 b 267 -57 183 -69 218 -65 b 418 -14 317 -48 367 -34 b 541 69 469 7 509 35 b 570 159 556 92 566 121 b 576 243 574 196 576 224 l 576 260 b 534 229 576 260 562 250 b 431 159 507 209 472 186 b 304 90 389 133 347 110 b 195 59 262 69 225 59 b 175 76 186 59 180 64 b 288 438 197 195 242 322 b 323 442 300 439 311 441 b 505 459 408 454 469 459 b 591 425 578 459 591 424 b 574 482 591 425 586 450 b 463 589 555 530 522 589 b 341 570 435 589 394 583 b 397 747 374 651 397 714 b 338 867 397 803 369 842 b 280 903 308 891 280 903 z "},"":{"ha":653,"x_min":0,"x_max":0,"o":"m 390 1374 b 313 1320 357 1372 328 1350 b 308 1297 310 1312 308 1305 b 325 1255 308 1282 313 1268 b 379 1227 340 1237 358 1227 b 400 1232 387 1227 393 1229 b 456 1303 429 1244 453 1271 b 400 1373 454 1336 431 1364 b 390 1374 397 1374 393 1374 z m 564 1374 b 488 1320 531 1372 502 1350 b 482 1297 484 1312 482 1305 b 499 1255 482 1282 488 1268 b 553 1227 515 1237 532 1227 b 574 1232 561 1227 568 1229 b 630 1303 604 1244 627 1271 b 574 1373 628 1336 606 1364 b 564 1374 571 1374 568 1374 z m 559 1130 b 345 1095 506 1130 429 1114 b 202 1067 297 1085 250 1076 b 73 1054 155 1058 111 1054 b -25 1074 33 1054 1 1061 b 3 982 -25 1061 -16 1021 b 86 909 22 943 50 909 b 309 930 151 909 227 919 b 599 956 403 943 502 956 b 677 939 627 956 653 950 b 734 905 701 927 720 916 b 756 887 749 893 756 887 b 735 972 756 887 751 924 b 701 1044 727 996 715 1021 b 559 1130 671 1093 627 1130 z m 280 903 b 233 789 280 903 264 865 b 127 525 201 713 166 625 b 50 516 96 519 71 516 b 9 528 29 516 16 520 b 18 473 9 526 10 500 b 77 420 26 445 44 420 l 88 420 b 26 233 63 351 43 290 b 1 109 9 177 1 135 b 162 -69 1 -34 163 -69 b 267 -57 183 -69 218 -65 b 418 -14 317 -48 367 -34 b 541 69 469 7 509 35 b 570 159 556 92 566 121 b 576 243 574 196 576 224 l 576 260 b 534 229 576 260 562 250 b 431 159 507 209 472 186 b 304 90 389 133 347 110 b 195 59 262 69 225 59 b 175 76 186 59 180 64 b 288 438 197 195 242 322 b 323 442 300 439 311 441 b 505 459 408 454 469 459 b 591 425 578 459 591 424 b 574 482 591 425 586 450 b 463 589 555 530 522 589 b 341 570 435 589 394 583 b 397 747 374 651 397 714 b 338 867 397 803 369 842 b 280 903 308 891 280 903 z "},"":{"ha":501,"x_min":0,"x_max":0,"o":"m 465 1436 b 424 1434 441 1436 424 1434 b 437 1407 424 1434 428 1425 b 469 1345 445 1390 456 1369 b 512 1280 482 1322 496 1300 b 555 1240 527 1260 541 1246 b 623 1228 577 1232 600 1228 b 678 1233 644 1228 663 1230 b 702 1237 694 1236 702 1237 b 578 1396 703 1236 608 1340 b 531 1428 568 1412 552 1423 b 470 1436 509 1434 489 1436 z m 590 1131 b 506 1118 564 1131 536 1126 l 472 1109 b 452 1103 465 1107 458 1105 b 326 1078 408 1089 363 1078 b 284 1084 311 1078 297 1080 b 307 1019 284 1084 291 1053 b 388 954 323 985 349 954 b 399 954 391 954 395 954 b 410 956 402 955 406 956 b 285 642 372 865 330 760 b 165 313 239 525 199 415 b 113 109 130 212 113 144 b 132 31 113 78 119 52 b 43 16 100 20 70 16 b 1 22 28 16 14 18 b 24 -43 1 22 8 -9 b 105 -109 41 -77 67 -109 b 116 -108 109 -109 113 -109 b 243 -81 163 -100 205 -91 b 382 -57 296 -68 342 -57 b 447 -68 405 -57 427 -61 b 438 -47 447 -68 444 -62 b 412 0 432 -33 423 -18 b 368 47 400 18 385 33 b 307 68 351 62 330 68 b 288 68 300 68 294 68 b 376 370 307 161 336 261 b 494 677 416 477 455 581 b 568 865 524 750 549 812 b 597 975 588 918 597 955 b 595 997 597 982 597 989 b 665 1004 620 1002 643 1004 b 730 993 688 1004 709 1000 b 694 1062 730 993 718 1026 b 590 1131 671 1097 636 1131 z "},"":{"ha":501,"x_min":0,"x_max":0,"o":"m 635 1436 b 557 1350 614 1409 589 1380 b 467 1275 526 1319 496 1294 b 513 1245 477 1264 493 1254 b 575 1231 534 1236 554 1231 b 705 1371 619 1269 663 1316 b 676 1413 700 1383 690 1398 b 635 1436 662 1429 648 1436 z m 590 1131 b 506 1118 564 1131 536 1126 l 472 1109 b 452 1103 465 1107 458 1105 b 326 1078 408 1089 363 1078 b 284 1084 311 1078 297 1080 b 307 1019 284 1084 291 1053 b 388 954 323 985 349 954 b 399 954 391 954 395 954 b 410 956 402 955 406 956 b 285 642 372 865 330 760 b 165 313 239 525 199 415 b 113 109 130 212 113 144 b 132 31 113 78 119 52 b 43 16 100 20 70 16 b 1 22 28 16 14 18 b 24 -43 1 22 8 -9 b 105 -109 41 -77 67 -109 b 116 -108 109 -109 113 -109 b 243 -81 163 -100 205 -91 b 382 -57 296 -68 342 -57 b 447 -68 405 -57 427 -61 b 438 -47 447 -68 444 -62 b 412 0 432 -33 423 -18 b 368 47 400 18 385 33 b 307 68 351 62 330 68 b 288 68 300 68 294 68 b 376 370 307 161 336 261 b 494 677 416 477 455 581 b 568 865 524 750 549 812 b 597 975 588 918 597 955 b 595 997 597 982 597 989 b 665 1004 620 1002 643 1004 b 730 993 688 1004 709 1000 b 694 1062 730 993 718 1026 b 590 1131 671 1097 636 1131 z "},"":{"ha":501,"x_min":0,"x_max":0,"o":"m 515 1436 b 472 1390 499 1419 485 1404 b 368 1296 441 1353 406 1322 b 416 1238 375 1277 391 1257 b 479 1207 441 1217 462 1207 b 568 1330 513 1249 543 1290 b 578 1345 572 1335 574 1340 b 627 1236 578 1345 604 1262 b 671 1217 640 1222 656 1217 b 741 1244 706 1217 742 1245 b 625 1402 742 1243 676 1327 b 564 1428 616 1413 591 1422 b 515 1436 537 1433 515 1436 z m 590 1131 b 506 1118 564 1131 536 1126 l 472 1109 b 452 1103 465 1107 458 1105 b 326 1078 408 1089 363 1078 b 284 1084 311 1078 297 1080 b 307 1019 284 1084 291 1053 b 388 954 323 985 349 954 b 399 954 391 954 395 954 b 410 956 402 955 406 956 b 285 642 372 865 330 760 b 165 313 239 525 199 415 b 113 109 130 212 113 144 b 132 31 113 78 119 52 b 43 16 100 20 70 16 b 1 22 28 16 14 18 b 24 -43 1 22 8 -9 b 105 -109 41 -77 67 -109 b 116 -108 109 -109 113 -109 b 243 -81 163 -100 205 -91 b 382 -57 296 -68 342 -57 b 447 -68 405 -57 427 -61 b 438 -47 447 -68 444 -62 b 412 0 432 -33 423 -18 b 368 47 400 18 385 33 b 307 68 351 62 330 68 b 288 68 300 68 294 68 b 376 370 307 161 336 261 b 494 677 416 477 455 581 b 568 865 524 750 549 812 b 597 975 588 918 597 955 b 595 997 597 982 597 989 b 665 1004 620 1002 643 1004 b 730 993 688 1004 709 1000 b 694 1062 730 993 718 1026 b 590 1131 671 1097 636 1131 z "},"":{"ha":501,"x_min":0,"x_max":0,"o":"m 516 1375 b 439 1321 483 1373 454 1351 b 434 1298 436 1314 434 1305 b 450 1257 434 1283 439 1270 b 505 1229 466 1238 484 1229 b 526 1234 512 1229 519 1230 b 581 1305 555 1245 579 1272 b 526 1375 579 1337 556 1366 b 516 1375 522 1375 519 1375 z m 690 1375 b 613 1321 656 1373 627 1351 b 608 1299 610 1314 608 1306 b 625 1257 608 1283 614 1270 b 679 1229 640 1238 658 1229 b 700 1234 686 1229 693 1230 b 755 1305 730 1245 753 1272 b 700 1375 753 1337 730 1366 b 690 1375 696 1375 693 1375 z m 590 1131 b 506 1118 564 1131 536 1126 l 472 1109 b 452 1103 465 1107 458 1105 b 326 1078 408 1089 363 1078 b 284 1084 311 1078 297 1080 b 307 1019 284 1084 291 1053 b 388 954 323 985 349 954 b 399 954 391 954 395 954 b 410 956 402 955 406 956 b 285 642 372 865 330 760 b 165 313 239 525 199 415 b 113 109 130 212 113 144 b 132 31 113 78 119 52 b 43 16 100 20 70 16 b 1 22 28 16 14 18 b 24 -43 1 22 8 -9 b 105 -109 41 -77 67 -109 b 116 -108 109 -109 113 -109 b 243 -81 163 -100 205 -91 b 382 -57 296 -68 342 -57 b 447 -68 405 -57 427 -61 b 438 -47 447 -68 444 -62 b 412 0 432 -33 423 -18 b 368 47 400 18 385 33 b 307 68 351 62 330 68 b 288 68 300 68 294 68 b 376 370 307 161 336 261 b 494 677 416 477 455 581 b 568 865 524 750 549 812 b 597 975 588 918 597 955 b 595 997 597 982 597 989 b 665 1004 620 1002 643 1004 b 730 993 688 1004 709 1000 b 694 1062 730 993 718 1026 b 590 1131 671 1097 636 1131 z "},"":{"ha":924,"x_min":0,"x_max":0,"o":"m 248 471 b 138 481 199 472 162 475 l 138 481 l 138 480 b 143 466 139 478 140 473 b 210 369 154 435 178 380 b 213 368 210 369 212 369 b 180 212 191 298 180 247 b 234 90 180 157 203 117 b 172 85 214 87 193 85 b 13 152 92 85 35 128 b 1 163 7 157 3 161 l 1 163 l 1 163 b 9 137 1 160 5 151 l 9 136 l 10 136 l 10 134 b 11 133 11 134 11 134 l 11 132 l 12 132 l 12 131 b 12 129 12 130 12 130 b 55 49 20 105 34 79 b 142 -31 75 19 104 -7 b 286 -68 179 -54 227 -66 b 463 -22 345 -68 404 -53 b 777 268 579 39 688 145 b 895 454 822 330 861 391 b 972 631 928 517 954 576 b 1000 768 990 686 1000 732 b 876 1031 1000 878 951 968 b 612 1131 801 1095 706 1131 b 444 1102 562 1131 506 1121 b 260 1022 380 1083 319 1057 b 106 897 201 987 149 945 b 22 735 63 849 35 795 b 19 702 20 724 19 713 b 34 633 19 677 24 654 b 93 557 48 602 68 576 b 165 528 118 538 142 528 b 294 831 165 644 217 749 b 422 935 333 872 375 907 b 652 1011 514 992 594 1011 b 688 1008 664 1011 676 1010 b 817 841 764 997 817 944 b 753 592 817 771 795 688 b 584 320 711 496 655 405 b 344 125 513 235 433 170 b 395 349 353 203 370 277 b 405 379 398 359 401 369 b 475 389 429 382 452 386 b 573 408 524 397 557 404 l 524 481 b 441 475 502 479 475 477 b 471 545 451 498 460 522 b 537 747 508 631 535 701 b 519 819 536 775 531 800 b 439 895 497 859 463 883 b 422 902 430 899 425 901 b 422 903 422 902 422 902 l 421 903 l 421 902 l 420 901 b 413 883 420 899 417 893 b 412 882 412 883 412 883 b 412 881 412 882 412 882 l 412 880 l 411 880 l 411 878 l 410 878 b 409 875 410 878 410 876 l 409 874 b 408 873 409 873 409 873 b 408 872 408 873 408 873 l 408 871 b 407 869 407 871 407 869 b 406 867 406 868 406 867 l 406 866 l 405 865 l 405 864 b 404 863 404 864 404 864 b 404 862 404 863 404 863 l 404 861 l 403 861 l 403 859 l 402 859 l 402 858 l 401 858 l 401 857 b 401 855 401 856 401 856 l 401 854 l 400 854 l 400 853 b 399 852 399 853 399 853 b 399 850 399 852 399 850 l 398 850 l 398 848 b 397 848 397 848 397 848 l 396 844 b 394 840 395 842 395 841 b 393 838 394 839 394 839 b 391 834 393 837 392 836 l 391 833 b 389 829 391 831 390 830 l 389 828 b 389 827 389 828 389 828 b 387 824 388 827 388 825 b 387 822 387 823 387 823 b 386 821 386 821 386 821 l 386 820 l 385 820 l 385 819 b 385 818 385 819 385 819 l 385 817 b 300 612 359 760 332 691 b 248 471 281 564 264 517 z "},"":{"ha":829,"x_min":0,"x_max":0,"o":"m 690 1436 b 633 1414 671 1436 652 1428 b 547 1312 595 1384 564 1341 l 534 1290 l 565 1259 l 570 1265 b 633 1300 581 1277 604 1300 b 704 1270 650 1300 676 1286 b 800 1232 736 1251 770 1232 b 859 1255 821 1232 841 1240 b 941 1363 896 1287 924 1331 l 952 1387 l 927 1410 l 922 1401 b 854 1352 913 1385 886 1352 b 785 1389 835 1352 811 1369 b 690 1436 755 1413 722 1436 z m 368 1130 b 313 994 368 1130 350 1084 b 184 673 275 903 233 796 b 56 326 136 551 94 435 b 0 109 19 217 0 145 b 57 -16 0 52 24 12 b 161 -68 104 -56 161 -68 b 394 329 226 67 304 199 b 670 694 484 458 576 580 b 536 335 621 568 576 448 b 477 109 497 222 477 146 b 534 -16 477 52 502 12 b 638 -68 581 -56 639 -68 l 638 -56 b 673 161 638 5 650 77 b 760 422 697 245 726 332 b 859 677 793 512 826 597 b 932 865 888 750 913 812 b 962 975 952 918 962 955 b 904 1095 962 1031 934 1069 b 846 1130 873 1119 846 1130 b 537 739 752 1027 649 897 b 222 248 425 581 320 417 b 382 678 272 397 325 541 b 455 866 411 751 435 813 b 484 975 475 919 484 955 b 427 1095 484 1031 456 1069 b 368 1130 396 1119 368 1130 z "},"":{"ha":867,"x_min":0,"x_max":0,"o":"m 572 1436 b 532 1434 550 1436 532 1434 b 545 1407 532 1434 536 1425 b 577 1345 553 1390 564 1369 b 620 1280 590 1322 604 1300 b 663 1240 635 1260 649 1246 b 731 1228 685 1232 707 1228 b 787 1233 752 1228 770 1230 b 810 1237 802 1236 810 1237 b 686 1396 811 1236 717 1340 b 636 1429 675 1413 659 1423 b 572 1436 614 1434 592 1436 z m 679 1131 b 447 1041 610 1131 533 1101 b 219 899 361 1019 286 971 b 60 639 152 826 99 739 b 2 338 22 538 2 438 b 90 18 2 202 31 95 b 326 -98 148 -59 227 -98 b 472 -43 366 -98 414 -79 b 640 104 529 -7 585 42 b 775 316 694 165 739 237 b 903 800 859 481 901 642 b 872 966 903 861 892 916 b 791 1086 852 1015 825 1055 b 679 1131 757 1116 720 1131 z m 670 1015 b 747 806 722 994 747 914 b 720 593 747 742 738 671 b 642 362 703 515 676 438 b 511 155 606 286 563 217 b 348 65 446 95 392 65 b 176 307 224 65 176 168 b 177 333 176 316 176 324 b 285 222 206 265 249 222 b 283 270 284 238 283 254 b 319 538 283 363 296 452 b 413 768 343 623 374 700 b 538 936 451 837 492 892 b 670 1015 583 979 627 1005 z "},"":{"ha":867,"x_min":0,"x_max":0,"o":"m 752 1436 b 675 1349 732 1409 706 1379 b 584 1275 643 1318 613 1293 b 631 1244 595 1264 610 1254 b 692 1230 651 1235 671 1230 b 822 1371 736 1269 780 1316 b 793 1413 817 1383 808 1398 b 752 1436 779 1429 766 1436 z m 679 1131 b 447 1041 610 1131 533 1101 b 219 899 361 1019 286 971 b 60 639 152 826 99 739 b 2 338 22 538 2 438 b 90 18 2 202 31 95 b 326 -98 148 -59 227 -98 b 472 -43 366 -98 414 -79 b 640 104 529 -7 585 42 b 775 316 694 165 739 237 b 903 800 859 481 901 642 b 872 966 903 861 892 916 b 791 1086 852 1015 825 1055 b 679 1131 757 1116 720 1131 z m 670 1015 b 747 806 722 994 747 914 b 720 593 747 742 738 671 b 642 362 703 515 676 438 b 511 155 606 286 563 217 b 348 65 446 95 392 65 b 176 307 224 65 176 168 b 177 333 176 316 176 324 b 285 222 206 265 249 222 b 283 270 284 238 283 254 b 319 538 283 363 296 452 b 413 768 343 623 374 700 b 538 936 451 837 492 892 b 670 1015 583 979 627 1005 z "},"":{"ha":867,"x_min":0,"x_max":0,"o":"m 660 1436 b 617 1391 644 1421 630 1405 b 513 1296 586 1354 551 1322 b 561 1238 519 1278 536 1258 b 623 1207 586 1217 606 1207 b 722 1345 663 1254 696 1300 b 771 1237 722 1345 749 1263 b 817 1217 785 1223 801 1217 b 886 1244 851 1217 886 1246 b 770 1402 886 1244 821 1327 b 709 1428 761 1413 736 1422 b 660 1436 682 1434 660 1436 z m 679 1131 b 447 1041 610 1131 533 1101 b 219 899 361 1019 286 971 b 60 639 152 826 99 739 b 2 338 22 538 2 438 b 90 18 2 202 31 95 b 326 -98 148 -59 227 -98 b 472 -43 366 -98 414 -79 b 640 104 529 -7 585 42 b 775 316 694 165 739 237 b 903 800 859 481 901 642 b 872 966 903 861 892 916 b 791 1086 852 1015 825 1055 b 679 1131 757 1116 720 1131 z m 670 1015 b 747 806 722 994 747 914 b 720 593 747 742 738 671 b 642 362 703 515 676 438 b 511 155 606 286 563 217 b 348 65 446 95 392 65 b 176 307 224 65 176 168 b 177 333 176 316 176 324 b 285 222 206 265 249 222 b 283 270 284 238 283 254 b 319 538 283 363 296 452 b 413 768 343 623 374 700 b 538 936 451 837 492 892 b 670 1015 583 979 627 1005 z "},"":{"ha":867,"x_min":0,"x_max":0,"o":"m 699 1436 b 642 1414 680 1436 661 1429 b 592 1363 624 1399 607 1382 b 557 1313 577 1344 566 1327 b 543 1291 548 1298 543 1291 l 574 1259 b 642 1301 574 1258 604 1301 b 713 1270 661 1301 686 1286 b 808 1232 745 1251 781 1232 b 868 1256 829 1232 850 1240 b 917 1310 886 1272 903 1289 b 949 1364 930 1330 941 1348 b 962 1387 958 1379 962 1387 l 937 1411 b 863 1352 937 1412 906 1352 b 794 1390 844 1352 819 1370 b 699 1436 764 1413 732 1436 z m 679 1131 b 447 1041 610 1131 533 1101 b 219 899 361 1019 286 971 b 60 639 152 826 99 739 b 2 338 22 538 2 438 b 90 18 2 202 31 95 b 326 -98 148 -59 227 -98 b 472 -43 366 -98 414 -79 b 640 104 529 -7 585 42 b 775 316 694 165 739 237 b 903 800 859 481 901 642 b 872 966 903 861 892 916 b 791 1086 852 1015 825 1055 b 679 1131 757 1116 720 1131 z m 670 1015 b 747 806 722 994 747 914 b 720 593 747 742 738 671 b 642 362 703 515 676 438 b 511 155 606 286 563 217 b 348 65 446 95 392 65 b 176 307 224 65 176 168 b 177 333 176 316 176 324 b 285 222 206 265 249 222 b 283 270 284 238 283 254 b 319 538 283 363 296 452 b 413 768 343 623 374 700 b 538 936 451 837 492 892 b 670 1015 583 979 627 1005 z "},"":{"ha":867,"x_min":0,"x_max":0,"o":"m 665 1375 b 589 1321 632 1373 603 1351 b 583 1299 585 1314 583 1306 b 600 1257 583 1283 589 1270 b 654 1229 616 1238 633 1229 b 675 1234 662 1229 669 1230 b 731 1305 705 1245 728 1272 b 675 1375 728 1337 707 1366 b 665 1375 672 1375 669 1375 z m 840 1375 b 763 1321 806 1373 777 1351 b 758 1299 760 1314 758 1306 b 774 1257 758 1283 763 1270 b 828 1229 790 1238 808 1229 b 849 1234 836 1229 842 1230 b 905 1305 879 1245 903 1272 b 849 1375 903 1337 880 1366 b 840 1375 846 1375 843 1375 z m 679 1131 b 447 1041 610 1131 533 1101 b 219 899 361 1019 286 971 b 60 639 152 826 99 739 b 2 338 22 538 2 438 b 90 18 2 202 31 95 b 326 -98 148 -59 227 -98 b 472 -43 366 -98 414 -79 b 640 104 529 -7 585 42 b 775 316 694 165 739 237 b 903 800 859 481 901 642 b 872 966 903 861 892 916 b 791 1086 852 1015 825 1055 b 679 1131 757 1116 720 1131 z m 670 1015 b 747 806 722 994 747 914 b 720 593 747 742 738 671 b 642 362 703 515 676 438 b 511 155 606 286 563 217 b 348 65 446 95 392 65 b 176 307 224 65 176 168 b 177 333 176 316 176 324 b 285 222 206 265 249 222 b 283 270 284 238 283 254 b 319 538 283 363 296 452 b 413 768 343 623 374 700 b 538 936 451 837 492 892 b 670 1015 583 979 627 1005 z "},"":{"ha":427,"x_min":0,"x_max":0,"o":"m 343 407 b 222 297 317 382 277 345 b 186 367 208 321 196 344 b 149 393 180 378 168 387 b 93 403 131 398 112 401 b 56 405 74 404 62 405 l 53 405 b 74 368 59 395 66 382 b 151 237 96 329 122 285 b 0 128 88 184 31 141 b 110 78 -1 130 68 78 b 125 81 115 78 120 79 b 212 149 144 90 174 113 b 248 110 224 133 236 120 b 352 81 271 90 313 81 b 406 87 372 81 390 83 b 279 216 376 105 334 148 b 374 316 314 252 346 286 b 427 377 401 347 419 367 z "},"":{"ha":867,"x_min":0,"x_max":0,"o":"m 802 1130 b 788 1109 798 1124 794 1118 b 779 1095 785 1104 783 1099 b 680 1130 749 1118 715 1130 b 448 1040 611 1130 534 1100 b 220 898 363 1018 287 970 b 62 639 153 825 100 739 b 3 338 23 538 3 438 b 113 -9 3 184 42 66 b 94 -42 106 -20 100 -32 b 62 -98 81 -64 71 -82 b 92 -142 64 -113 73 -128 b 153 -175 110 -155 130 -166 b 202 -187 175 -183 191 -187 b 241 -87 208 -163 222 -130 b 326 -98 268 -94 296 -98 b 473 -43 367 -98 416 -79 b 640 104 530 -7 585 42 b 777 316 695 165 741 237 b 871 559 817 394 848 475 b 904 797 893 642 904 722 l 904 800 b 865 983 904 867 891 928 b 918 1049 885 1008 903 1031 b 903 1082 918 1059 913 1069 b 804 1130 881 1107 844 1130 z m 671 1015 b 709 982 686 1008 699 998 b 511 657 654 892 588 783 b 285 283 435 531 359 406 b 350 628 288 407 310 522 b 497 890 390 734 439 821 b 671 1015 555 959 614 1000 z m 747 806 b 721 593 747 742 739 671 b 642 362 703 515 677 438 b 512 155 608 286 564 217 b 349 65 447 95 393 65 b 316 68 338 65 327 66 b 519 440 374 181 442 305 b 747 813 597 574 673 699 z m 178 332 b 254 231 200 283 225 250 b 239 207 250 223 244 215 b 207 152 228 189 217 170 b 178 307 187 195 178 246 b 178 332 178 315 178 323 z "},"":{"ha":822,"x_min":0,"x_max":0,"o":"m 591 1436 b 550 1433 567 1436 550 1433 b 563 1407 550 1433 554 1424 b 595 1345 571 1389 582 1369 b 638 1280 608 1321 623 1299 b 682 1239 653 1259 667 1246 b 749 1227 703 1232 726 1227 b 804 1232 770 1227 789 1229 b 828 1236 820 1235 828 1236 b 704 1395 829 1236 734 1339 b 657 1428 694 1411 678 1422 b 596 1436 635 1433 615 1436 z m 370 1131 b 315 994 370 1131 352 1085 b 186 674 277 903 235 797 b 58 327 138 551 96 435 b 2 109 21 218 2 145 b 163 -68 2 -33 164 -68 b 269 8 188 -68 223 -43 b 422 211 314 59 365 126 b 596 495 478 296 536 390 b 513 256 563 406 535 326 b 479 109 490 185 479 136 b 640 -68 479 -33 642 -68 l 640 -56 b 676 161 640 4 652 76 b 762 422 700 245 728 332 b 861 678 795 512 829 597 b 935 866 890 751 916 813 b 964 975 955 919 964 955 b 906 1095 964 1031 937 1070 b 848 1131 876 1120 848 1131 b 798 1009 848 1131 831 1090 b 630 713 755 924 700 825 b 410 396 560 602 487 496 b 201 172 334 296 264 222 b 286 427 225 254 253 340 b 383 676 319 515 351 597 b 457 865 412 749 437 812 b 487 975 477 918 487 955 b 429 1095 487 1031 459 1070 b 370 1131 398 1120 370 1131 z "},"":{"ha":822,"x_min":0,"x_max":0,"o":"m 777 1436 b 700 1348 757 1408 731 1379 b 609 1274 668 1318 638 1293 b 656 1244 619 1263 635 1253 b 717 1230 676 1234 696 1230 b 847 1370 762 1268 805 1315 b 819 1413 842 1383 833 1397 b 777 1436 804 1428 791 1436 z m 370 1131 b 315 994 370 1131 352 1085 b 186 674 277 903 235 797 b 58 327 138 551 96 435 b 2 109 21 218 2 145 b 163 -68 2 -33 164 -68 b 269 8 188 -68 223 -43 b 422 211 314 59 365 126 b 596 495 478 296 536 390 b 513 256 563 406 535 326 b 479 109 490 185 479 136 b 640 -68 479 -33 642 -68 l 640 -56 b 676 161 640 4 652 76 b 762 422 700 245 728 332 b 861 678 795 512 829 597 b 935 866 890 751 916 813 b 964 975 955 919 964 955 b 906 1095 964 1031 937 1070 b 848 1131 876 1120 848 1131 b 798 1009 848 1131 831 1090 b 630 713 755 924 700 825 b 410 396 560 602 487 496 b 201 172 334 296 264 222 b 286 427 225 254 253 340 b 383 676 319 515 351 597 b 457 865 412 749 437 812 b 487 975 477 918 487 955 b 429 1095 487 1031 459 1070 b 370 1131 398 1120 370 1131 z "},"":{"ha":822,"x_min":0,"x_max":0,"o":"m 673 1436 b 631 1390 658 1420 644 1404 b 526 1295 600 1353 565 1321 b 574 1237 534 1277 549 1257 b 637 1206 600 1217 620 1206 b 730 1334 673 1250 704 1293 b 736 1344 732 1337 734 1341 b 785 1236 736 1345 762 1262 b 830 1216 798 1222 814 1216 b 900 1244 865 1216 901 1245 b 783 1401 901 1243 834 1326 b 723 1428 774 1413 749 1421 b 673 1436 696 1433 673 1436 z m 370 1131 b 315 994 370 1131 352 1085 b 186 674 277 903 235 797 b 58 327 138 551 96 435 b 2 109 21 218 2 145 b 163 -68 2 -33 164 -68 b 269 8 188 -68 223 -43 b 422 211 314 59 365 126 b 596 495 478 296 536 390 b 513 256 563 406 535 326 b 479 109 490 185 479 136 b 640 -68 479 -33 642 -68 l 640 -56 b 676 161 640 4 652 76 b 762 422 700 245 728 332 b 861 678 795 512 829 597 b 935 866 890 751 916 813 b 964 975 955 919 964 955 b 906 1095 964 1031 937 1070 b 848 1131 876 1120 848 1131 b 798 1009 848 1131 831 1090 b 630 713 755 924 700 825 b 410 396 560 602 487 496 b 201 172 334 296 264 222 b 286 427 225 254 253 340 b 383 676 319 515 351 597 b 457 865 412 749 437 812 b 487 975 477 918 487 955 b 429 1095 487 1031 459 1070 b 370 1131 398 1120 370 1131 z "},"":{"ha":822,"x_min":0,"x_max":0,"o":"m 667 1375 b 591 1320 634 1373 605 1350 b 585 1297 587 1312 585 1305 b 602 1256 585 1282 591 1269 b 656 1227 618 1237 635 1227 b 677 1232 664 1227 671 1229 b 733 1303 707 1245 730 1271 b 677 1373 731 1336 709 1364 b 667 1375 674 1374 671 1375 z m 842 1375 b 765 1320 808 1373 779 1350 b 760 1297 762 1312 760 1305 b 777 1256 760 1282 765 1269 b 831 1227 792 1237 810 1227 b 852 1232 838 1227 845 1229 b 907 1303 881 1245 905 1271 b 851 1373 905 1336 883 1364 b 842 1375 848 1374 845 1375 z m 370 1131 b 315 994 370 1131 352 1085 b 186 674 277 903 235 797 b 58 327 138 551 96 435 b 2 109 21 218 2 145 b 163 -68 2 -33 164 -68 b 269 8 188 -68 223 -43 b 422 211 314 59 365 126 b 596 495 478 296 536 390 b 513 256 563 406 535 326 b 479 109 490 185 479 136 b 640 -68 479 -33 642 -68 l 640 -56 b 676 161 640 4 652 76 b 762 422 700 245 728 332 b 861 678 795 512 829 597 b 935 866 890 751 916 813 b 964 975 955 919 964 955 b 906 1095 964 1031 937 1070 b 848 1131 876 1120 848 1131 b 798 1009 848 1131 831 1090 b 630 713 755 924 700 825 b 410 396 560 602 487 496 b 201 172 334 296 264 222 b 286 427 225 254 253 340 b 383 676 319 515 351 597 b 457 865 412 749 437 812 b 487 975 477 918 487 955 b 429 1095 487 1031 459 1070 b 370 1131 398 1120 370 1131 z "},"":{"ha":734,"x_min":0,"x_max":0,"o":"m 696 1436 b 620 1348 677 1408 651 1379 b 528 1274 588 1318 557 1293 b 576 1244 539 1263 555 1253 b 637 1230 596 1234 616 1230 b 767 1370 681 1267 724 1314 b 738 1412 762 1382 752 1396 b 696 1436 724 1428 710 1436 z m 296 1130 b 269 1064 296 1130 287 1108 b 206 904 250 1020 229 967 b 144 717 182 841 162 779 b 116 570 125 655 116 606 b 276 393 116 426 277 393 b 595 662 354 393 467 471 b 406 302 539 532 474 402 b 304 180 372 251 338 211 b 203 135 269 150 236 135 b 0 229 114 135 41 159 b 81 0 9 115 41 43 b 140 -47 100 -21 120 -37 b 217 -69 179 -66 211 -69 b 357 -16 263 -69 310 -52 b 622 318 450 55 541 176 b 733 534 662 389 699 461 b 822 741 767 608 797 677 b 880 908 847 806 866 861 b 901 1000 894 954 901 985 b 838 1091 901 1035 870 1067 b 774 1130 804 1115 774 1130 b 758 1083 774 1130 768 1114 b 641 865 732 1019 693 946 b 467 642 589 785 530 711 b 279 496 402 574 340 526 b 368 820 294 627 332 735 b 412 975 393 884 412 935 b 355 1095 412 1031 385 1069 b 296 1130 324 1119 296 1130 z "},"":{"ha":720,"x_min":0,"x_max":0,"o":"m 279 837 b 237 722 279 837 265 798 b 140 449 208 645 176 554 b 43 150 104 344 71 244 b 0 -47 14 55 0 -11 b 161 -224 0 -189 162 -224 l 161 -207 b 219 121 161 -114 184 2 b 330 43 252 75 289 43 b 477 79 378 43 427 55 b 605 165 528 102 570 131 b 656 262 640 199 656 231 l 656 279 b 645 475 656 341 656 415 b 570 578 634 535 612 578 b 412 550 513 578 457 564 b 358 537 391 544 372 540 b 395 681 383 607 395 655 b 338 801 395 737 368 776 b 279 837 307 825 279 837 z m 542 484 b 572 467 558 484 568 478 b 573 462 573 465 573 464 b 566 416 573 453 571 437 b 549 351 562 394 556 372 b 526 304 541 330 534 314 b 416 224 492 267 456 239 b 309 200 377 208 341 200 l 307 200 b 247 211 286 200 265 203 b 321 429 272 288 297 361 b 324 438 322 432 323 435 b 444 463 362 442 402 450 b 541 484 482 474 517 484 z "},"":{"ha":924,"x_min":0,"x_max":0,"o":"m 460 858 b 359 799 429 858 395 838 b 250 648 321 760 286 709 b 151 454 214 587 180 522 b 79 260 121 385 97 321 b 51 114 60 199 51 150 b 70 97 51 114 57 109 b 116 57 83 85 98 72 b 170 18 134 42 151 29 b 212 0 187 6 201 0 b 227 193 212 60 217 124 b 271 396 237 262 252 330 b 338 578 290 463 313 523 b 421 709 363 632 391 675 b 515 758 451 742 482 758 l 517 758 b 527 749 524 758 527 755 b 471 646 527 730 501 690 b 427 576 455 622 440 598 b 408 524 414 553 408 536 b 428 457 408 505 414 483 b 475 383 441 431 456 406 b 524 331 492 360 509 342 b 609 363 541 341 569 352 b 712 381 649 375 683 381 b 753 360 736 381 753 376 b 690 285 753 340 732 315 b 543 202 648 254 599 226 b 397 165 487 178 439 165 b 331 177 371 165 349 170 b 277 210 295 192 277 210 b 322 136 277 210 294 178 b 370 74 336 115 351 95 b 485 0 405 33 446 0 b 621 37 528 0 574 12 b 750 125 667 60 710 90 b 848 230 790 159 823 195 b 885 314 873 264 885 293 b 855 382 885 334 875 356 b 786 433 836 407 812 425 b 706 441 764 439 736 441 b 623 438 677 441 650 440 b 567 431 596 435 577 433 l 567 434 b 631 553 567 465 597 509 b 690 664 663 596 690 637 b 651 752 690 692 677 722 b 557 827 625 782 593 807 b 460 858 522 848 489 858 z "},"":{"ha":656,"x_min":0,"x_max":0,"o":"m 378 903 b 338 900 355 903 338 900 b 351 873 338 900 342 891 b 383 812 359 856 370 836 b 426 747 396 788 410 766 b 469 706 441 726 455 713 b 537 694 491 699 513 694 b 592 699 558 694 576 696 b 616 703 608 702 616 703 b 492 862 616 703 523 807 b 445 895 481 878 466 889 b 384 903 423 900 403 903 z m 498 606 b 471 592 485 606 477 605 b 416 468 454 559 436 517 b 414 486 416 475 415 481 b 349 570 404 518 382 546 b 262 605 316 593 287 605 b 164 565 228 605 195 591 b 81 462 133 538 105 504 b 23 325 57 419 37 374 b 1 184 9 276 1 229 b 150 0 1 82 43 0 b 239 46 178 0 208 16 b 330 164 270 77 300 116 b 328 122 328 149 328 135 b 434 0 328 31 382 0 b 505 27 456 0 480 9 b 575 92 528 45 552 66 b 636 170 597 118 618 144 b 680 235 654 195 669 216 b 696 261 690 252 696 261 l 678 275 b 623 219 678 275 654 248 b 533 163 591 190 555 163 b 521 186 525 164 521 172 b 555 319 521 213 532 257 b 635 503 578 380 605 441 b 637 513 636 507 637 510 b 612 555 637 526 629 541 b 498 606 580 583 533 605 z m 347 491 b 373 443 365 491 373 473 b 336 292 373 406 361 356 b 205 172 281 214 230 172 b 190 193 195 172 190 178 l 190 193 b 220 322 191 233 201 277 b 286 441 239 368 261 408 b 347 491 311 474 331 491 z "},"":{"ha":656,"x_min":0,"x_max":0,"o":"m 532 903 b 455 815 512 875 486 846 b 364 741 423 785 393 760 b 411 711 375 730 391 720 b 473 696 431 701 452 696 b 603 837 517 735 560 782 b 574 880 597 850 588 864 b 532 903 559 895 546 903 z m 498 606 b 471 592 485 606 477 605 b 416 468 454 559 436 517 b 414 486 416 475 415 481 b 349 570 404 518 382 546 b 262 605 316 593 287 605 b 164 565 228 605 195 591 b 81 462 133 538 105 504 b 23 325 57 419 37 374 b 1 184 9 276 1 229 b 150 0 1 82 43 0 b 239 46 178 0 208 16 b 330 164 270 77 300 116 b 328 122 328 149 328 135 b 434 0 328 31 382 0 b 505 27 456 0 480 9 b 575 92 528 45 552 66 b 636 170 597 118 618 144 b 680 235 654 195 669 216 b 696 261 690 252 696 261 l 678 275 b 623 219 678 275 654 248 b 533 163 591 190 555 163 b 521 186 525 164 521 172 b 555 319 521 213 532 257 b 635 503 578 380 605 441 b 637 513 636 507 637 510 b 612 555 637 526 629 541 b 498 606 580 583 533 605 z m 347 491 b 373 443 365 491 373 473 b 336 292 373 406 361 356 b 205 172 281 214 230 172 b 190 193 195 172 190 178 l 190 193 b 220 322 191 233 201 277 b 286 441 239 368 261 408 b 347 491 311 474 331 491 z "},"":{"ha":656,"x_min":0,"x_max":0,"o":"m 443 902 b 400 857 427 886 413 871 b 296 762 369 819 334 787 b 344 703 302 743 319 724 b 406 673 369 683 389 673 b 497 799 442 715 472 758 b 505 811 500 803 503 807 b 554 703 505 811 532 728 b 599 682 568 688 583 682 b 669 710 635 682 669 711 b 553 867 669 709 604 793 b 492 894 544 879 519 888 b 443 902 465 899 443 902 z m 498 606 b 471 592 485 606 477 605 b 416 468 454 559 436 517 b 414 486 416 475 415 481 b 349 570 404 518 382 546 b 262 605 316 593 287 605 b 164 565 228 605 195 591 b 81 462 133 538 105 504 b 23 325 57 419 37 374 b 1 184 9 276 1 229 b 150 0 1 82 43 0 b 239 46 178 0 208 16 b 330 164 270 77 300 116 b 328 122 328 149 328 135 b 434 0 328 31 382 0 b 505 27 456 0 480 9 b 575 92 528 45 552 66 b 636 170 597 118 618 144 b 680 235 654 195 669 216 b 696 261 690 252 696 261 l 678 275 b 623 219 678 275 654 248 b 533 163 591 190 555 163 b 521 186 525 164 521 172 b 555 319 521 213 532 257 b 635 503 578 380 605 441 b 637 513 636 507 637 510 b 612 555 637 526 629 541 b 498 606 580 583 533 605 z m 347 491 b 373 443 365 491 373 473 b 336 292 373 406 361 356 b 205 172 281 214 230 172 b 190 193 195 172 190 178 l 190 193 b 220 322 191 233 201 277 b 286 441 239 368 261 408 b 347 491 311 474 331 491 z "},"":{"ha":656,"x_min":0,"x_max":0,"o":"m 452 901 b 395 880 432 901 413 894 b 345 829 376 865 359 848 b 309 778 330 810 318 793 b 296 755 300 763 296 755 l 327 724 b 395 766 326 723 356 766 b 466 736 413 766 438 752 b 561 697 498 716 533 697 b 621 721 582 697 602 705 b 669 775 639 736 655 755 b 703 829 684 795 694 813 b 714 852 710 844 714 852 l 689 876 b 616 817 689 876 659 817 b 547 854 596 817 573 835 b 452 901 517 878 484 901 z m 498 606 b 471 592 485 606 477 605 b 416 468 454 559 436 517 b 414 486 416 475 415 481 b 349 570 404 518 382 546 b 262 605 316 593 287 605 b 164 565 228 605 195 591 b 81 462 133 538 105 504 b 23 325 57 419 37 374 b 1 184 9 276 1 229 b 150 0 1 82 43 0 b 239 46 178 0 208 16 b 330 164 270 77 300 116 b 328 122 328 149 328 135 b 434 0 328 31 382 0 b 505 27 456 0 480 9 b 575 92 528 45 552 66 b 636 170 597 118 618 144 b 680 235 654 195 669 216 b 696 261 690 252 696 261 l 678 275 b 623 219 678 275 654 248 b 533 163 591 190 555 163 b 521 186 525 164 521 172 b 555 319 521 213 532 257 b 635 503 578 380 605 441 b 637 513 636 507 637 510 b 612 555 637 526 629 541 b 498 606 580 583 533 605 z m 347 491 b 373 443 365 491 373 473 b 336 292 373 406 361 356 b 205 172 281 214 230 172 b 190 193 195 172 190 178 l 190 193 b 220 322 191 233 201 277 b 286 441 239 368 261 408 b 347 491 311 474 331 491 z "},"":{"ha":656,"x_min":0,"x_max":0,"o":"m 436 841 b 359 787 401 837 376 819 b 354 764 356 779 354 772 b 371 722 354 749 359 735 b 425 694 387 703 404 694 b 446 699 433 694 439 695 b 502 770 475 711 499 738 b 446 840 500 803 477 831 b 436 841 443 841 439 841 z m 610 841 b 534 787 576 837 550 819 b 528 764 530 779 528 772 b 545 722 528 749 534 735 b 600 694 561 703 578 694 b 621 699 607 694 614 695 b 676 770 650 711 673 738 b 620 840 673 803 652 831 b 610 841 617 841 614 841 z m 498 606 b 471 592 485 606 477 605 b 416 468 454 559 436 517 b 414 486 416 475 415 481 b 349 570 404 518 382 546 b 262 605 316 593 287 605 b 164 565 228 605 195 591 b 81 462 133 538 105 504 b 23 325 57 419 37 374 b 1 184 9 276 1 229 b 150 0 1 82 43 0 b 239 46 178 0 208 16 b 330 164 270 77 300 116 b 328 122 328 149 328 135 b 434 0 328 31 382 0 b 505 27 456 0 480 9 b 575 92 528 45 552 66 b 636 170 597 118 618 144 b 680 235 654 195 669 216 b 696 261 690 252 696 261 l 678 275 b 623 219 678 275 654 248 b 533 163 591 190 555 163 b 521 186 525 164 521 172 b 555 319 521 213 532 257 b 635 503 578 380 605 441 b 637 513 636 507 637 510 b 612 555 637 526 629 541 b 498 606 580 583 533 605 z m 347 491 b 373 443 365 491 373 473 b 336 292 373 406 361 356 b 205 172 281 214 230 172 b 190 193 195 172 190 178 l 190 193 b 220 322 191 233 201 277 b 286 441 239 368 261 408 b 347 491 311 474 331 491 z "},"":{"ha":656,"x_min":0,"x_max":0,"o":"m 484 902 b 402 861 446 902 419 884 b 347 753 364 829 347 790 b 371 686 347 727 355 705 b 435 658 387 667 408 658 l 436 658 b 537 703 475 660 509 675 b 579 808 565 732 579 766 b 562 864 579 831 573 850 b 484 902 538 891 503 902 z m 489 865 b 516 832 508 865 516 850 b 492 770 516 812 508 792 b 429 733 477 748 455 736 l 424 733 b 399 748 408 733 401 739 b 408 747 401 747 404 747 b 450 763 422 747 443 752 l 450 772 b 453 806 450 780 451 791 b 489 865 456 836 465 865 z m 498 606 b 471 592 485 606 477 605 b 416 468 454 559 436 517 b 414 486 416 475 415 481 b 349 570 404 518 382 546 b 262 605 316 593 287 605 b 164 565 228 605 195 591 b 81 462 133 538 105 504 b 23 325 57 419 37 374 b 1 184 9 276 1 229 b 150 0 1 82 43 0 b 239 46 178 0 208 16 b 330 164 270 77 300 116 b 328 122 328 149 328 135 b 434 0 328 31 382 0 b 505 27 456 0 480 9 b 575 92 528 45 552 66 b 636 170 597 118 618 144 b 680 235 654 195 669 216 b 696 261 690 252 696 261 l 678 275 b 623 219 678 275 654 248 b 533 163 591 190 555 163 b 521 186 525 164 521 172 b 555 319 521 213 532 257 b 635 503 578 380 605 441 b 637 513 636 507 637 510 b 612 555 637 526 629 541 b 498 606 580 583 533 605 z m 347 491 b 373 443 365 491 373 473 b 336 292 373 406 361 356 b 205 172 281 214 230 172 b 190 193 195 172 190 178 l 190 193 b 220 322 191 233 201 277 b 286 441 239 368 261 408 b 347 491 311 474 331 491 z "},"":{"ha":656,"x_min":0,"x_max":0,"o":"m 498 606 b 471 592 485 606 477 605 b 416 468 454 559 436 517 b 414 486 416 475 415 481 b 349 570 404 518 382 546 b 262 605 316 593 287 605 b 164 565 228 605 195 591 b 81 462 133 538 105 504 b 23 325 57 419 37 374 b 1 184 9 276 1 229 b 150 0 1 82 43 0 b 239 46 178 0 208 16 b 330 164 270 77 300 116 b 328 122 328 149 328 135 b 434 0 328 31 382 0 b 505 27 456 0 480 9 b 575 92 528 45 552 66 b 636 170 597 118 618 144 b 680 235 654 195 669 216 b 696 261 690 252 696 261 l 678 275 b 623 219 678 275 654 248 b 533 163 591 190 555 163 b 521 186 525 164 521 172 b 555 319 521 213 532 257 b 635 503 578 380 605 441 b 637 513 636 507 637 510 b 612 555 637 526 629 541 b 498 606 580 583 533 605 z m 347 491 b 373 443 365 491 373 473 b 336 292 373 406 361 356 b 205 172 281 214 230 172 b 190 193 195 172 190 178 l 190 193 b 220 322 191 233 201 277 b 286 441 239 368 261 408 b 347 491 311 474 331 491 z "},"":{"ha":614,"x_min":0,"x_max":0,"o":"m 286 608 b 184 566 252 608 218 594 b 91 459 149 538 119 503 b 24 319 63 415 41 368 b -1 176 7 269 -1 221 b 159 3 -1 79 44 3 l 163 3 b 241 -75 199 -22 224 -48 l 237 -75 b 182 -77 229 -75 211 -75 b 87 -91 154 -79 122 -83 b -8 -125 53 -98 21 -110 b 9 -172 -8 -136 -3 -151 b 49 -229 21 -193 34 -212 b 86 -254 64 -245 76 -254 b 256 -156 136 -207 201 -178 b 334 -107 302 -138 334 -124 b 307 -39 334 -91 325 -68 b 255 34 288 -10 271 14 b 366 124 295 58 332 88 b 450 221 400 160 428 192 b 481 264 471 250 481 264 l 463 277 b 329 170 408 226 363 190 b 246 138 294 149 266 138 b 197 196 210 138 197 166 b 225 323 197 239 207 281 b 287 427 243 365 264 399 b 340 469 309 455 328 469 l 341 469 b 355 452 350 469 355 463 b 266 286 355 430 330 379 b 264 282 265 285 264 283 b 278 271 264 275 278 270 b 335 307 292 271 311 283 b 397 392 358 332 379 360 b 425 474 416 424 425 452 b 400 532 425 492 416 511 b 344 585 384 553 365 570 b 286 608 322 600 303 608 z "},"":{"ha":449,"x_min":0,"x_max":0,"o":"m 319 904 b 279 901 295 903 279 901 b 292 875 279 901 283 892 b 324 813 300 857 311 837 b 367 748 337 789 351 768 b 410 707 382 728 396 714 b 479 696 431 699 456 696 b 534 700 500 696 518 697 b 557 704 549 703 557 704 b 433 863 557 704 464 808 b 383 897 422 880 406 891 b 319 904 360 901 339 904 z m 286 605 b 183 564 251 605 217 591 b 90 456 149 536 118 500 b 24 316 62 412 41 366 b -1 174 7 266 -1 218 b 159 0 -1 76 43 0 b 248 27 188 0 217 9 b 335 92 278 45 307 66 b 410 170 363 118 387 144 b 462 235 431 195 449 216 b 481 261 475 252 481 261 l 463 274 b 328 167 408 223 363 187 b 245 136 292 146 265 136 b 200 170 219 136 205 150 b 357 313 260 200 312 248 b 424 471 401 378 424 431 b 400 528 424 488 416 507 b 343 583 384 549 365 567 b 286 605 321 597 302 605 z m 340 465 b 345 459 343 465 345 463 b 304 369 345 445 331 415 b 200 233 276 323 241 277 b 263 392 212 294 233 347 b 338 465 294 437 319 462 z "},"":{"ha":449,"x_min":0,"x_max":0,"o":"m 448 903 b 371 817 428 876 402 847 b 279 742 339 786 309 761 b 327 712 290 731 306 721 b 388 698 347 703 368 698 b 518 838 433 736 476 783 b 489 880 513 850 503 865 b 448 903 475 896 461 903 z m 286 605 b 183 564 251 605 217 591 b 90 456 149 536 118 500 b 24 316 62 412 41 366 b -1 174 7 266 -1 218 b 159 0 -1 76 43 0 b 248 27 188 0 217 9 b 335 92 278 45 307 66 b 410 170 363 118 387 144 b 462 235 431 195 449 216 b 481 261 475 252 481 261 l 463 274 b 328 167 408 223 363 187 b 245 136 292 146 265 136 b 200 170 219 136 205 150 b 357 313 260 200 312 248 b 424 471 401 378 424 431 b 400 528 424 488 416 507 b 343 583 384 549 365 567 b 286 605 321 597 302 605 z m 340 465 b 345 459 343 465 345 463 b 304 369 345 445 331 415 b 200 233 276 323 241 277 b 263 392 212 294 233 347 b 338 465 294 437 319 462 z "},"":{"ha":449,"x_min":0,"x_max":0,"o":"m 342 903 b 300 858 327 888 313 872 b 195 763 269 821 234 789 b 243 705 202 745 218 725 b 306 674 269 684 289 674 b 397 800 342 717 372 759 b 405 812 399 804 402 808 b 454 704 405 812 431 730 b 499 684 467 690 484 684 b 568 711 534 684 569 713 b 452 869 569 711 503 794 b 392 895 444 880 418 889 b 342 903 365 901 342 903 z m 286 605 b 183 564 251 605 217 591 b 90 456 149 536 118 500 b 24 316 62 412 41 366 b -1 174 7 266 -1 218 b 159 0 -1 76 43 0 b 248 27 188 0 217 9 b 335 92 278 45 307 66 b 410 170 363 118 387 144 b 462 235 431 195 449 216 b 481 261 475 252 481 261 l 463 274 b 328 167 408 223 363 187 b 245 136 292 146 265 136 b 200 170 219 136 205 150 b 357 313 260 200 312 248 b 424 471 401 378 424 431 b 400 528 424 488 416 507 b 343 583 384 549 365 567 b 286 605 321 597 302 605 z m 340 465 b 345 459 343 465 345 463 b 304 369 345 445 331 415 b 200 233 276 323 241 277 b 263 392 212 294 233 347 b 338 465 294 437 319 462 z "},"":{"ha":449,"x_min":0,"x_max":0,"o":"m 321 842 b 244 788 288 840 258 818 b 239 764 241 781 239 772 b 255 724 239 749 244 736 b 309 695 271 705 288 695 b 330 700 317 695 323 696 b 386 772 360 713 384 739 b 330 842 384 804 361 833 b 321 842 327 842 323 842 z m 494 842 b 418 788 461 840 433 818 b 413 764 415 781 413 772 b 429 724 413 749 418 736 b 484 695 445 705 463 695 b 505 700 491 695 498 696 b 560 772 534 713 558 739 b 505 842 558 804 535 833 b 494 842 501 842 498 842 z m 286 605 b 183 564 251 605 217 591 b 90 456 149 536 118 500 b 24 316 62 412 41 366 b -1 174 7 266 -1 218 b 159 0 -1 76 43 0 b 248 27 188 0 217 9 b 335 92 278 45 307 66 b 410 170 363 118 387 144 b 462 235 431 195 449 216 b 481 261 475 252 481 261 l 463 274 b 328 167 408 223 363 187 b 245 136 292 146 265 136 b 200 170 219 136 205 150 b 357 313 260 200 312 248 b 424 471 401 378 424 431 b 400 528 424 488 416 507 b 343 583 384 549 365 567 b 286 605 321 597 302 605 z m 340 465 b 345 459 343 465 345 463 b 304 369 345 445 331 415 b 200 233 276 323 241 277 b 263 392 212 294 233 347 b 338 465 294 437 319 462 z "},"":{"ha":325,"x_min":0,"x_max":0,"o":"m 117 901 b 77 898 95 901 77 898 b 90 871 77 898 81 889 b 122 810 98 854 109 833 b 165 745 135 786 149 764 b 208 704 180 724 194 711 b 276 692 230 696 252 692 b 332 697 297 692 315 694 b 355 701 347 700 355 701 b 231 860 356 701 262 804 b 184 892 220 876 205 887 b 123 901 162 898 142 901 z m 157 604 b 129 591 144 604 135 604 b 68 448 110 553 90 505 b 11 271 45 390 26 331 b -14 121 -5 211 -14 161 b 92 -1 -14 31 41 -1 b 233 91 138 -1 188 39 b 355 260 299 166 355 261 l 336 273 b 281 218 336 273 313 247 b 192 162 250 189 214 162 b 179 184 183 163 179 170 b 214 318 179 212 191 256 b 293 503 237 380 263 441 b 295 513 294 506 295 509 b 271 554 295 526 287 540 b 214 590 255 568 236 580 b 157 604 193 600 174 604 z "},"":{"ha":325,"x_min":0,"x_max":0,"o":"m 336 903 b 259 815 316 875 290 846 b 168 741 227 785 197 760 b 215 711 178 730 194 720 b 276 696 235 701 256 696 b 406 837 321 734 364 781 b 378 879 401 849 392 863 b 336 903 363 895 350 903 z m 157 604 b 129 591 144 604 135 604 b 68 448 110 553 90 505 b 11 271 45 390 26 331 b -14 121 -5 211 -14 161 b 92 -1 -14 31 41 -1 b 233 91 138 -1 188 39 b 355 260 299 166 355 261 l 336 273 b 281 218 336 273 313 247 b 192 162 250 189 214 162 b 179 184 183 163 179 170 b 214 318 179 212 191 256 b 293 503 237 380 263 441 b 295 513 294 506 295 509 b 271 554 295 526 287 540 b 214 590 255 568 236 580 b 157 604 193 600 174 604 z "},"":{"ha":325,"x_min":0,"x_max":0,"o":"m 280 922 b 237 876 264 906 250 890 b 133 781 206 839 172 807 b 181 723 140 763 156 743 b 244 692 206 703 227 692 b 336 819 280 736 311 778 b 343 830 338 823 341 827 b 391 722 342 831 369 748 b 437 702 405 708 421 702 b 507 730 472 702 508 731 b 390 887 507 729 441 812 b 330 913 381 899 356 907 b 280 922 302 919 280 922 z m 157 604 b 129 591 144 604 135 604 b 68 448 110 553 90 505 b 11 271 45 390 26 331 b -14 121 -5 211 -14 161 b 92 -1 -14 31 41 -1 b 233 91 138 -1 188 39 b 355 260 299 166 355 261 l 336 273 b 281 218 336 273 313 247 b 192 162 250 189 214 162 b 179 184 183 163 179 170 b 214 318 179 212 191 256 b 293 503 237 380 263 441 b 295 513 294 506 295 509 b 271 554 295 526 287 540 b 214 590 255 568 236 580 b 157 604 193 600 174 604 z "},"":{"ha":325,"x_min":0,"x_max":0,"o":"m 219 840 b 142 785 186 838 157 815 b 137 763 139 778 137 770 b 154 721 137 748 142 734 b 208 693 170 703 187 693 b 229 698 215 693 222 694 b 284 769 258 711 282 736 b 229 839 282 802 259 830 b 219 840 226 840 222 840 z m 393 840 b 317 785 360 838 331 815 b 311 763 313 778 311 770 b 328 721 311 748 317 734 b 382 693 344 703 361 693 b 403 698 389 693 396 694 b 458 769 433 711 456 736 b 403 839 456 802 433 830 b 401 839 402 839 402 839 b 393 840 399 840 396 840 z m 157 604 b 129 591 144 604 135 604 b 68 448 110 553 90 505 b 11 271 45 390 26 331 b -14 121 -5 211 -14 161 b 92 -1 -14 31 41 -1 b 233 91 138 -1 188 39 b 355 260 299 166 355 261 l 336 273 b 281 218 336 273 313 247 b 192 162 250 189 214 162 b 179 184 183 163 179 170 b 214 318 179 212 191 256 b 293 503 237 380 263 441 b 295 513 294 506 295 509 b 271 554 295 526 287 540 b 214 590 255 568 236 580 b 157 604 193 600 174 604 z "},"":{"ha":568,"x_min":0,"x_max":0,"o":"m 320 861 b 391 776 350 836 374 808 b 385 771 389 774 387 772 b 277 712 342 739 304 712 b 351 654 277 713 320 654 b 427 684 369 654 395 667 b 441 557 437 643 441 601 b 441 532 441 549 441 541 b 317 606 416 575 376 606 b 229 566 287 606 258 592 b 150 463 199 539 173 505 b 94 326 126 420 108 374 b 72 185 79 276 72 229 b 220 3 72 83 113 3 b 345 54 262 3 304 20 b 456 185 386 87 423 131 b 536 363 490 239 516 299 b 566 553 555 428 566 491 b 525 730 566 618 553 680 b 609 751 555 744 583 751 b 637 747 619 751 628 749 b 612 799 637 747 627 772 b 545 851 595 826 572 851 b 448 814 515 851 483 836 b 433 824 444 818 439 821 b 320 861 395 846 318 861 z m 399 468 b 431 442 412 468 423 459 b 353 198 414 348 389 267 b 260 95 318 130 287 95 b 245 125 250 96 245 106 b 262 216 245 148 250 178 b 303 330 273 254 286 292 b 354 428 319 368 336 401 b 399 468 372 454 387 468 z "},"":{"ha":661,"x_min":0,"x_max":0,"o":"m 464 890 b 407 869 444 890 425 883 b 357 818 389 854 372 837 b 321 767 342 798 330 781 b 308 745 313 752 308 745 l 339 713 b 407 755 338 712 370 755 b 478 724 425 755 450 741 b 574 686 511 705 545 686 b 633 710 595 686 614 694 b 682 764 651 726 667 743 b 715 818 696 784 707 802 b 726 841 722 833 726 841 l 701 865 b 628 806 701 866 671 806 b 559 844 608 806 585 824 b 464 890 529 867 496 890 z m 157 604 b 128 590 143 604 134 599 b 76 466 115 564 98 522 b 14 286 54 410 33 350 b -14 122 -5 222 -14 168 l -14 121 b 126 -1 -14 22 88 -1 b 272 244 170 84 218 166 b 420 420 326 322 375 381 b 304 125 336 284 304 189 b 323 50 304 93 311 68 b 429 -1 349 13 391 -1 b 499 26 451 -1 475 8 b 570 92 524 44 547 66 b 631 169 592 117 613 143 b 675 234 650 194 664 216 b 691 260 686 252 691 260 l 673 274 b 617 218 673 274 649 248 b 528 163 585 189 550 163 b 513 181 518 163 513 170 b 528 239 513 195 518 214 b 562 317 538 263 549 289 b 595 393 574 344 585 370 b 610 448 605 417 610 435 b 587 504 610 469 602 488 b 539 543 572 520 556 533 b 501 557 522 552 509 557 b 428 517 481 557 457 543 b 335 416 398 490 367 456 b 243 294 303 376 272 336 b 168 184 214 252 189 216 b 292 502 203 298 244 404 b 294 512 294 505 294 509 b 270 553 294 525 286 538 b 214 589 254 567 235 578 b 157 604 193 598 174 603 z "},"":{"ha":435,"x_min":0,"x_max":0,"o":"m 201 890 b 160 887 177 890 160 887 b 173 861 160 887 164 878 b 205 799 181 843 192 823 b 248 734 218 775 233 753 b 292 693 263 713 277 700 b 359 682 313 686 336 682 b 414 686 380 682 399 683 b 438 690 430 689 438 690 b 314 849 438 690 345 794 b 267 882 304 865 288 876 b 206 890 245 887 225 890 z m 279 613 b 152 572 238 613 195 600 b 42 476 108 545 71 513 b -3 375 12 439 -3 406 b 28 322 -3 353 7 336 b -14 126 0 254 -14 188 b 12 52 -14 97 -5 72 b 153 -9 47 12 103 -9 b 240 41 179 -9 208 8 b 330 168 271 75 301 117 b 399 328 357 218 381 271 b 427 478 418 383 427 433 b 400 545 427 502 418 524 b 338 595 382 566 361 582 b 279 613 315 607 295 613 z m 354 491 b 361 474 359 490 361 485 b 344 388 361 456 355 427 b 299 267 332 349 317 308 b 243 159 281 225 262 189 b 191 114 223 129 206 114 b 177 142 182 115 177 125 b 193 222 177 162 182 189 b 234 316 204 256 218 287 b 240 334 238 323 240 329 b 191 383 240 354 219 367 b 255 450 212 412 233 435 b 354 491 299 481 340 491 z "},"":{"ha":435,"x_min":0,"x_max":0,"o":"m 350 890 b 273 803 330 862 304 833 b 182 728 241 772 211 747 b 229 699 193 718 208 707 b 290 684 249 689 269 684 b 420 824 334 722 378 769 b 391 867 415 837 406 851 b 350 890 377 882 363 890 z m 279 613 b 152 572 238 613 195 600 b 42 476 108 545 71 513 b -3 375 12 439 -3 406 b 28 322 -3 353 7 336 b -14 126 0 254 -14 188 b 12 52 -14 97 -5 72 b 153 -9 47 12 103 -9 b 240 41 179 -9 208 8 b 330 168 271 75 301 117 b 399 328 357 218 381 271 b 427 478 418 383 427 433 b 400 545 427 502 418 524 b 338 595 382 566 361 582 b 279 613 315 607 295 613 z m 354 491 b 361 474 359 490 361 485 b 344 388 361 456 355 427 b 299 267 332 349 317 308 b 243 159 281 225 262 189 b 191 114 223 129 206 114 b 177 142 182 115 177 125 b 193 222 177 162 182 189 b 234 316 204 256 218 287 b 240 334 238 323 240 329 b 191 383 240 354 219 367 b 255 450 212 412 233 435 b 354 491 299 481 340 491 z "},"":{"ha":435,"x_min":0,"x_max":0,"o":"m 220 907 b 177 861 204 891 190 876 b 73 766 146 824 111 792 b 121 708 79 748 96 728 b 183 677 146 688 166 677 b 269 796 217 718 245 758 b 282 816 274 803 278 810 b 331 707 282 816 309 733 b 376 688 345 693 360 688 b 446 715 410 688 446 716 b 330 873 446 714 381 798 b 269 899 321 884 296 892 b 220 907 242 904 220 907 z m 279 613 b 152 572 238 613 195 600 b 42 476 108 545 71 513 b -3 375 12 439 -3 406 b 28 322 -3 353 7 336 b -14 126 0 254 -14 188 b 12 52 -14 97 -5 72 b 153 -9 47 12 103 -9 b 240 41 179 -9 208 8 b 330 168 271 75 301 117 b 399 328 357 218 381 271 b 427 478 418 383 427 433 b 400 545 427 502 418 524 b 338 595 382 566 361 582 b 279 613 315 607 295 613 z m 354 491 b 361 474 359 490 361 485 b 344 388 361 456 355 427 b 299 267 332 349 317 308 b 243 159 281 225 262 189 b 191 114 223 129 206 114 b 177 142 182 115 177 125 b 193 222 177 162 182 189 b 234 316 204 256 218 287 b 240 334 238 323 240 329 b 191 383 240 354 219 367 b 255 450 212 412 233 435 b 354 491 299 481 340 491 z "},"":{"ha":435,"x_min":0,"x_max":0,"o":"m 288 890 b 231 869 268 890 249 883 b 180 818 212 854 195 837 b 144 767 165 799 153 782 b 131 745 136 752 131 745 l 163 713 b 231 755 162 713 192 755 b 301 725 248 755 273 741 b 397 686 334 705 369 686 b 456 710 418 686 438 694 b 505 764 475 726 490 744 b 538 818 519 784 530 802 b 549 842 545 833 549 842 l 525 865 b 452 806 526 865 494 806 b 382 844 432 806 408 824 b 288 890 352 867 319 890 z m 279 613 b 152 572 238 613 195 600 b 42 476 108 545 71 513 b -3 375 12 439 -3 406 b 28 322 -3 353 7 336 b -14 126 0 254 -14 188 b 12 52 -14 97 -5 72 b 153 -9 47 12 103 -9 b 240 41 179 -9 208 8 b 330 168 271 75 301 117 b 399 328 357 218 381 271 b 427 478 418 383 427 433 b 400 545 427 502 418 524 b 338 595 382 566 361 582 b 279 613 315 607 295 613 z m 354 491 b 361 474 359 490 361 485 b 344 388 361 456 355 427 b 299 267 332 349 317 308 b 243 159 281 225 262 189 b 191 114 223 129 206 114 b 177 142 182 115 177 125 b 193 222 177 162 182 189 b 234 316 204 256 218 287 b 240 334 238 323 240 329 b 191 383 240 354 219 367 b 255 450 212 412 233 435 b 354 491 299 481 340 491 z "},"":{"ha":435,"x_min":0,"x_max":0,"o":"m 272 841 b 196 787 239 839 210 817 b 191 763 193 779 191 771 b 207 722 191 748 196 734 b 261 694 222 704 240 694 b 282 699 268 694 275 696 b 338 770 312 711 336 738 b 282 840 336 803 313 831 b 272 841 279 841 275 841 z m 446 841 b 370 787 412 837 386 819 b 364 764 366 779 364 772 b 381 722 364 749 370 735 b 435 694 397 704 414 694 b 456 699 442 694 449 696 b 512 770 486 711 509 738 b 456 840 510 803 487 831 b 446 841 453 841 450 841 z m 279 613 b 152 572 238 613 195 600 b 42 476 108 545 71 513 b -3 375 12 439 -3 406 b 28 322 -3 353 7 336 b -14 126 0 254 -14 188 b 12 52 -14 97 -5 72 b 153 -9 47 12 103 -9 b 240 41 179 -9 208 8 b 330 168 271 75 301 117 b 399 328 357 218 381 271 b 427 478 418 383 427 433 b 400 545 427 502 418 524 b 338 595 382 566 361 582 b 279 613 315 607 295 613 z m 354 491 b 361 474 359 490 361 485 b 344 388 361 456 355 427 b 299 267 332 349 317 308 b 243 159 281 225 262 189 b 191 114 223 129 206 114 b 177 142 182 115 177 125 b 193 222 177 162 182 189 b 234 316 204 256 218 287 b 240 334 238 323 240 329 b 191 383 240 354 219 367 b 255 450 212 412 233 435 b 354 491 299 481 340 491 z "},"":{"ha":554,"x_min":0,"x_max":0,"o":"m 302 537 b 249 513 284 537 266 529 b 220 460 232 497 222 479 l 220 459 b 242 414 220 444 228 429 b 288 391 256 400 271 392 l 289 391 b 340 414 307 391 324 398 b 368 464 357 429 366 446 l 368 468 b 349 513 368 484 361 498 b 307 537 336 527 322 535 z m 88 383 b 109 332 88 383 96 359 b 160 271 121 304 139 277 b 203 267 170 269 184 267 b 321 276 235 267 275 270 b 447 295 366 282 408 288 b 524 310 485 301 511 307 l 474 383 b 373 376 449 380 416 378 b 245 372 330 374 288 372 b 88 383 179 372 119 375 z m 299 241 b 245 217 280 241 262 233 b 216 163 228 201 218 183 l 216 163 b 238 118 216 147 224 132 b 285 94 252 104 268 96 l 286 94 b 337 117 304 94 321 102 b 364 168 353 132 362 149 l 364 170 b 346 216 364 186 358 201 b 302 241 333 231 319 239 z "},"":{"ha":571,"x_min":0,"x_max":0,"o":"m 551 728 b 519 680 551 728 541 712 b 433 554 497 648 469 606 b 427 559 431 555 429 557 b 286 628 388 589 334 628 b 190 592 255 628 223 616 b 96 498 157 568 125 537 b 25 370 67 460 43 416 b -3 231 7 323 -3 276 b 92 39 -3 157 25 87 b 6 -111 35 -50 6 -100 b 56 -155 6 -132 31 -146 b 106 -168 82 -164 106 -168 b 179 3 127 -110 152 -53 b 184 3 180 3 182 3 b 188 2 185 2 186 2 b 304 37 231 2 269 14 b 396 126 338 61 370 90 b 464 238 422 162 446 199 b 505 345 482 277 496 312 b 519 417 515 378 519 401 b 495 490 519 441 511 465 b 627 647 538 543 582 595 b 551 728 627 646 602 728 z m 346 510 b 395 498 354 510 374 507 b 166 153 319 385 243 271 b 161 191 163 165 161 177 b 195 327 161 231 172 277 b 271 456 216 376 241 420 b 346 510 300 492 325 510 z m 450 423 b 414 286 450 385 437 339 b 323 142 389 232 359 184 b 214 72 288 101 252 77 b 450 431 282 197 361 317 z "},"":{"ha":656,"x_min":0,"x_max":0,"o":"m 370 901 b 329 898 347 901 329 898 b 342 871 329 898 333 889 b 374 810 350 854 361 833 b 417 745 387 786 401 764 b 460 704 432 724 446 711 b 528 692 482 696 505 692 b 584 697 549 692 568 694 b 608 701 600 700 608 701 b 483 860 608 701 514 804 b 436 892 473 876 457 887 b 375 901 415 898 395 901 z m 196 604 b 168 591 182 604 174 604 b 81 446 139 553 111 504 b 8 271 52 389 28 330 b -22 121 -12 211 -22 161 b 84 -1 -22 31 33 -1 b 174 42 112 -1 142 14 b 273 149 207 70 240 106 b 368 286 307 192 338 237 b 328 106 344 221 328 157 b 424 -1 328 43 353 -1 b 565 91 469 -1 519 39 b 686 260 631 166 687 261 l 668 273 b 613 218 668 273 644 247 b 523 162 582 189 547 162 b 509 180 513 163 509 169 b 524 239 509 195 514 214 b 558 320 534 264 545 292 b 605 448 583 372 603 421 l 605 450 b 585 503 605 469 598 486 b 538 541 571 518 555 531 b 496 556 522 551 507 556 b 455 496 496 556 483 536 b 357 359 427 456 394 410 b 250 222 319 308 283 262 b 183 162 217 182 195 162 b 171 184 175 163 171 170 b 218 317 171 212 186 256 b 332 503 250 378 288 439 b 334 513 334 506 334 509 b 310 554 334 526 326 540 b 253 590 294 568 275 580 b 196 604 231 600 212 604 z "},"":{"ha":656,"x_min":0,"x_max":0,"o":"m 530 899 b 453 812 510 871 484 842 b 361 737 421 781 391 756 b 409 707 372 727 388 717 b 470 693 429 698 450 693 b 600 833 515 731 558 778 b 571 876 595 846 585 860 b 530 899 557 891 543 899 z m 196 604 b 168 591 182 604 174 604 b 81 446 139 553 111 504 b 8 271 52 389 28 330 b -22 121 -12 211 -22 161 b 84 -1 -22 31 33 -1 b 174 42 112 -1 142 14 b 273 149 207 70 240 106 b 368 286 307 192 338 237 b 328 106 344 221 328 157 b 424 -1 328 43 353 -1 b 565 91 469 -1 519 39 b 686 260 631 166 687 261 l 668 273 b 613 218 668 273 644 247 b 523 162 582 189 547 162 b 509 180 513 163 509 169 b 524 239 509 195 514 214 b 558 320 534 264 545 292 b 605 448 583 372 603 421 l 605 450 b 585 503 605 469 598 486 b 538 541 571 518 555 531 b 496 556 522 551 507 556 b 455 496 496 556 483 536 b 357 359 427 456 394 410 b 250 222 319 308 283 262 b 183 162 217 182 195 162 b 171 184 175 163 171 170 b 218 317 171 212 186 256 b 332 503 250 378 288 439 b 334 513 334 506 334 509 b 310 554 334 526 326 540 b 253 590 294 568 275 580 b 196 604 231 600 212 604 z "},"":{"ha":656,"x_min":0,"x_max":0,"o":"m 459 914 b 419 871 445 899 431 884 b 312 774 387 832 351 800 b 360 715 319 755 335 735 b 422 685 385 695 406 685 b 509 804 456 725 486 765 b 522 823 513 810 517 817 b 570 714 522 823 548 740 b 615 694 584 700 600 694 b 685 722 650 694 686 723 b 569 880 686 721 621 804 b 509 906 560 891 535 900 b 459 914 481 911 459 914 z m 196 604 b 168 591 182 604 174 604 b 81 446 139 553 111 504 b 8 271 52 389 28 330 b -22 121 -12 211 -22 161 b 84 -1 -22 31 33 -1 b 174 42 112 -1 142 14 b 273 149 207 70 240 106 b 368 286 307 192 338 237 b 328 106 344 221 328 157 b 424 -1 328 43 353 -1 b 565 91 469 -1 519 39 b 686 260 631 166 687 261 l 668 273 b 613 218 668 273 644 247 b 523 162 582 189 547 162 b 509 180 513 163 509 169 b 524 239 509 195 514 214 b 558 320 534 264 545 292 b 605 448 583 372 603 421 l 605 450 b 585 503 605 469 598 486 b 538 541 571 518 555 531 b 496 556 522 551 507 556 b 455 496 496 556 483 536 b 357 359 427 456 394 410 b 250 222 319 308 283 262 b 183 162 217 182 195 162 b 171 184 175 163 171 170 b 218 317 171 212 186 256 b 332 503 250 378 288 439 b 334 513 334 506 334 509 b 310 554 334 526 326 540 b 253 590 294 568 275 580 b 196 604 231 600 212 604 z "},"":{"ha":656,"x_min":0,"x_max":0,"o":"m 408 840 b 332 785 375 838 346 814 b 326 762 328 777 326 769 b 342 720 326 747 332 733 b 397 692 358 702 376 692 b 418 697 404 692 411 694 b 473 768 448 709 471 736 b 418 838 471 801 448 829 b 408 840 414 839 411 840 z m 583 840 b 506 785 549 838 520 814 b 500 762 503 777 500 769 b 517 720 500 747 506 733 b 571 692 532 702 550 692 b 592 697 578 692 585 694 b 648 768 622 709 646 736 b 592 838 646 801 623 829 b 583 840 589 839 585 840 z m 196 604 b 168 591 182 604 174 604 b 81 446 139 553 111 504 b 8 271 52 389 28 330 b -22 121 -12 211 -22 161 b 84 -1 -22 31 33 -1 b 174 42 112 -1 142 14 b 273 149 207 70 240 106 b 368 286 307 192 338 237 b 328 106 344 221 328 157 b 424 -1 328 43 353 -1 b 565 91 469 -1 519 39 b 686 260 631 166 687 261 l 668 273 b 613 218 668 273 644 247 b 523 162 582 189 547 162 b 509 180 513 163 509 169 b 524 239 509 195 514 214 b 558 320 534 264 545 292 b 605 448 583 372 603 421 l 605 450 b 585 503 605 469 598 486 b 538 541 571 518 555 531 b 496 556 522 551 507 556 b 455 496 496 556 483 536 b 357 359 427 456 394 410 b 250 222 319 308 283 262 b 183 162 217 182 195 162 b 171 184 175 163 171 170 b 218 317 171 212 186 256 b 332 503 250 378 288 439 b 334 513 334 506 334 509 b 310 554 334 526 326 540 b 253 590 294 568 275 580 b 196 604 231 600 212 604 z "},"":{"ha":654,"x_min":0,"x_max":0,"o":"m 448 896 b 371 809 428 868 402 840 b 279 734 339 779 309 753 b 327 705 290 724 306 713 b 388 690 347 695 368 690 b 518 831 433 728 476 775 b 490 873 513 843 504 857 b 448 896 475 888 462 896 z m 164 604 b 136 591 151 604 142 604 b 75 448 117 553 97 505 b 18 271 53 390 34 331 b -7 121 1 212 -7 161 b 100 -1 -7 31 47 -1 b 279 128 151 -1 214 51 b 450 393 343 205 404 300 b 343 47 427 274 391 159 b 271 -10 324 33 300 14 b 182 -91 241 -35 212 -62 b 108 -180 153 -120 128 -150 b 77 -262 87 -210 77 -237 b 104 -322 77 -282 85 -302 b 167 -372 121 -342 142 -359 b 234 -391 191 -385 214 -391 b 314 -333 254 -391 281 -372 b 419 -178 347 -294 382 -242 b 524 32 456 -115 491 -45 b 605 261 557 108 584 184 b 637 471 626 338 637 408 b 607 529 637 489 627 508 b 538 583 587 550 564 568 b 472 604 511 597 490 604 b 441 489 472 576 462 538 b 365 341 420 440 395 391 b 274 214 334 292 304 249 b 199 162 243 180 218 162 b 186 184 191 163 186 170 b 221 318 186 212 198 256 b 300 503 244 380 271 441 b 302 513 302 506 302 509 b 278 554 302 526 294 540 b 221 590 262 568 243 580 b 164 604 199 600 180 604 z m 319 -5 b 153 -265 268 -112 213 -198 b 199 -157 153 -241 169 -205 b 319 -5 230 -107 270 -57 z "},"":{"ha":676,"x_min":0,"x_max":0,"o":"m 307 897 b 264 781 307 897 292 858 b 167 509 235 705 203 614 b 70 210 131 404 98 304 b 27 14 41 115 27 50 b 84 -111 27 -44 52 -84 b 188 -165 131 -151 189 -165 l 188 -147 b 242 163 188 -58 210 51 b 243 161 242 163 243 161 b 243 158 243 159 243 158 b 308 75 254 126 275 98 b 395 39 341 51 370 39 b 492 79 429 39 461 53 b 576 183 524 106 551 140 b 634 320 600 225 620 271 b 656 460 648 369 656 416 b 507 644 656 562 614 644 b 439 612 488 644 465 633 b 363 532 414 591 389 564 b 423 741 398 631 423 707 b 365 861 423 798 395 836 b 307 897 334 886 307 897 z m 452 473 b 467 453 462 472 467 466 l 467 451 b 436 321 465 410 455 367 b 371 203 417 276 395 236 b 311 153 347 170 326 153 b 284 201 292 153 284 171 b 321 352 284 238 296 288 b 451 473 376 431 427 473 z "},"":{"ha":654,"x_min":0,"x_max":0,"o":"m 363 838 b 286 783 330 836 300 813 b 281 761 283 776 281 768 b 298 720 281 746 286 732 b 352 691 313 701 331 691 b 372 696 359 691 366 692 b 429 767 402 709 426 734 b 372 837 426 800 403 828 b 363 838 370 838 366 838 z m 537 838 b 460 783 504 836 475 813 b 455 761 457 776 455 768 b 472 720 455 746 460 732 b 526 691 488 701 505 691 b 547 696 533 691 540 692 b 602 767 576 709 600 734 b 547 837 600 800 577 828 b 537 838 544 838 541 838 z m 164 604 b 136 591 151 604 142 604 b 75 448 117 553 97 505 b 18 271 53 390 34 331 b -7 121 1 212 -7 161 b 100 -1 -7 31 47 -1 b 279 128 151 -1 214 51 b 450 393 343 205 404 300 b 343 47 427 274 391 159 b 271 -10 324 33 300 14 b 182 -91 241 -35 212 -62 b 108 -180 153 -120 128 -150 b 77 -262 87 -210 77 -237 b 104 -322 77 -282 85 -302 b 167 -372 121 -342 142 -359 b 234 -391 191 -385 214 -391 b 314 -333 254 -391 281 -372 b 419 -178 347 -294 382 -242 b 524 32 456 -115 491 -45 b 605 261 557 108 584 184 b 637 471 626 338 637 408 b 607 529 637 489 627 508 b 538 583 587 550 564 568 b 472 604 511 597 490 604 b 441 489 472 576 462 538 b 365 341 420 440 395 391 b 274 214 334 292 304 249 b 199 162 243 180 218 162 b 186 184 191 163 186 170 b 221 318 186 212 198 256 b 300 503 244 380 271 441 b 302 513 302 506 302 509 b 278 554 302 526 294 540 b 221 590 262 568 243 580 b 164 604 199 600 180 604 z m 319 -5 b 153 -265 268 -112 213 -198 b 199 -157 153 -241 169 -205 b 319 -5 230 -107 270 -57 z "},"":{"ha":538,"x_min":0,"x_max":0,"o":"m 213 -74 l 344 -74 l 344 808 l 213 808 z "},"":{"ha":376,"x_min":0,"x_max":0,"o":"m 205 895 b 134 869 182 895 158 886 b 68 808 110 851 87 831 b 19 747 47 785 31 765 b 0 721 6 730 0 721 l 39 690 b 83 745 39 690 58 716 b 151 799 107 773 135 799 b 209 745 170 799 190 773 b 269 691 229 718 250 691 b 315 706 283 691 298 696 b 376 777 349 726 376 755 b 304 829 356 777 331 801 b 255 875 288 846 272 861 b 205 895 238 888 222 895 z "},"":{"ha":376,"x_min":0,"x_max":0,"o":"m 337 896 b 293 842 337 896 317 870 b 225 787 269 813 241 787 b 167 840 206 787 186 812 b 107 894 147 867 127 894 b 60 879 93 894 77 889 b 0 808 27 859 0 829 b 72 756 20 808 45 784 b 121 711 87 739 104 724 b 170 690 138 696 155 690 b 242 716 194 690 218 699 b 309 777 266 734 288 754 b 357 838 328 800 345 820 b 376 865 370 856 376 865 z "},"":{"ha":435,"x_min":0,"x_max":0,"o":"m 0 896 b 20 844 0 896 7 871 b 73 783 33 817 51 789 b 115 779 83 781 97 779 b 232 788 146 779 186 782 b 359 807 278 794 320 800 b 435 822 397 814 422 819 l 386 896 b 286 888 361 892 328 890 b 158 884 243 886 201 884 b 0 896 91 884 31 888 z "},"":{"ha":376,"x_min":0,"x_max":0,"o":"m 337 895 b 294 841 337 895 318 869 b 225 786 269 812 241 786 b 167 840 206 786 186 812 b 107 894 147 867 127 894 b 61 879 93 894 77 889 b 0 808 28 859 0 829 b 72 756 20 808 45 784 b 121 711 88 739 104 724 b 170 690 138 696 155 690 b 242 716 194 690 218 699 b 309 777 266 734 288 754 b 357 838 328 800 345 820 b 376 864 370 855 376 864 z "},"":{"ha":151,"x_min":0,"x_max":0,"o":"m 83 895 b 29 871 64 895 46 887 b 1 818 12 855 3 838 l 1 817 b 22 772 1 801 8 786 b 68 749 37 758 52 749 l 71 749 b 121 771 88 749 105 756 b 149 821 137 786 146 803 l 149 824 b 130 870 149 840 142 855 b 87 895 117 885 103 893 z "},"":{"ha":270,"x_min":0,"x_max":0,"o":"m 175 895 b 93 854 136 895 110 878 b 38 746 55 822 38 782 b 62 680 38 720 46 698 b 125 651 77 661 98 651 l 126 651 b 228 696 166 653 200 668 b 270 801 256 725 270 760 b 252 857 270 825 264 843 b 175 895 229 884 194 895 z m 179 858 b 207 825 198 858 207 844 b 183 764 207 806 199 785 b 119 726 167 741 145 729 l 114 726 b 90 741 98 726 90 731 b 98 740 92 741 95 740 b 141 756 113 740 134 745 l 141 767 b 144 802 141 776 142 787 b 179 858 146 831 155 858 z "},"":{"ha":240,"x_min":0,"x_max":0,"o":"m 19 -142 b 18 -159 18 -147 18 -153 b 37 -232 18 -182 24 -206 b 83 -303 50 -257 66 -281 b 129 -357 100 -326 115 -343 b 149 -378 142 -372 149 -378 l 187 -347 l 174 -332 b 102 -218 150 -304 102 -243 b 102 -215 102 -217 102 -216 b 166 -169 107 -197 136 -182 b 232 -121 198 -155 227 -140 b 233 -109 233 -117 233 -113 b 212 -41 233 -87 227 -65 b 170 1 198 -18 184 -4 b 104 -59 164 -18 136 -38 b 19 -142 65 -83 27 -111 z "},"":{"ha":418,"x_min":0,"x_max":0,"o":"m 157 885 b 99 863 137 885 117 878 b 49 812 81 848 64 831 b 14 761 34 793 22 776 b 0 739 5 746 0 739 l 31 707 b 99 749 31 707 62 749 b 170 719 117 749 142 735 b 266 680 203 700 237 680 b 325 704 287 680 307 688 b 374 758 343 720 359 738 b 407 812 388 778 399 796 b 418 836 414 827 418 836 l 393 859 b 320 801 393 861 363 801 b 251 838 300 801 277 818 b 157 885 221 861 189 885 z "},"":{"ha":239,"x_min":0,"x_max":0,"o":"m 62 996 b 37 972 55 996 47 988 b 12 917 27 956 19 937 b 0 867 4 897 0 880 b 58 781 0 802 58 781 b 94 881 58 805 75 844 b 121 951 108 911 121 938 b 62 996 121 966 82 996 z m 180 996 b 155 972 173 996 165 988 b 130 917 145 956 137 937 b 118 867 122 897 118 880 b 176 781 118 802 176 781 b 212 881 176 805 193 844 b 239 951 227 911 239 938 b 180 996 239 966 201 996 z "},"":{"ha":949,"x_min":0,"x_max":0,"o":"m 133 363 b 153 312 133 363 140 339 b 205 252 166 284 184 258 b 272 248 216 249 239 248 b 505 256 330 248 408 250 b 768 275 602 262 689 269 b 909 290 847 281 894 287 l 861 363 b 691 356 833 360 777 358 b 426 353 605 354 517 353 b 240 355 357 353 295 353 b 133 363 185 357 149 359 z "},"":{"ha":1152,"x_min":0,"x_max":0,"o":"m 136 364 b 157 313 136 364 144 340 b 209 252 170 285 187 258 b 286 248 220 249 246 248 b 586 257 358 248 458 251 b 935 276 714 263 830 269 b 1118 291 1040 282 1101 288 l 1068 364 b 861 357 1040 361 970 359 b 519 353 751 355 637 353 b 272 356 427 353 345 354 b 136 364 199 357 154 360 z "},"":{"ha":204,"x_min":0,"x_max":0,"o":"m 313 996 b 288 971 306 996 298 987 b 262 916 278 955 270 937 b 251 867 255 896 251 880 b 309 780 251 802 309 780 b 345 880 309 804 328 843 b 372 951 360 910 372 937 b 313 996 372 966 334 996 z "},"":{"ha":204,"x_min":0,"x_max":0,"o":"m 313 996 b 288 971 306 996 298 987 b 262 916 278 955 270 937 b 251 867 255 896 251 880 b 309 780 251 802 309 780 b 345 880 309 804 328 843 b 372 951 360 910 372 937 b 313 996 372 966 334 996 z "},"":{"ha":204,"x_min":0,"x_max":0,"o":"m 119 66 b 94 42 111 66 103 58 b 68 -13 83 26 75 7 b 56 -62 60 -33 56 -50 b 114 -149 56 -127 115 -149 b 150 -49 114 -125 133 -86 b 178 22 165 -19 178 8 b 119 66 178 37 139 66 z "},"":{"ha":239,"x_min":0,"x_max":0,"o":"m 286 996 b 261 972 279 996 271 988 b 235 917 251 956 243 937 b 224 867 228 897 224 880 b 281 781 224 802 282 781 b 317 881 281 805 299 844 b 345 951 332 911 345 938 b 286 996 345 966 306 996 z m 404 996 b 379 972 397 996 389 988 b 353 917 369 956 361 937 b 342 867 346 897 342 880 b 399 781 342 802 400 781 b 435 881 399 805 417 844 b 463 951 451 911 463 938 b 404 996 463 966 425 996 z "},"":{"ha":239,"x_min":0,"x_max":0,"o":"m 286 996 b 261 972 279 996 271 988 b 235 917 251 956 243 937 b 224 867 228 897 224 880 b 281 781 224 802 282 781 b 317 881 281 805 299 844 b 345 951 332 911 345 938 b 286 996 345 966 306 996 z m 404 996 b 379 972 397 996 389 988 b 353 917 369 956 361 937 b 342 867 346 897 342 880 b 399 781 342 802 400 781 b 435 881 399 805 417 844 b 463 951 451 911 463 938 b 404 996 463 966 425 996 z "},"":{"ha":371,"x_min":0,"x_max":0,"o":"m 133 70 b 109 45 126 70 118 62 b 83 -9 98 29 90 11 b 71 -59 75 -30 71 -46 b 129 -146 71 -124 130 -146 b 165 -45 129 -121 146 -83 b 192 25 179 -16 192 12 b 133 70 192 40 153 70 z m 251 70 b 227 45 244 70 236 62 b 201 -9 216 29 208 11 b 189 -59 193 -30 189 -46 b 247 -146 189 -124 248 -146 b 283 -45 247 -121 264 -83 b 310 25 297 -16 310 12 b 251 70 310 40 271 70 z "},"":{"ha":694,"x_min":0,"x_max":0,"o":"m 387 148 b 500 193 431 148 469 163 b 546 303 530 224 546 260 b 500 414 546 346 530 383 b 387 459 469 444 431 459 b 274 414 342 459 305 444 b 227 303 243 383 227 346 b 274 193 227 260 243 224 b 387 148 305 163 342 148 z "},"":{"ha":749,"x_min":0,"x_max":0,"o":"m 146 137 b 92 113 127 137 109 129 b 64 60 75 97 66 79 l 64 58 b 86 13 64 42 72 27 b 132 -9 100 -1 115 -9 l 134 -9 b 185 13 152 -9 169 -2 b 212 63 201 28 210 45 l 212 66 b 193 112 212 81 205 97 b 150 137 180 127 166 135 z m 393 137 b 338 113 374 137 355 129 b 311 60 321 97 312 79 b 332 13 311 43 317 27 b 378 -9 346 -1 361 -9 b 431 14 397 -9 415 -1 b 458 63 446 28 456 45 l 458 65 b 439 111 458 81 452 97 b 396 137 427 126 413 135 z m 639 137 b 585 113 620 137 602 129 b 557 60 568 97 558 79 b 578 13 557 43 564 27 b 625 -9 592 -1 608 -9 b 677 13 644 -9 661 -2 b 704 63 692 28 702 45 l 704 65 b 686 111 704 81 698 97 b 642 137 673 126 659 135 z "},"":{"ha":688,"x_min":0,"x_max":0,"o":"m 382 646 b -1 361 269 534 141 439 b 29 308 9 345 19 326 b 172 82 71 233 117 153 b 371 -7 235 3 301 -7 b 409 -7 384 -7 396 -7 b 446 -6 421 -6 433 -6 b 193 305 340 65 255 178 b 478 526 277 351 372 425 b 462 566 478 535 473 548 b 424 615 451 583 438 600 b 382 646 409 631 395 641 z "},"":{"ha":1369,"x_min":0,"x_max":0,"o":"m 29 646 b 59 592 39 629 49 610 b 201 366 100 517 147 437 b 252 317 218 346 235 330 b -3 113 174 268 89 200 b 14 75 -3 104 3 92 b 93 -6 35 39 66 4 b 476 278 207 106 334 201 b 374 374 441 299 408 331 b 280 502 341 416 309 458 b 215 593 256 538 235 568 b 161 630 201 610 182 623 b 33 646 117 645 66 646 z "},"":{"ha":386,"x_min":0,"x_max":0,"o":"m 633 1066 b 576 919 633 1034 614 985 b 433 696 537 852 490 779 b 257 451 376 614 317 533 b 130 273 211 387 169 328 b 36 132 92 218 60 172 b -1 50 12 92 -1 65 b 55 -40 -1 15 26 -17 b 111 -77 84 -63 111 -77 b 159 45 111 -52 127 -11 b 280 235 191 100 231 163 b 435 454 329 306 380 379 b 577 656 486 525 533 592 b 686 825 621 721 658 777 b 728 928 714 873 728 907 b 705 995 728 944 720 966 b 633 1066 688 1023 665 1047 z "},"":{"ha":475,"x_min":0,"x_max":0,"o":"m 852 888 b 848 911 852 890 850 898 l 848 913 b 798 1044 842 945 827 996 b 656 1130 768 1093 723 1130 b 441 1096 602 1130 526 1114 b 172 1054 296 1063 208 1054 b 71 1074 132 1054 98 1061 b 84 1021 71 1065 75 1048 b 122 947 93 995 105 970 b 182 909 138 924 159 911 b 404 930 248 911 322 918 b 695 956 498 943 598 956 b 773 939 723 956 749 950 b 831 905 797 927 817 916 z m 60 273 b -24 283 24 275 -4 278 l -24 282 l -23 281 l -23 281 b -19 270 -22 279 -21 275 l -19 269 b -18 267 -19 269 -19 268 b 20 193 -11 246 1 216 b 33 179 24 187 28 182 b 22 109 26 150 22 126 b 167 -64 22 -5 124 -52 b 182 -68 174 -66 180 -67 l 182 -68 l 183 -68 l 183 -57 b 219 177 183 16 195 94 b 314 191 251 181 283 186 b 412 210 363 199 395 205 l 362 283 b 250 275 334 279 297 277 b 311 442 269 332 289 387 b 495 459 397 454 459 459 b 579 429 553 459 574 437 b 581 427 580 428 580 427 b 581 426 581 426 581 426 l 577 441 l 577 442 b 454 589 567 484 531 589 b 365 578 432 589 402 585 b 418 747 397 654 418 715 b 400 819 418 775 412 800 b 319 895 376 859 342 883 b 302 902 310 899 304 901 b 302 903 302 902 302 902 l 301 903 b 300 901 301 902 301 902 b 294 886 300 899 298 894 l 294 886 l 294 886 l 294 884 l 293 884 l 293 882 l 292 882 l 292 881 b 292 880 292 881 292 881 l 292 880 b 290 876 291 878 291 877 l 290 876 b 289 873 290 875 290 874 l 289 873 l 288 873 l 288 871 l 288 871 l 288 869 l 287 869 l 287 868 b 286 866 286 867 286 867 l 286 865 l 285 865 l 285 863 b 283 861 284 863 284 862 l 283 861 b 283 859 283 860 283 860 l 283 859 b 282 858 283 858 283 858 l 282 857 b 280 852 281 856 281 854 l 280 852 l 279 851 l 279 850 b 279 849 279 850 279 850 l 279 848 l 275 841 b 275 840 275 840 275 840 l 275 839 l 274 838 l 274 838 l 273 836 b 272 833 273 836 273 834 l 272 832 l 271 832 l 271 831 b 271 829 271 830 271 829 l 270 829 l 270 827 l 269 827 l 269 826 l 269 825 l 269 824 l 268 824 l 268 823 b 266 818 267 821 267 820 l 265 817 l 265 816 l 264 816 b 264 813 264 815 264 814 b 259 801 262 810 260 806 b 258 799 258 800 258 800 l 258 798 b 257 797 257 798 257 798 l 257 796 l 256 796 b 255 793 256 795 256 793 l 255 791 b 151 531 224 718 189 631 b 68 517 112 523 84 518 b 39 516 53 517 43 516 b 1 528 19 516 6 520 l 1 526 b 1 517 1 524 1 521 b 68 420 1 490 14 420 b 110 421 80 420 94 420 b 60 273 90 368 74 319 z "},"":{"ha":847,"x_min":0,"x_max":0,"o":"m 690 989 b 373 844 583 989 473 933 b 129 519 273 755 189 641 b 36 528 64 522 36 528 b 43 494 36 528 37 512 b 75 457 48 475 58 459 b 77 457 76 457 77 457 b 100 456 85 456 93 456 b 75 385 90 432 82 408 b 0 393 23 387 0 393 b 7 358 0 393 1 376 b 39 321 12 339 22 323 b 50 320 43 321 46 321 b 58 320 52 320 55 320 b 49 227 52 287 49 256 b 292 -6 49 92 117 -6 b 428 31 338 -6 383 6 b 553 123 473 54 515 85 b 729 372 631 199 693 291 l 707 384 b 555 238 677 342 623 287 b 329 151 487 189 408 151 b 254 186 295 151 270 163 b 229 271 237 208 229 237 l 229 277 b 232 312 229 288 230 300 b 232 314 232 313 232 313 b 323 313 269 313 299 313 b 426 321 421 313 427 319 b 355 393 426 319 395 393 l 353 393 b 248 385 314 389 279 387 b 273 450 255 407 263 429 b 354 448 305 449 332 448 b 462 457 457 448 462 456 b 392 528 462 456 431 528 l 389 528 b 372 527 382 528 377 528 b 313 523 351 525 331 524 b 537 771 376 621 450 704 b 744 871 624 838 693 871 b 766 852 759 871 766 864 b 734 783 766 836 755 812 b 652 693 713 753 685 724 b 543 614 618 663 582 636 b 433 582 505 593 467 582 b 587 503 432 583 504 503 b 688 557 613 503 647 521 b 799 684 730 594 766 636 b 847 806 831 732 847 772 b 824 900 847 841 840 872 b 690 989 793 955 742 989 z "},"":{"ha":781,"x_min":0,"x_max":0,"o":"m 424 1002 b 404 998 416 1002 410 1000 b 243 833 351 965 297 910 b 102 572 190 755 142 669 b 14 557 43 562 14 557 b 20 522 15 547 16 536 b 34 488 22 507 27 496 b 71 493 46 490 58 492 b 9 195 29 380 9 281 b 159 -1 9 79 50 -1 b 295 83 205 -1 252 35 b 398 220 338 130 374 182 b 397 194 397 212 397 203 b 549 -1 397 80 440 -1 b 621 26 572 -1 596 8 b 692 92 646 44 669 66 b 753 169 714 117 734 143 b 795 234 770 194 785 216 b 811 260 806 252 811 260 l 793 274 b 735 218 793 274 768 248 b 632 163 702 189 662 163 b 575 246 597 163 575 189 b 610 402 575 284 587 336 b 635 470 617 425 626 447 b 652 484 641 475 646 479 b 683 511 662 492 673 501 b 836 488 757 505 808 498 b 837 500 837 488 837 493 b 793 589 837 525 831 576 b 783 591 789 589 786 591 b 772 593 779 592 776 593 b 865 693 806 627 837 660 b 960 867 922 760 960 823 l 960 867 b 905 960 957 901 939 932 b 814 1002 870 987 840 1002 l 813 1002 b 793 998 805 1002 798 1000 b 644 849 744 968 694 918 b 509 614 594 780 549 701 b 399 608 472 613 435 611 b 521 750 447 656 488 703 b 571 866 554 796 571 835 l 571 867 b 515 960 568 901 549 932 b 425 1002 481 987 451 1002 z m 488 871 b 435 750 486 839 468 798 b 317 602 401 701 362 652 b 313 601 316 601 315 601 b 305 600 311 601 308 601 b 488 871 361 714 422 804 z m 877 871 b 824 751 874 840 857 800 b 709 605 791 703 753 654 b 697 606 705 606 701 606 b 877 871 752 718 812 806 z m 468 517 b 403 273 435 431 414 350 b 401 271 402 272 401 271 b 366 236 395 264 384 253 b 305 186 348 219 328 202 b 243 163 282 171 261 163 b 186 246 210 163 186 189 b 220 402 186 284 198 336 b 239 451 227 418 233 435 b 246 470 241 457 244 464 b 297 513 262 484 279 498 b 468 517 355 515 412 517 z "},"":{"ha":777,"x_min":0,"x_max":0,"o":"m 422 1002 b 402 998 414 1002 408 1000 b 220 802 341 960 281 895 b 68 494 160 709 110 606 b 6 195 27 381 6 281 b 157 -1 6 79 49 -1 b 241 21 184 -1 212 7 b 399 138 298 50 353 94 b 546 -1 412 53 456 -1 b 618 26 570 -1 593 8 b 689 92 643 44 667 66 b 750 169 711 117 732 143 b 793 234 768 194 782 216 b 808 260 803 252 808 260 l 790 274 b 732 218 790 274 766 248 b 629 163 699 189 659 163 b 573 247 596 163 573 190 b 586 336 573 271 577 301 b 704 470 622 376 661 420 b 825 621 746 519 786 570 b 920 762 863 671 895 718 b 958 867 945 806 958 841 b 932 930 958 888 949 909 b 871 981 915 951 895 968 b 810 1002 848 995 828 1002 b 791 998 802 1002 795 1000 b 615 811 732 962 673 899 b 466 519 556 722 507 625 b 395 223 425 412 401 313 b 241 163 351 191 294 163 b 184 246 208 163 184 189 b 218 402 184 285 196 336 b 336 663 250 490 289 577 b 486 871 383 749 433 819 b 443 751 486 846 471 806 b 342 576 414 696 381 637 b 233 411 304 515 267 460 l 252 399 b 284 437 252 399 262 412 b 363 533 305 463 332 494 b 458 656 395 572 426 613 b 537 778 489 699 515 740 b 569 867 558 816 569 846 b 543 930 569 888 560 909 b 483 981 526 951 506 968 b 422 1002 460 995 439 1002 z m 874 871 b 833 745 872 834 859 792 b 741 597 808 696 778 648 b 627 455 703 547 665 500 b 739 689 659 536 696 614 b 874 871 782 764 827 825 z "},"":{"ha":853,"x_min":0,"x_max":0,"o":"m 333 830 b 313 825 326 830 319 829 b 180 667 271 799 227 746 b 52 381 134 587 92 492 b -41 38 13 271 -18 156 b -138 26 -79 31 -111 26 b -58 -61 -138 -18 -115 -48 b -72 -252 -67 -127 -72 -191 b -47 -309 -72 -268 -64 -287 b 18 -367 -31 -331 -9 -350 b 110 -391 45 -383 76 -391 b 155 -367 124 -391 139 -383 b 193 -309 170 -351 182 -331 b 208 -245 203 -286 208 -264 b 197 -127 208 -213 205 -174 b 165 9 190 -80 179 -35 b 419 178 266 61 351 117 b 388 39 407 132 397 86 b 270 26 347 32 308 28 b 371 -60 270 -18 312 -47 b 357 -252 362 -127 357 -191 b 389 -309 357 -268 368 -287 b 461 -367 410 -331 433 -350 b 532 -391 488 -383 512 -391 b 577 -367 547 -391 562 -383 b 615 -309 592 -351 605 -331 b 631 -245 625 -286 631 -264 b 620 -127 631 -213 627 -174 b 587 7 612 -81 602 -36 b 734 102 637 34 686 66 b 857 220 783 139 823 178 b 886 260 876 247 886 260 l 868 274 b 836 243 857 263 846 253 b 580 87 751 175 665 123 b 600 172 586 119 593 147 b 648 315 614 220 630 267 b 791 448 699 356 747 401 b 901 583 836 494 872 539 b 943 694 929 626 943 663 l 943 695 b 911 758 943 716 932 737 b 836 810 889 779 864 795 b 764 830 808 823 783 830 b 743 825 755 830 748 829 b 584 620 692 793 639 725 b 440 254 529 515 481 393 b 420 235 433 248 426 241 b 156 81 332 165 245 114 b 178 172 163 115 170 145 b 301 488 211 283 252 389 b 438 699 349 586 395 656 b 399 536 435 644 422 589 b 315 382 376 482 348 431 b 218 246 282 334 250 288 b 212 239 216 244 214 241 l 224 227 b 255 259 224 227 235 238 b 329 343 275 280 300 309 b 417 457 358 378 388 416 b 492 581 446 498 471 540 b 522 695 511 623 522 661 b 447 787 522 727 488 760 b 333 830 406 813 359 830 z m 861 699 b 810 572 859 663 842 621 b 692 422 779 524 740 474 b 861 699 751 552 807 644 z m 140 -18 b 156 -169 151 -71 156 -121 b 125 -276 156 -220 148 -262 b 121 -231 123 -268 121 -253 b 140 -18 121 -181 127 -110 z m 562 -18 b 578 -170 573 -71 578 -122 b 548 -276 578 -221 570 -262 b 544 -231 545 -268 544 -253 b 562 -18 544 -181 550 -110 z "},"":{"ha":1410,"x_min":0,"x_max":0,"o":"m 287 604 b 184 563 252 604 218 591 b 92 456 150 535 119 499 b 25 315 64 412 42 365 b 0 173 8 265 0 218 b 160 -1 0 75 45 -1 b 251 37 188 -1 218 12 b 346 136 283 62 315 94 b 499 420 408 217 464 319 b 439 183 486 340 466 262 b 283 21 382 130 331 75 b 166 -134 235 -34 196 -85 b 121 -261 136 -182 121 -225 b 149 -322 121 -281 130 -302 b 212 -372 166 -342 187 -359 b 279 -391 236 -385 258 -391 b 398 -281 307 -391 347 -355 b 549 -12 450 -208 500 -118 b 661 308 598 96 635 201 b 747 391 691 337 720 365 b 692 173 710 313 692 241 b 852 -1 692 75 736 -1 b 943 37 880 -1 910 12 b 1038 136 975 62 1006 94 b 1191 420 1100 217 1156 319 b 1079 48 1168 292 1131 168 b 1007 -10 1060 34 1036 14 b 919 -90 978 -34 948 -61 b 844 -179 889 -119 864 -149 b 813 -261 823 -209 813 -236 b 840 -322 813 -281 822 -302 b 903 -372 857 -342 878 -359 b 970 -391 928 -385 950 -391 b 1050 -333 990 -391 1017 -372 b 1156 -178 1084 -294 1118 -242 b 1260 32 1192 -115 1227 -45 b 1341 261 1293 108 1320 184 b 1373 471 1362 338 1373 408 b 1343 529 1373 489 1362 508 b 1274 583 1322 550 1299 568 b 1208 604 1247 597 1225 604 b 1145 435 1191 542 1170 486 b 1146 455 1145 442 1146 449 b 1143 486 1146 467 1145 477 b 1072 569 1131 517 1107 545 b 979 604 1035 593 1004 604 b 848 538 935 604 890 579 b 676 397 830 524 772 477 b 681 471 680 422 681 447 b 651 529 681 489 671 508 b 582 583 631 550 608 568 b 516 604 555 597 534 604 b 453 435 499 542 478 486 b 454 455 454 442 454 449 b 451 486 454 467 453 477 b 380 569 440 517 416 545 b 287 604 343 593 312 604 z m 354 465 b 390 397 371 465 390 450 b 378 310 390 375 386 346 b 216 171 311 220 248 171 b 198 193 204 171 198 178 b 227 315 198 232 208 273 b 294 422 247 357 269 393 b 354 465 318 451 338 465 z m 1046 465 b 1082 399 1063 465 1082 450 b 1069 310 1082 376 1078 347 b 908 171 1004 220 940 171 b 890 193 896 171 890 178 b 919 315 890 232 899 273 b 985 422 939 357 960 393 b 1046 465 1010 451 1030 465 z m 368 4 b 197 -265 316 -106 259 -196 b 245 -153 197 -237 213 -200 b 368 4 277 -105 317 -53 z m 1055 -5 b 889 -265 1004 -111 949 -198 b 935 -156 889 -241 905 -205 b 1055 -5 966 -107 1006 -57 z "}}}
